<svg width="101" height="108" viewBox="0 0 101 108" fill="none" xmlns="http://www.w3.org/2000/svg">
<path d="M0 19.1751L29.5831 10.0061L24.2828 28.3496L0 19.1751Z" fill="#7C0E3B"/>
<path d="M100.06 64.6733L79.4774 80.1697L79.3232 62.3604L95.8201 60.7413L100.06 64.6733Z" fill="#7C0E3B"/>
<g filter="url(#filter0_d_3974_2)">
<path d="M75.9307 7.09289C69.4553 6.16773 50.3375 0 50.3375 0C50.3375 0 31.2196 6.16773 24.7442 7.09289C21.044 7.55547 17.575 8.94321 15.1082 11.8729C12.6414 14.8026 11.0996 18.9658 11.0996 23.4374V54.3531V76.568C11.0996 81.1167 12.6414 85.2028 15.1082 88.1324C17.575 91.0621 21.044 92.3728 24.7442 92.9895C31.2967 93.9918 50.3375 100.93 50.3375 100.93C50.3375 100.93 69.3782 93.9918 75.9307 92.9895C79.631 92.4499 83.0999 91.1392 85.5668 88.1324C88.0336 85.1257 89.5753 81.0396 89.5753 76.568V54.3531V23.5145C89.5753 18.9658 88.0336 14.8796 85.5668 11.95C83.0999 8.94321 79.631 7.55547 75.9307 7.09289Z" fill="#F2FFF7"/>
<path d="M75.8692 7.52356L75.8692 7.52363L75.8768 7.52457C79.5059 7.97826 82.856 9.33183 85.2304 12.2259L85.234 12.2302C87.6312 15.0772 89.1403 19.0626 89.1403 23.5145V54.3531V76.568C89.1403 80.9406 87.6323 84.9288 85.2304 87.8565C82.8588 90.7472 79.5111 92.0277 75.8679 92.559L75.865 92.5595C72.5446 93.0674 66.1083 95.0666 60.5393 96.9231C57.7466 97.8541 55.1592 98.7537 53.2702 99.4204C52.3256 99.7538 51.5554 100.029 51.0213 100.221C50.7542 100.317 50.5462 100.392 50.4048 100.443L50.3375 100.468L50.2701 100.443C50.1288 100.392 49.9207 100.317 49.6536 100.221C49.1195 100.029 48.3494 99.7538 47.4048 99.4204C45.5157 98.7537 42.9283 97.8541 40.1356 96.9231C34.5682 95.0671 28.1339 93.0684 24.8127 92.5599C21.163 91.9511 17.8127 90.669 15.441 87.8522C13.0438 85.0053 11.5347 81.0198 11.5347 76.568V54.3531V23.4374C11.5347 19.0616 13.0444 14.9994 15.441 12.1531C17.8158 9.3327 21.1683 7.97836 24.7982 7.52457L24.7982 7.52464L24.8057 7.52356C28.0815 7.05554 34.513 5.27149 40.0928 3.6166C42.8899 2.78701 45.4842 1.98646 47.3791 1.39334C48.3266 1.09677 49.0993 0.852012 49.6353 0.68137C49.9033 0.596047 50.1121 0.529251 50.254 0.483767L50.3375 0.456969L50.4209 0.483767C50.5628 0.529251 50.7716 0.596047 51.0396 0.68137C51.5756 0.852012 52.3484 1.09677 53.2959 1.39334C55.1907 1.98646 57.785 2.78701 60.5821 3.6166C66.162 5.27149 72.5934 7.05554 75.8692 7.52356Z" stroke="#F3075D" stroke-width="0.87009"/>
</g>
<path d="M100.06 64.6731H3.62314L0 19.1751L100.06 16.697V64.6731Z" fill="url(#paint0_linear_3974_2)"/>
<path d="M23.0451 77.1216H24.8618V78.1921H21.6582V72.4986H23.0451V77.1216ZM26.9103 72.4986V78.1921H25.5234V72.4986H26.9103ZM34.3632 72.4986V78.1921H32.9763V74.7776L31.7029 78.1921H30.5837L29.3022 74.7695V78.1921H27.9153V72.4986H29.5536L31.1514 76.4403L32.7329 72.4986H34.3632ZM36.7474 72.4986V78.1921H35.3605V72.4986H36.7474ZM41.8482 72.4986V73.6097H40.3397V78.1921H38.9528V73.6097H37.4443V72.4986H41.8482ZM43.9312 73.6097V74.7614H45.7885V75.832H43.9312V77.081H46.0318V78.1921H42.5443V72.4986H46.0318V73.6097H43.9312ZM49.0652 72.4986C49.6654 72.4986 50.1899 72.6175 50.6387 72.8554C51.0875 73.0933 51.4335 73.4286 51.6768 73.8611C51.9255 74.2883 52.0499 74.783 52.0499 75.3454C52.0499 75.9023 51.9255 76.397 51.6768 76.8296C51.4335 77.2621 51.0848 77.5974 50.6306 77.8353C50.1818 78.0732 49.66 78.1921 49.0652 78.1921H46.9322V72.4986H49.0652ZM48.976 76.9918C49.5005 76.9918 49.9087 76.8485 50.2007 76.5619C50.4927 76.2754 50.6387 75.8698 50.6387 75.3454C50.6387 74.8209 50.4927 74.4127 50.2007 74.1207C49.9087 73.8287 49.5005 73.6827 48.976 73.6827H48.3191V76.9918H48.976ZM58.8828 74.3315C58.8828 74.6614 58.8071 74.9642 58.6557 75.2399C58.5043 75.5103 58.2718 75.7293 57.9582 75.8969C57.6446 76.0645 57.2553 76.1483 56.7903 76.1483H55.9306V78.1921H54.5437V72.4986H56.7903C57.2445 72.4986 57.6284 72.577 57.942 72.7338C58.2556 72.8906 58.4908 73.1069 58.6476 73.3826C58.8044 73.6584 58.8828 73.9747 58.8828 74.3315ZM56.6849 75.0453C56.9498 75.0453 57.1472 74.9831 57.2769 74.8587C57.4067 74.7344 57.4716 74.5586 57.4716 74.3315C57.4716 74.1045 57.4067 73.9287 57.2769 73.8044C57.1472 73.68 56.9498 73.6178 56.6849 73.6178H55.9306V75.0453H56.6849ZM60.9917 73.6097V74.7614H62.849V75.832H60.9917V77.081H63.0923V78.1921H59.6048V72.4986H63.0923V73.6097H60.9917ZM66.8963 78.1921L65.7121 76.0429H65.3796V78.1921H63.9927V72.4986H66.3204C66.7692 72.4986 67.1504 72.577 67.464 72.7338C67.783 72.8906 68.0209 73.1069 68.1777 73.3826C68.3345 73.653 68.4129 73.9558 68.4129 74.291C68.4129 74.6695 68.3048 75.0074 68.0885 75.3048C67.8776 75.6022 67.564 75.8131 67.1477 75.9374L68.4616 78.1921H66.8963ZM65.3796 75.0615H66.2393C66.4935 75.0615 66.6827 74.9993 66.8071 74.875C66.9368 74.7506 67.0017 74.5749 67.0017 74.3478C67.0017 74.1315 66.9368 73.9612 66.8071 73.8368C66.6827 73.7124 66.4935 73.6503 66.2393 73.6503H65.3796V75.0615ZM70.6704 72.4986V78.1921H69.2835V72.4986H70.6704ZM74.3682 78.2489C73.8329 78.2489 73.3409 78.1246 72.8921 77.8758C72.4487 77.6271 72.0945 77.2811 71.8296 76.8377C71.5701 76.3889 71.4403 75.8861 71.4403 75.3291C71.4403 74.7722 71.5701 74.2721 71.8296 73.8287C72.0945 73.3853 72.4487 73.0393 72.8921 72.7906C73.3409 72.5418 73.8329 72.4175 74.3682 72.4175C74.9035 72.4175 75.3928 72.5418 75.8362 72.7906C76.285 73.0393 76.6364 73.3853 76.8905 73.8287C77.1501 74.2721 77.2798 74.7722 77.2798 75.3291C77.2798 75.8861 77.1501 76.3889 76.8905 76.8377C76.631 77.2811 76.2796 77.6271 75.8362 77.8758C75.3928 78.1246 74.9035 78.2489 74.3682 78.2489ZM74.3682 76.9837C74.8224 76.9837 75.1846 76.8323 75.455 76.5295C75.7307 76.2267 75.8686 75.8266 75.8686 75.3291C75.8686 74.8263 75.7307 74.4262 75.455 74.1288C75.1846 73.826 74.8224 73.6746 74.3682 73.6746C73.9086 73.6746 73.5409 73.8233 73.2652 74.1207C72.9948 74.4181 72.8596 74.8209 72.8596 75.3291C72.8596 75.832 72.9948 76.2348 73.2652 76.5376C73.5409 76.835 73.9086 76.9837 74.3682 76.9837ZM80.1845 72.4986C80.7847 72.4986 81.3091 72.6175 81.7579 72.8554C82.2067 73.0933 82.5527 73.4286 82.7961 73.8611C83.0448 74.2883 83.1691 74.783 83.1691 75.3454C83.1691 75.9023 83.0448 76.397 82.7961 76.8296C82.5527 77.2621 82.204 77.5974 81.7498 77.8353C81.301 78.0732 80.7792 78.1921 80.1845 78.1921H78.0514V72.4986H80.1845ZM80.0953 76.9918C80.6197 76.9918 81.028 76.8485 81.3199 76.5619C81.6119 76.2754 81.7579 75.8698 81.7579 75.3454C81.7579 74.8209 81.6119 74.4127 81.3199 74.1207C81.028 73.8287 80.6197 73.6827 80.0953 73.6827H79.4383V76.9918H80.0953ZM43.0311 87.2489C42.4958 87.2489 42.0038 87.1246 41.555 86.8758C41.1117 86.6271 40.7575 86.2811 40.4926 85.8377C40.233 85.3889 40.1033 84.8861 40.1033 84.3291C40.1033 83.7722 40.233 83.2721 40.4926 82.8287C40.7575 82.3853 41.1117 82.0393 41.555 81.7906C42.0038 81.5418 42.4958 81.4175 43.0311 81.4175C43.5664 81.4175 44.0558 81.5418 44.4991 81.7906C44.9479 82.0393 45.2994 82.3853 45.5535 82.8287C45.813 83.2721 45.9428 83.7722 45.9428 84.3291C45.9428 84.8861 45.813 85.3889 45.5535 85.8377C45.294 86.2811 44.9425 86.6271 44.4991 86.8758C44.0558 87.1246 43.5664 87.2489 43.0311 87.2489ZM43.0311 85.9837C43.4853 85.9837 43.8476 85.8323 44.1179 85.5295C44.3937 85.2267 44.5316 84.8266 44.5316 84.3291C44.5316 83.8263 44.3937 83.4262 44.1179 83.1288C43.8476 82.826 43.4853 82.6746 43.0311 82.6746C42.5715 82.6746 42.2039 82.8233 41.9281 83.1207C41.6578 83.4181 41.5226 83.8209 41.5226 84.3291C41.5226 84.832 41.6578 85.2348 41.9281 85.5376C42.2039 85.835 42.5715 85.9837 43.0311 85.9837ZM50.4209 81.4986V82.6097H48.1013V83.8101H49.8369V84.8888H48.1013V87.1921H46.7144V81.4986H50.4209ZM54.8563 81.4986V82.6097H52.5367V83.8101H54.2723V84.8888H52.5367V87.1921H51.1498V81.4986H54.8563ZM56.9721 82.6097V83.7614H58.8294V84.832H56.9721V86.081H59.0727V87.1921H55.5852V81.4986H59.0727V82.6097H56.9721ZM62.8767 87.1921L61.6925 85.0429H61.36V87.1921H59.9731V81.4986H62.3008C62.7496 81.4986 63.1308 81.577 63.4444 81.7338C63.7634 81.8906 64.0013 82.1069 64.1581 82.3826C64.3149 82.653 64.3933 82.9558 64.3933 83.291C64.3933 83.6695 64.2852 84.0074 64.0689 84.3048C63.858 84.6022 63.5444 84.8131 63.1281 84.9374L64.442 87.1921H62.8767ZM61.36 84.0615H62.2197C62.4739 84.0615 62.6631 83.9993 62.7875 83.875C62.9172 83.7506 62.9821 83.5749 62.9821 83.3478C62.9821 83.1315 62.9172 82.9612 62.7875 82.8368C62.6631 82.7124 62.4739 82.6503 62.2197 82.6503H61.36V84.0615Z" fill="#C00038"/>
<path d="M27.1841 43.7947V25.7508L29.6224 28.1031H23.4548V23.7141H32.864V43.7947H27.1841ZM42.9122 44.1963C41.5352 44.1963 40.1487 44.0242 38.7526 43.6799C37.3565 43.3357 36.1517 42.848 35.1381 42.2169L37.1748 37.9426C37.9972 38.4781 38.8865 38.8893 39.8427 39.1761C40.818 39.463 41.7838 39.6064 42.74 39.6064C43.6962 39.6064 44.4708 39.4248 45.0636 39.0614C45.6565 38.6789 45.9529 38.153 45.9529 37.4836C45.9529 37.082 45.8382 36.7282 45.6087 36.4222C45.3792 36.0971 44.9871 35.8581 44.4325 35.7051C43.8779 35.533 43.0843 35.4469 42.0516 35.4469H36.6011L37.6051 23.7141H50.3993V28.1031H39.6132L42.5105 25.6074L41.8507 33.5249L38.9534 31.0292H43.3998C45.3888 31.0292 46.9856 31.316 48.1905 31.8898C49.3953 32.4444 50.275 33.1998 50.8296 34.156C51.3842 35.0931 51.6615 36.1545 51.6615 37.3402C51.6615 38.5259 51.346 39.6447 50.7149 40.6965C50.1029 41.7292 49.1563 42.5707 47.8749 43.2209C46.5936 43.8712 44.9393 44.1963 42.9122 44.1963ZM55.9834 43.7947L69.6955 23.7141H73.8264L60.1142 43.7947H55.9834ZM57.8193 34.5863C56.8439 34.5863 55.9642 34.3664 55.1801 33.9265C54.396 33.4866 53.784 32.8555 53.3442 32.0332C52.9043 31.1917 52.6844 30.1877 52.6844 29.0211C52.6844 27.8545 52.9043 26.8601 53.3442 26.0377C53.784 25.2154 54.396 24.5843 55.1801 24.1444C55.9642 23.6854 56.8439 23.4559 57.8193 23.4559C58.8138 23.4559 59.6935 23.6854 60.4584 24.1444C61.2425 24.5843 61.8545 25.2154 62.2944 26.0377C62.7534 26.8601 62.9829 27.8545 62.9829 29.0211C62.9829 30.1686 62.7534 31.163 62.2944 32.0045C61.8545 32.846 61.2425 33.4866 60.4584 33.9265C59.6935 34.3664 58.8138 34.5863 57.8193 34.5863ZM57.848 31.8611C58.3261 31.8611 58.7181 31.6411 59.0241 31.2013C59.3492 30.7614 59.5118 30.0347 59.5118 29.0211C59.5118 28.0075 59.3492 27.2808 59.0241 26.8409C58.7181 26.4011 58.3261 26.1811 57.848 26.1811C57.3699 26.1811 56.9587 26.4011 56.6145 26.8409C56.2893 27.2808 56.1268 28.0075 56.1268 29.0211C56.1268 30.0347 56.2893 30.7614 56.6145 31.2013C56.9587 31.6411 57.3699 31.8611 57.848 31.8611ZM71.9904 44.0529C70.996 44.0529 70.1067 43.8329 69.3226 43.3931C68.5576 42.9532 67.9552 42.3221 67.5153 41.4998C67.0755 40.6583 66.8555 39.6543 66.8555 38.4877C66.8555 37.3211 67.0755 36.3266 67.5153 35.5043C67.9552 34.6819 68.5576 34.0508 69.3226 33.611C70.1067 33.152 70.996 32.9225 71.9904 32.9225C72.9849 32.9225 73.8646 33.152 74.6296 33.611C75.4137 34.0508 76.0257 34.6819 76.4655 35.5043C76.9245 36.3266 77.154 37.3211 77.154 38.4877C77.154 39.6543 76.9245 40.6583 76.4655 41.4998C76.0257 42.3221 75.4137 42.9532 74.6296 43.3931C73.8646 43.8329 72.9849 44.0529 71.9904 44.0529ZM71.9904 41.3276C72.4685 41.3276 72.8702 41.1077 73.1953 40.6678C73.5204 40.228 73.6829 39.5013 73.6829 38.4877C73.6829 37.4741 73.5204 36.7474 73.1953 36.3075C72.8702 35.8676 72.4685 35.6477 71.9904 35.6477C71.5315 35.6477 71.1298 35.8676 70.7856 36.3075C70.4605 36.7474 70.2979 37.4741 70.2979 38.4877C70.2979 39.5013 70.4605 40.228 70.7856 40.6678C71.1298 41.1077 71.5315 41.3276 71.9904 41.3276ZM38.1995 61.064C37.1222 61.064 36.1281 60.8909 35.2175 60.5446C34.3068 60.1983 33.5116 59.7109 32.8318 59.0824C32.1649 58.4411 31.6454 57.6972 31.2735 56.8507C30.9015 56.0041 30.7155 55.0743 30.7155 54.061C30.7155 53.0477 30.9015 52.1178 31.2735 51.2713C31.6454 50.4248 32.1649 49.6873 32.8318 49.0588C33.5116 48.4175 34.3068 47.9237 35.2175 47.5774C36.1281 47.2311 37.1222 47.058 38.1995 47.058C39.2898 47.058 40.2838 47.2311 41.1816 47.5774C42.0923 47.9237 42.8811 48.4175 43.548 49.0588C44.215 49.6873 44.7344 50.4248 45.1064 51.2713C45.4912 52.1178 45.6836 53.0477 45.6836 54.061C45.6836 55.0743 45.4912 56.0106 45.1064 56.8699C44.7344 57.7164 44.215 58.4539 43.548 59.0824C42.8811 59.7109 42.0923 60.1983 41.1816 60.5446C40.2838 60.8909 39.2898 61.064 38.1995 61.064ZM38.1995 57.9088C38.7126 57.9088 39.1872 57.819 39.6232 57.6395C40.0722 57.4599 40.4569 57.2034 40.7776 56.8699C41.1111 56.5236 41.3676 56.1132 41.5471 55.6386C41.7395 55.164 41.8357 54.6382 41.8357 54.061C41.8357 53.471 41.7395 52.9451 41.5471 52.4834C41.3676 52.0088 41.1111 51.6048 40.7776 51.2713C40.4569 50.925 40.0722 50.6621 39.6232 50.4825C39.1872 50.303 38.7126 50.2132 38.1995 50.2132C37.6865 50.2132 37.2055 50.303 36.7566 50.4825C36.3205 50.6621 35.9357 50.925 35.6023 51.2713C35.2816 51.6048 35.0251 52.0088 34.8327 52.4834C34.6531 52.9451 34.5634 53.471 34.5634 54.061C34.5634 54.6382 34.6531 55.164 34.8327 55.6386C35.0251 56.1132 35.2816 56.5236 35.6023 56.8699C35.9357 57.2034 36.3205 57.4599 36.7566 57.6395C37.2055 57.819 37.6865 57.9088 38.1995 57.9088ZM51.2187 53.2337H57.4329V56.1773H51.2187V53.2337ZM51.4881 60.7947H47.6787V47.3273H58.241V50.2709H51.4881V60.7947ZM63.5625 53.2337H69.7768V56.1773H63.5625V53.2337ZM63.8319 60.7947H60.0225V47.3273H70.5848V50.2709H63.8319V60.7947Z" fill="white"/>
<defs>
<filter id="filter0_d_3974_2" x="11.0996" y="0" width="85.4366" height="107.891" filterUnits="userSpaceOnUse" color-interpolation-filters="sRGB">
<feFlood flood-opacity="0" result="BackgroundImageFix"/>
<feColorMatrix in="SourceAlpha" type="matrix" values="0 0 0 0 0 0 0 0 0 0 0 0 0 0 0 0 0 0 127 0" result="hardAlpha"/>
<feOffset dx="3.48036" dy="3.48036"/>
<feGaussianBlur stdDeviation="1.74018"/>
<feComposite in2="hardAlpha" operator="out"/>
<feColorMatrix type="matrix" values="0 0 0 0 0 0 0 0 0 0 0 0 0 0 0 0 0 0 0.15 0"/>
<feBlend mode="normal" in2="BackgroundImageFix" result="effect1_dropShadow_3974_2"/>
<feBlend mode="normal" in="SourceGraphic" in2="effect1_dropShadow_3974_2" result="shape"/>
</filter>
<linearGradient id="paint0_linear_3974_2" x1="50.0479" y1="-3.31326" x2="50.0479" y2="74.7132" gradientUnits="userSpaceOnUse">
<stop offset="0.3615" stop-color="#FF0161" stop-opacity="0.97"/>
<stop offset="0.7718" stop-color="#C00038"/>
</linearGradient>
</defs>
</svg>
