<svg width="43" height="42" viewBox="0 0 43 42" fill="none" xmlns="http://www.w3.org/2000/svg">
<path d="M37.2891 36.75C37.2891 37.0111 37.1829 37.2615 36.9939 37.4461C36.8049 37.6307 36.5485 37.7344 36.2812 37.7344H6.71875C6.45146 37.7344 6.19512 37.6307 6.00612 37.4461C5.81712 37.2615 5.71094 37.0111 5.71094 36.75C5.71094 36.4889 5.81712 36.2385 6.00612 36.0539C6.19512 35.8693 6.45146 35.7656 6.71875 35.7656H36.2812C36.5485 35.7656 36.8049 35.8693 36.9939 36.0539C37.1829 36.2385 37.2891 36.4889 37.2891 36.75V36.75ZM37.2891 23.625V30.1875C37.2891 30.7967 37.0413 31.3809 36.6003 31.8116C36.1593 32.2424 35.5612 32.4844 34.9375 32.4844H8.0625C7.43883 32.4844 6.8407 32.2424 6.39969 31.8116C5.95869 31.3809 5.71094 30.7967 5.71094 30.1875V23.625C5.71094 23.0158 5.95869 22.4316 6.39969 22.0009C6.8407 21.5701 7.43883 21.3281 8.0625 21.3281H17.5695L14.8484 8.90859C14.682 8.19005 14.6863 7.44381 14.861 6.72715C15.0357 6.01048 15.3762 5.34242 15.8563 4.77422C16.3287 4.20534 16.9253 3.74664 17.6023 3.43159C18.2794 3.11653 19.0199 2.95307 19.7699 2.95313H23.2301C23.9801 2.95307 24.7206 3.11653 25.3977 3.43159C26.0747 3.74664 26.6713 4.20534 27.1438 4.77422C27.6238 5.34242 27.9643 6.01048 28.139 6.72715C28.3137 7.44381 28.318 8.19005 28.1516 8.90859L25.4305 21.3281H34.9375C35.5612 21.3281 36.1593 21.5701 36.6003 22.0009C37.0413 22.4316 37.2891 23.0158 37.2891 23.625ZM19.6355 21.3281H23.3645L26.1863 8.49844C26.2816 8.06756 26.2769 7.62131 26.1726 7.19243C26.0683 6.76355 25.867 6.36292 25.5835 6.01993C25.3 5.67694 24.9415 5.4003 24.5342 5.21029C24.127 5.02028 23.6814 4.92174 23.2301 4.92188H19.7699C19.3186 4.92174 18.873 5.02028 18.4658 5.21029C18.0585 5.4003 17.7 5.67694 17.4165 6.01993C17.133 6.36292 16.9317 6.76355 16.8274 7.19243C16.7231 7.62131 16.7184 8.06756 16.8137 8.49844L19.6355 21.3281ZM35.2734 23.625C35.2734 23.538 35.238 23.4545 35.175 23.393C35.112 23.3314 35.0266 23.2969 34.9375 23.2969H8.0625C7.9734 23.2969 7.88796 23.3314 7.82496 23.393C7.76196 23.4545 7.72656 23.538 7.72656 23.625V30.1875C7.72656 30.2745 7.76196 30.358 7.82496 30.4195C7.88796 30.4811 7.9734 30.5156 8.0625 30.5156H34.9375C35.0266 30.5156 35.112 30.4811 35.175 30.4195C35.238 30.358 35.2734 30.2745 35.2734 30.1875V23.625Z" fill="#157933"/>
</svg>
