<svg width="32" height="32" viewBox="0 0 32 32" fill="none" xmlns="http://www.w3.org/2000/svg">
<rect width="32" height="32" rx="16" fill="white"/>
<path d="M12.0175 9.34941L12.8564 9.08741C13.316 8.94351 13.8104 8.97815 14.2472 9.18487C14.684 9.39158 15.0334 9.75624 15.2303 10.2108L15.8787 11.7082C16.048 12.0992 16.0952 12.5354 16.0135 12.9556C15.9319 13.3758 15.7257 13.759 15.4237 14.0513L14.3496 15.0911C14.3182 15.1214 14.2983 15.1625 14.2935 15.2068C14.2619 15.5031 14.4553 16.0801 14.901 16.8825C15.2253 17.4655 15.5193 17.8753 15.7688 18.1045C15.9427 18.2649 16.0383 18.2993 16.0793 18.2873L17.5243 17.8283C17.919 17.703 18.3414 17.709 18.7326 17.8455C19.1238 17.9821 19.464 18.2423 19.7055 18.5897L20.6264 19.9153C20.9065 20.3185 21.0361 20.8134 20.9913 21.3083C20.9465 21.8032 20.7302 22.2644 20.3827 22.6063L19.7458 23.2333C19.4077 23.5657 18.9925 23.8015 18.5406 23.9178C18.0887 24.0341 17.6155 24.0269 17.167 23.8969C15.1872 23.3229 13.4122 21.5881 11.8219 18.7285C10.2295 15.8651 9.67095 13.3989 10.1857 11.329C10.3016 10.8635 10.531 10.4368 10.8518 10.09C11.1727 9.74331 11.5741 9.48824 12.0175 9.34941V9.34941ZM12.3288 10.4221C12.0628 10.5052 11.822 10.6581 11.6295 10.866C11.4369 11.0739 11.2992 11.3297 11.2295 11.6089C10.7968 13.3496 11.2921 15.5359 12.7558 18.1687C14.2173 20.7976 15.791 22.3353 17.4575 22.819C17.7264 22.8968 18.0102 22.901 18.2812 22.8311C18.5522 22.7613 18.8011 22.6198 19.0039 22.4204L19.6415 21.7934C19.7996 21.638 19.8979 21.4283 19.9182 21.2033C19.9386 20.9783 19.8796 20.7532 19.7522 20.57L18.832 19.245C18.7222 19.0869 18.5675 18.9685 18.3896 18.9064C18.2116 18.8443 18.0194 18.8416 17.8399 18.8987L16.3913 19.3592C15.5502 19.619 14.7867 18.9166 13.9672 17.4424C13.415 16.4496 13.1577 15.6808 13.2217 15.0829C13.2554 14.7723 13.3942 14.4857 13.6142 14.2722L14.6882 13.2324C14.8256 13.0996 14.9194 12.9254 14.9565 12.7344C14.9936 12.5433 14.9722 12.345 14.8953 12.1672L14.2468 10.6699C14.1573 10.4634 13.9986 10.2978 13.8002 10.2038C13.6018 10.1099 13.3773 10.0941 13.1685 10.1593L12.3288 10.4221V10.4221Z" fill="#197E37"/>
</svg>
