<svg width="56" height="56" viewBox="0 0 56 56" fill="none" xmlns="http://www.w3.org/2000/svg">
<path d="M27.8664 2.91669H31.4994C31.9635 2.91669 32.4086 3.10106 32.7368 3.42925C33.065 3.75744 33.2494 4.20256 33.2494 4.66669C33.2494 5.13082 33.065 5.57594 32.7368 5.90412C32.4086 6.23231 31.9635 6.41669 31.4994 6.41669H27.9994C22.4507 6.41669 18.4653 6.42135 15.432 6.82735C12.4477 7.22869 10.6487 7.99402 9.31868 9.32169C7.99102 10.6517 7.22802 12.4484 6.82668 15.4327C6.42068 18.466 6.41602 22.4514 6.41602 28C6.41602 33.5487 6.42068 37.534 6.82668 40.5674C7.22802 43.5517 7.99335 45.3507 9.32102 46.6807C10.651 48.0084 12.4477 48.7714 15.432 49.1727C18.4653 49.5787 22.4507 49.5834 27.9994 49.5834C33.548 49.5834 37.5334 49.5787 40.5667 49.1727C43.551 48.7714 45.35 48.006 46.68 46.6784C48.0077 45.3484 48.7707 43.5517 49.172 40.5674C49.578 37.534 49.5827 33.5487 49.5827 28V24.5C49.5827 24.0359 49.7671 23.5908 50.0952 23.2626C50.4234 22.9344 50.8686 22.75 51.3327 22.75C51.7968 22.75 52.2419 22.9344 52.5701 23.2626C52.8983 23.5908 53.0827 24.0359 53.0827 24.5V28.133C53.0827 33.5207 53.0827 37.7417 52.6394 41.0364C52.1867 44.4057 51.2394 47.0657 49.1534 49.154C47.065 51.2424 44.405 52.1874 41.0334 52.64C37.741 53.0834 33.52 53.0834 28.1324 53.0834H27.8664C22.4787 53.0834 18.2577 53.0834 14.963 52.64C11.5937 52.1874 8.93368 51.24 6.84535 49.154C4.75702 47.0657 3.81202 44.4057 3.35935 41.034C2.91602 37.7417 2.91602 33.5207 2.91602 28.133V27.867C2.91602 22.4794 2.91602 18.2584 3.35935 14.9637C3.81202 11.5944 4.75935 8.93435 6.84535 6.84602C8.93368 4.75769 11.5937 3.81269 14.9654 3.36002C18.2577 2.91669 22.4787 2.91669 27.8664 2.91669Z" fill="#283742"/>
<path d="M40.7858 26.9893C41.1422 27.2865 41.3659 27.7129 41.4079 28.175C41.4499 28.637 41.3067 29.0968 41.0098 29.4533L36.7422 34.575C35.9768 35.4943 35.2862 36.325 34.6422 36.9083C33.9375 37.5383 33.0555 38.1053 31.8888 38.1053C30.7222 38.1053 29.8378 37.5407 29.1355 36.906C28.4915 36.3227 27.8008 35.4943 27.0332 34.5727L26.3518 33.756C25.4862 32.7177 24.9542 32.0853 24.5155 31.691C24.4019 31.5796 24.274 31.4839 24.1352 31.4063L24.1188 31.3993L24.1095 31.3947L24.0862 31.4063C23.9464 31.4837 23.8177 31.5794 23.7035 31.691C23.2672 32.0877 22.7352 32.7177 21.8695 33.756L17.6765 38.7867C17.3757 39.1305 16.9523 39.3431 16.4969 39.379C16.0414 39.4149 15.59 39.2713 15.2391 38.9788C14.8881 38.6863 14.6654 38.2682 14.6186 37.8137C14.5718 37.3593 14.7045 36.9046 14.9885 36.5467L19.2562 31.425C20.0215 30.5057 20.7122 29.675 21.3562 29.0917C22.0608 28.4617 22.9428 27.8947 24.1095 27.8947C25.2762 27.8947 26.1605 28.4593 26.8628 29.094C27.5068 29.6773 28.1975 30.5057 28.9652 31.4273L29.6465 32.244C30.5122 33.2823 31.0442 33.9147 31.4828 34.309C31.6835 34.491 31.8048 34.5657 31.8632 34.5937L31.8865 34.6053L31.8982 34.6007L31.9145 34.5937C32.0534 34.5162 32.1813 34.4204 32.2948 34.309C32.7312 33.9123 33.2632 33.2823 34.1288 32.244L38.3218 27.2133C38.6189 26.857 39.0454 26.6332 39.5075 26.5912C39.9695 26.5492 40.4293 26.6924 40.7858 26.9893Z" fill="#283742"/>
<path fill-rule="evenodd" clip-rule="evenodd" d="M44 0C41.0826 0 38.2847 1.15893 36.2218 3.22183C34.1589 5.28473 33 8.08262 33 11C33 13.9174 34.1589 16.7153 36.2218 18.7782C38.2847 20.8411 41.0826 22 44 22C46.9174 22 49.7153 20.8411 51.7782 18.7782C53.8411 16.7153 55 13.9174 55 11C55 8.08262 53.8411 5.28473 51.7782 3.22183C49.7153 1.15893 46.9174 0 44 0ZM37.4 11C37.4 9.24957 38.0954 7.57084 39.3331 6.3331C40.5708 5.09536 42.2496 4.4 44 4.4C45.7504 4.4 47.4292 5.09536 48.6669 6.3331C49.9046 7.57084 50.6 9.24957 50.6 11C50.6 12.7504 49.9046 14.4292 48.6669 15.6669C47.4292 16.9046 45.7504 17.6 44 17.6C42.2496 17.6 40.5708 16.9046 39.3331 15.6669C38.0954 14.4292 37.4 12.7504 37.4 11Z" fill="#283742"/>
<circle cx="44" cy="11" r="9" fill="#C7EFC2"/>
<g clip-path="url(#clip0_866_975)">
<path d="M44.1631 9.74313C43.0408 9.74313 41.9806 9.74313 40.9243 9.74313C40.7495 9.74313 40.5204 9.79026 40.4194 9.69599C40.233 9.53888 40.035 9.29929 40.0155 9.07934C39.9806 8.71799 40.2447 8.5216 40.6097 8.5216C41.5728 8.51767 42.5398 8.51767 43.5029 8.51767C43.7049 8.51767 43.9107 8.51767 44.1359 8.51767C43.8874 7.73998 43.301 7.2883 42.5282 7.26473C41.9301 7.24509 41.3282 7.25687 40.7301 7.25687C40.3029 7.2608 40 7.09584 40 6.62844C40 6.15318 40.3262 6 40.7379 6C42.9204 6 45.099 6 47.2816 6.00393C47.6971 6.00393 48.0078 6.16496 47.9961 6.64808C47.9845 7.13511 47.6738 7.2608 47.2544 7.2608C46.5204 7.25687 45.7903 7.2608 45.0019 7.2608C45.1573 7.64572 45.2738 8.00707 45.4563 8.337C45.5146 8.44698 45.7359 8.50589 45.8874 8.51375C46.3884 8.53731 46.8893 8.5216 47.3903 8.52946C47.7825 8.53731 48.0039 8.73763 48 9.14611C47.9961 9.55852 47.7631 9.7392 47.3748 9.74705C47.2583 9.75098 47.1417 9.76276 47.0291 9.75098C46.1398 9.65279 45.4718 9.72742 45.0175 10.78C44.5553 11.8562 43.4563 12.2883 42.1087 12.2726C42.7961 12.9678 43.3864 13.5648 43.9767 14.1618C44.2214 14.4093 44.4738 14.6528 44.7107 14.9081C44.9709 15.187 45.0214 15.5012 44.7456 15.7918C44.4466 16.106 44.1243 16.055 43.833 15.7643C42.9981 14.9277 42.167 14.0833 41.3359 13.2427C40.967 12.8696 40.567 12.524 40.2447 12.1155C40.1049 11.9387 40.0078 11.5892 40.0854 11.4046C40.167 11.22 40.4816 11.0511 40.7107 11.0314C41.3049 10.9804 41.9068 11.0275 42.5049 11.0079C43.2777 10.9725 43.8447 10.5562 44.1631 9.74313Z" fill="#2A384B"/>
</g>
<defs>
<clipPath id="clip0_866_975">
<rect width="8" height="10" fill="white" transform="translate(40 6)"/>
</clipPath>
</defs>
</svg>
