<?xml version="1.0" encoding="utf-8"?>
<!-- Generator: Adobe Illustrator 23.1.0, SVG Export Plug-In . SVG Version: 6.00 Build 0)  -->
<svg version="1.1" id="Layer_1" xmlns="http://www.w3.org/2000/svg" xmlns:xlink="http://www.w3.org/1999/xlink" x="0px" y="0px"
	 viewBox="0 0 21 22" style="enable-background:new 0 0 21 22;" xml:space="preserve">
<style type="text/css">
	.st0{fill:#FFFFFF;stroke:#197E37;stroke-width:1.16;}
	.st1{clip-path:url(#SVGID_2_);}
	.st2{fill:#197E37;}
</style>
<path class="st0" d="M10.6,1.2L10.6,1.2c5.4,0,9.9,4.4,9.9,9.9v0c0,5.4-4.4,9.9-9.9,9.9l0,0c-5.4,0-9.9-4.4-9.9-9.9v0
	C0.7,5.6,5.1,1.2,10.6,1.2z"/>
<g>
	<defs>
		
			<rect id="SVGID_1_" x="5" y="5.4" transform="matrix(0.6838 -0.7297 0.7297 0.6838 -4.7183 11.4289)" width="11.6" height="11.6"/>
	</defs>
	<clipPath id="SVGID_2_">
		<use xlink:href="#SVGID_1_"  style="overflow:visible;"/>
	</clipPath>
	<g class="st1">
		<path class="st2" d="M11,6.4l-0.8,0.9l3.4,3.2l-7.2,0.2l0,1.2l7.2-0.2l-3.2,3.4l0.9,0.8l4.6-4.9L11,6.4z"/>
	</g>
</g>
</svg>
