<svg width="26" height="29" viewBox="0 0 26 29" fill="none" xmlns="http://www.w3.org/2000/svg">
<path d="M18.2812 15.4688L20.4416 19.6537L25.0625 20.3125L21.6719 23.3805L23.125 28.0625L18.2812 25.3578L13.4375 28.0625L14.8906 23.3805L11.5 20.3125L16.2469 19.6537L18.2812 15.4688Z" fill="#FFB800"/>
<path d="M20.2188 3.84375H17.3125V2.875C17.311 2.36161 17.1063 1.86969 16.7433 1.50667C16.3803 1.14365 15.8884 0.939033 15.375 0.9375H7.625C7.11161 0.939033 6.61969 1.14365 6.25667 1.50667C5.89365 1.86969 5.68903 2.36161 5.6875 2.875V3.84375H2.78125C2.26786 3.84528 1.77594 4.0499 1.41292 4.41292C1.0499 4.77594 0.845283 5.26786 0.84375 5.78125V26.125C0.845283 26.6384 1.0499 27.1303 1.41292 27.4933C1.77594 27.8563 2.26786 28.061 2.78125 28.0625H9.5625V26.125H2.78125V5.78125H5.6875V8.6875H17.3125V5.78125H20.2188V12.5625H22.1562V5.78125C22.1547 5.26786 21.9501 4.77594 21.5871 4.41292C21.2241 4.0499 20.7321 3.84528 20.2188 3.84375ZM15.375 6.75H7.625V2.875H15.375V6.75Z" fill="#157A33"/>
</svg>
