<svg width="71" height="68" viewBox="0 0 71 68" fill="none" xmlns="http://www.w3.org/2000/svg">
<path d="M5.0284 57.8097C5.0284 57.3694 5.0284 57.055 5.0284 56.7405C5.0284 45.5449 5.0284 34.3493 5.0284 23.1537C5.0284 20.4282 6.66711 18.3107 9.23022 17.7446C9.75545 17.6188 10.3227 17.6188 10.8689 17.6188C16.9826 17.6188 23.0752 17.6188 29.1889 17.6188C29.504 17.6188 29.7981 17.6188 30.1763 17.6188C30.1763 16.7383 30.1763 15.9626 30.1763 15.1868C30.1763 12.7968 30.1763 10.4277 30.1763 8.0376C30.1763 3.8445 33.1386 0.846436 37.3404 0.846436C45.9962 0.846436 54.6519 0.846436 63.2866 0.846436C67.4464 0.846436 70.4297 3.82354 70.4508 7.95374C70.4718 13.3419 70.4508 18.73 70.4508 24.1182C70.4508 27.9758 69.0431 30.0933 65.4506 31.5399C65.4506 40.2197 65.4506 48.9413 65.4506 57.7678C66.354 57.7678 67.2574 57.8097 68.1608 57.7678C69.9675 57.642 70.6398 58.6483 70.3877 60.3675C69.7364 64.8541 66.333 67.8103 61.711 67.8103C53.3283 67.8312 44.9247 67.8103 36.5421 67.8103C27.298 67.8103 18.033 67.8103 8.78903 67.8103C4.77629 67.8522 1.60391 65.6718 0.427405 62.0867C0.196305 61.3529 0.0492411 60.5562 0.00722284 59.7805C-0.0768136 58.4806 0.574469 57.8307 1.85602 57.8097C2.88547 57.7888 3.91492 57.8097 5.0284 57.8097ZM32.8655 57.7468C42.6557 57.7468 52.3409 57.7468 62.0261 57.7468C62.0261 49.0881 62.0261 40.5132 62.0261 31.8964C61.879 31.8754 61.774 31.8335 61.6689 31.8335C57.8243 31.8335 53.9586 31.8125 50.1139 31.8335C49.8408 31.8335 49.5257 32.0012 49.2946 32.1899C48.1811 33.0704 47.1096 33.9929 46.0172 34.8944C43.7692 36.7604 41.5212 38.6473 39.2522 40.5132C38.2228 41.3518 36.9622 41.1421 36.5 40.031C36.374 39.6955 36.332 39.3181 36.332 38.9617C36.311 36.5926 36.332 34.2026 36.332 31.8335C36.2059 31.7915 36.1219 31.7706 36.0588 31.7496C32.1722 30.8271 30.1973 28.3532 30.1973 24.3488C30.1973 23.2376 30.1973 22.1055 30.1973 20.9314C29.8401 20.9314 29.546 20.9314 29.2729 20.9314C23.1593 20.9314 17.0666 20.9314 10.953 20.9314C9.08316 20.9314 8.36885 21.6233 8.36885 23.4682C8.36885 34.6009 8.36885 45.7546 8.36885 56.8872C8.36885 57.1598 8.38986 57.4324 8.41086 57.7259C10.1126 57.7259 11.7303 57.7259 13.411 57.7259C13.411 56.0067 13.39 54.3294 13.411 52.6522C13.432 49.3397 15.659 47.0754 18.9784 47.0335C21.7516 47.0125 24.5248 47.0125 27.3191 47.0335C30.6595 47.0544 32.8655 49.3187 32.8865 52.6312C32.8865 54.3504 32.8655 56.0067 32.8655 57.7468ZM39.6934 35.8169C42.4666 33.5107 45.0718 31.3513 47.6559 29.1918C48.2231 28.7096 48.8324 28.4999 49.5887 28.4999C54.1477 28.5209 58.7067 28.5209 63.2656 28.4999C65.6187 28.4999 67.1103 27.0324 67.1313 24.7052C67.1523 19.1284 67.1523 13.5725 67.1313 7.99567C67.1313 5.71043 65.6187 4.22188 63.3287 4.22188C54.6729 4.20092 46.0382 4.22188 37.3824 4.22188C35.0714 4.22188 33.5798 5.71043 33.5588 7.99567C33.5378 13.5935 33.5378 19.1913 33.5588 24.789C33.5588 27.0324 35.0714 28.4999 37.3194 28.5209C39.2522 28.5419 39.6934 28.9822 39.6934 30.9529C39.6934 32.4834 39.6934 34.0348 39.6934 35.8169ZM66.7321 61.2061C45.702 61.2061 24.7349 61.2061 3.68382 61.2061C3.76785 61.4158 3.80987 61.5626 3.8729 61.7093C4.92335 63.701 6.62509 64.4977 8.83105 64.4977C26.4157 64.4768 44.0003 64.4977 61.6059 64.4768C61.9631 64.4768 62.3412 64.4768 62.6984 64.4348C64.5262 64.2671 66.2069 62.9043 66.7321 61.2061ZM29.546 57.7678C29.546 56.1325 29.546 54.5391 29.546 52.9667C29.546 52.6732 29.546 52.3797 29.504 52.1071C29.3149 51.1217 28.6216 50.4718 27.5922 50.4718C24.6299 50.4508 21.6676 50.4508 18.7053 50.4718C17.6129 50.4928 16.8565 51.2685 16.8145 52.3797C16.7725 53.1973 16.7935 53.994 16.7935 54.8117C16.7935 55.797 16.7935 56.7824 16.7935 57.7888C21.0794 57.7678 25.2602 57.7678 29.546 57.7678Z" fill="black"/>
<path d="M32.8653 57.7469C32.8653 56.0277 32.8653 54.3505 32.8653 52.6732C32.8443 49.3607 30.6383 47.0964 27.2979 47.0754C24.5247 47.0545 21.7305 47.0545 18.9573 47.0754C15.6378 47.1174 13.4109 49.3607 13.3898 52.6942C13.3688 54.3714 13.3898 56.0277 13.3898 57.7679C11.7091 57.7679 10.0914 57.7679 8.38967 57.7679C8.36867 57.4953 8.34766 57.2228 8.34766 56.9292C8.34766 45.7966 8.34766 34.6429 8.34766 23.5102C8.34766 21.6653 9.06197 20.9734 10.9318 20.9734C17.0454 20.9734 23.1381 20.9734 29.2517 20.9734C29.5248 20.9734 29.819 20.9734 30.1761 20.9734C30.1761 22.1684 30.1761 23.2796 30.1761 24.3908C30.1761 28.3742 32.151 30.8691 36.0377 31.7916C36.1007 31.8126 36.1847 31.8335 36.3108 31.8755C36.3108 34.2446 36.3108 36.6137 36.3108 39.0037C36.3108 39.3601 36.3318 39.7585 36.4788 40.073C36.941 41.1632 38.2016 41.3938 39.231 40.5552C41.5 38.6892 43.748 36.8023 45.996 34.9364C47.0884 34.0349 48.1599 33.1124 49.2734 32.2319C49.5045 32.0432 49.8196 31.8755 50.0927 31.8755C53.9374 31.8545 57.8031 31.8545 61.6477 31.8755C61.7528 31.8755 61.8578 31.9174 62.0049 31.9383C62.0049 40.5342 62.0049 49.1301 62.0049 57.7888C52.3407 57.7469 42.6555 57.7469 32.8653 57.7469ZM30.1971 38.1022C30.2181 34.1817 27.0668 31.0159 23.1381 31.0159C19.2724 31.0159 16.1 34.2026 16.1 38.0603C16.1 41.9179 19.2724 45.0837 23.1591 45.0837C26.9827 45.0837 30.1761 41.9179 30.1971 38.1022Z" fill="#4BC26F"/>
<path d="M39.6934 35.8167C39.6934 34.0556 39.6934 32.4832 39.6934 30.9317C39.6934 28.9819 39.2522 28.5207 37.3194 28.4997C35.0714 28.4787 33.5587 27.0112 33.5587 24.7678C33.5377 19.1701 33.5377 13.5723 33.5587 7.97448C33.5587 5.68924 35.0714 4.20068 37.3824 4.20068C46.0381 4.20068 54.6729 4.20068 63.3286 4.20068C65.6396 4.20068 67.1313 5.68924 67.1313 7.97448C67.1523 13.5513 67.1523 19.1072 67.1313 24.684C67.1313 27.0321 65.6186 28.4787 63.2656 28.4787C58.7066 28.4787 54.1476 28.4997 49.5887 28.4787C48.8323 28.4787 48.2231 28.6884 47.6558 29.1706C45.0717 31.351 42.4666 33.5105 39.6934 35.8167ZM50.324 13.4255C53.2863 13.4255 56.2486 13.4255 59.2108 13.4255C60.4714 13.4255 61.2277 12.7965 61.2067 11.7273C61.2067 10.7 60.4924 10.092 59.2529 10.092C57.257 10.092 55.2611 10.092 53.2863 10.092C49.3366 10.092 45.3658 10.092 41.4161 10.092C40.3867 10.092 39.7774 10.4694 39.5253 11.2032C39.1261 12.3563 39.9665 13.4255 41.2901 13.4255C44.3154 13.4255 47.3197 13.4255 50.324 13.4255ZM45.744 22.6503C47.1516 22.6503 48.5802 22.6503 49.9878 22.6503C51.2484 22.6503 52.0257 21.9585 52.0047 20.9521C51.9837 19.9458 51.2274 19.2958 50.0299 19.2958C47.1516 19.2749 44.2524 19.2749 41.3741 19.2958C40.1556 19.2958 39.4413 19.9667 39.4413 20.9941C39.4413 22.0214 40.1766 22.6503 41.3951 22.6503C42.8447 22.6503 44.2944 22.6503 45.744 22.6503Z" fill="white"/>
<path d="M66.7324 61.2061C66.2282 62.9043 64.5264 64.267 62.7196 64.4557C62.3625 64.4976 61.9843 64.4976 61.6272 64.4976C44.0426 64.4976 26.4579 64.4976 8.85231 64.5186C6.62534 64.5186 4.94462 63.7009 3.89416 61.7302C3.83113 61.6044 3.78911 61.4367 3.70508 61.227C24.7142 61.2061 45.7023 61.2061 66.7324 61.2061Z" fill="white"/>
<path d="M29.5459 57.7677C25.281 57.7677 21.1002 57.7677 16.7933 57.7677C16.7933 56.7614 16.7933 55.776 16.7933 54.7906C16.7933 53.973 16.7723 53.1763 16.8143 52.3586C16.8564 51.2475 17.6127 50.4717 18.7052 50.4508C21.6674 50.4298 24.6297 50.4298 27.592 50.4508C28.6215 50.4508 29.3148 51.1007 29.5038 52.0861C29.5459 52.3586 29.5459 52.6522 29.5459 52.9457C29.5459 54.5391 29.5459 56.1324 29.5459 57.7677Z" fill="#4BC26F"/>
<path d="M30.1977 38.1022C30.1767 41.9179 27.0043 45.0837 23.1596 45.0837C19.273 45.0837 16.1006 41.9179 16.1006 38.0603C16.1006 34.2026 19.273 31.0159 23.1386 31.0159C27.0673 31.0159 30.1977 34.1817 30.1977 38.1022ZM23.1807 41.7083C25.1975 41.7083 26.8362 40.073 26.8572 38.0812C26.8572 36.0476 25.1975 34.3704 23.1807 34.3704C21.1428 34.3704 19.4831 36.0057 19.4831 38.0603C19.4831 40.0939 21.1008 41.7083 23.1807 41.7083Z" fill="black"/>
<path d="M50.3239 13.4258C47.3196 13.4258 44.2942 13.4258 41.2899 13.4258C39.9454 13.4258 39.126 12.3566 39.5252 11.2035C39.7773 10.4697 40.3866 10.1133 41.416 10.0923C45.3657 10.0923 49.3364 10.0923 53.2861 10.0923C55.282 10.0923 57.2779 10.0923 59.2527 10.0923C60.5133 10.0923 61.2066 10.7003 61.2066 11.7276C61.2276 12.7759 60.4713 13.4258 59.2107 13.4258C56.2484 13.4258 53.2861 13.4258 50.3239 13.4258Z" fill="black"/>
<path d="M45.7436 22.6507C44.294 22.6507 42.8654 22.6507 41.4158 22.6507C40.1972 22.6298 39.4619 22.0008 39.4619 20.9944C39.4619 19.9671 40.1762 19.2962 41.3948 19.2962C44.273 19.2753 47.1723 19.2753 50.0505 19.2962C51.248 19.2962 52.0254 19.9671 52.0254 20.9525C52.0464 21.9798 51.248 22.6507 50.0085 22.6507C48.5589 22.6507 47.1512 22.6507 45.7436 22.6507Z" fill="black"/>
<path d="M23.18 41.708C21.1001 41.708 19.4824 40.0937 19.4824 38.0391C19.4824 35.9844 21.1211 34.3491 23.18 34.3491C25.1969 34.3491 26.8776 36.0473 26.8566 38.06C26.8356 40.0727 25.1759 41.708 23.18 41.708Z" fill="#4BC26F"/>
</svg>
