<svg width="60" height="60" viewBox="0 0 60 60" fill="none" xmlns="http://www.w3.org/2000/svg">
<g clip-path="url(#clip0_438_515)">
<rect x="1.57422" y="34.7337" width="7.30318" height="20.0837" fill="#C7EFC2"/>
<path d="M18.9229 24.1555V33.8478L36.4614 44.4632L38.7691 47.694L53.5383 38.9247V24.1555L36.4614 6.61694L18.9229 24.1555Z" fill="#C7EFC2" stroke="#283742"/>
<g clip-path="url(#clip1_438_515)">
<path d="M38.3878 26.9616C36.3387 26.9616 34.403 26.9616 32.4744 26.9616C32.1553 26.9616 31.737 27.0476 31.5526 26.8755C31.2123 26.5887 30.8507 26.1512 30.8152 25.7496C30.7514 25.0899 31.2336 24.7313 31.9001 24.7313C33.6585 24.7241 35.424 24.7241 37.1825 24.7241C37.5512 24.7241 37.927 24.7241 38.3382 24.7241C37.8844 23.3042 36.8138 22.4795 35.4028 22.4365C34.3108 22.4007 33.2118 22.4222 32.1199 22.4222C31.3399 22.4293 30.7869 22.1282 30.7869 21.2748C30.7869 20.4071 31.3825 20.1274 32.1341 20.1274C36.1189 20.1274 40.0966 20.1274 44.0815 20.1346C44.8402 20.1346 45.4074 20.4286 45.3861 21.3106C45.3649 22.1999 44.7976 22.4293 44.0319 22.4293C42.6918 22.4222 41.3587 22.4293 39.9194 22.4293C40.203 23.1321 40.4157 23.7919 40.749 24.3943C40.8553 24.5951 41.2595 24.7026 41.536 24.717C42.4507 24.76 43.3653 24.7313 44.28 24.7457C44.9962 24.76 45.4003 25.1257 45.3932 25.8715C45.3861 26.6245 44.9607 26.9544 44.2517 26.9687C44.0389 26.9759 43.8262 26.9974 43.6206 26.9759C41.9969 26.7966 40.7773 26.9329 39.9477 28.8548C39.104 30.8197 37.0974 31.6085 34.637 31.5798C35.892 32.8491 36.9697 33.9392 38.0475 35.0292C38.4942 35.481 38.9551 35.9256 39.3876 36.3917C39.8627 36.9009 39.9548 37.4746 39.4514 38.0052C38.9054 38.5789 38.3169 38.4857 37.7852 37.955C36.2607 36.4276 34.7433 34.8858 33.226 33.3511C32.5524 32.6699 31.8221 32.0388 31.2336 31.293C30.9783 30.9703 30.801 30.332 30.9429 29.995C31.0918 29.6579 31.6661 29.3496 32.0844 29.3137C33.1693 29.2205 34.2683 29.3066 35.3602 29.2707C36.7712 29.2062 37.8064 28.446 38.3878 26.9616Z" fill="#283742"/>
</g>
<path d="M59.9999 44.8238C59.3566 46.8165 57.9445 47.9776 56.093 48.9033C50.2719 51.8061 44.4664 54.7559 38.708 57.7841C33.389 60.577 28.117 60.8438 22.7038 58.0352C20.1776 56.7329 17.5416 55.6502 14.9527 54.4734C13.4621 53.7988 11.8931 53.6105 10.0887 53.9086C10.0573 54.191 10.0259 54.4891 10.0102 54.7873C9.96317 55.7757 9.50815 56.3092 8.48827 56.2935C6.1504 56.2778 3.79684 56.2935 1.45896 56.2935C0.51754 56.2935 -0.000244141 55.8071 -0.000244141 54.85C-0.000244141 47.8992 -0.000244141 40.9483 -0.000244141 33.9974C-0.000244141 32.9619 0.564611 32.5382 1.55311 32.5539C3.73408 32.5696 5.93073 32.5539 8.1117 32.5539C9.68075 32.5539 9.88472 32.7736 10.0259 34.374C10.0416 34.5152 10.0887 34.6721 10.1201 34.829C12.5678 34.578 14.9527 34.3426 17.4318 34.0916C17.4318 31.7694 17.4318 29.3688 17.4318 26.8897C17.118 26.9054 16.8356 26.9368 16.5375 26.9524C14.9057 26.9995 13.6347 26.3405 12.8973 24.8656C12.1755 23.4378 12.3167 22.057 13.4621 20.8646C16.6787 17.5696 19.8952 14.2746 23.1431 10.9953C25.9203 8.18671 28.6818 5.37812 31.5375 2.66368C32.6201 1.6438 33.9381 0.874971 35.1463 -0.00369263C35.8524 -0.00369263 36.5584 -0.00369263 37.2488 -0.00369263C38.1589 0.561162 39.2258 0.969113 39.9633 1.70656C45.7687 7.41788 51.5114 13.1763 57.2384 18.9503C58.2426 19.9702 59.0742 21.1627 59.9842 22.261C59.9842 22.8886 59.9842 23.5162 59.9842 24.1439C59.0428 26.2778 57.4895 27.3133 55.0888 26.874C55.0888 30.8751 55.0888 34.7663 55.0888 38.7203C57.6621 38.9399 59.1369 40.4148 59.9842 42.6586C59.9999 43.4117 59.9999 44.1178 59.9999 44.8238ZM38.7551 46.3615C39.0061 46.2987 39.116 46.283 39.2258 46.236C43.4308 44.1021 47.6516 41.9682 51.8252 39.7715C52.1704 39.5832 52.4685 38.9399 52.4842 38.5006C52.5313 34.2485 52.5313 29.9807 52.4842 25.7286C52.4842 25.1951 52.1861 24.5204 51.7938 24.1282C46.9298 19.2014 42.0344 14.3217 37.1547 9.44194C36.8879 9.1752 36.5898 8.90847 36.3074 8.65742C36.1505 8.75156 36.0407 8.79863 35.9622 8.87708C30.8 14.0392 25.6222 19.1857 20.4758 24.3792C20.1619 24.693 20.005 25.2736 20.005 25.7286C19.958 27.9566 19.9894 30.1847 19.9894 32.4127C19.9894 34.4525 20.0207 34.3897 21.9036 35.2527C26.344 37.2767 30.7216 39.4106 35.162 41.419C37.2802 42.3918 38.6296 43.851 38.7551 46.3615ZM10.073 51.3667C12.709 51.0529 14.9998 51.6492 17.2278 52.7318C19.8638 54.0027 22.5312 55.1795 25.2143 56.3877C28.7132 57.9567 32.2436 58.1293 35.7268 56.3877C41.7363 53.3908 47.6986 50.3469 53.6924 47.3029C54.5553 46.8636 55.4497 46.4399 56.2813 45.9379C57.4581 45.2318 57.8189 43.8353 57.2227 42.6742C56.6265 41.4975 55.3085 41.0111 54.0376 41.5132C53.7081 41.6387 53.4099 41.8113 53.0961 41.9682C48.0909 44.5257 43.0072 46.9264 38.1275 49.7036C35.1149 51.4138 32.4789 51.6021 29.4821 49.8448C27.1285 48.4797 24.571 47.4755 22.0919 46.3144C21.323 45.9535 20.8523 45.4358 21.276 44.5571C21.6996 43.7098 22.39 43.6941 23.1588 44.0707C23.4099 44.1962 23.6609 44.2904 23.8963 44.4159C26.7519 45.7653 29.6076 47.1303 32.4789 48.4483C33.9381 49.123 35.366 48.668 35.9936 47.3971C36.6526 46.0634 36.1191 44.6356 34.6128 43.9138C30.6431 42.0153 26.595 40.2422 22.6724 38.2182C18.5458 36.1 14.3722 36.6648 10.0887 37.4493C10.073 42.0623 10.073 46.6282 10.073 51.3667ZM36.1662 2.3028C35.3973 2.80489 34.6128 3.16577 34.0323 3.73063C27.9601 9.75575 21.9193 15.8123 15.8785 21.8688C15.6588 22.0884 15.3136 22.3238 15.2822 22.5591C15.2352 23.0455 15.2195 23.7359 15.5019 24.0183C15.7843 24.3008 16.4747 24.2851 16.9454 24.1909C17.2749 24.1282 17.5416 23.7045 17.8084 23.4378C23.4099 17.8677 28.9957 12.2819 34.5814 6.71181C36.1191 5.17415 36.3858 5.17415 37.8921 6.68043C43.4936 12.2819 49.1108 17.8834 54.7122 23.5006C54.9633 23.7516 55.1987 24.1596 55.4811 24.1909C56.0302 24.2694 56.752 24.3165 57.1286 24.034C57.3796 23.8457 57.207 23.0298 57.1286 22.5121C57.0972 22.3238 56.8461 22.1512 56.6892 21.9786C50.5229 15.7966 44.388 9.63022 38.2059 3.49527C37.7195 3.00887 36.9821 2.77351 36.1662 2.3028ZM2.57298 35.0958C2.57298 41.3719 2.57298 47.5226 2.57298 53.7203C4.22048 53.7203 5.78952 53.7203 7.38994 53.7203C7.38994 47.4755 7.38994 41.2935 7.38994 35.0958C5.77383 35.0958 4.22048 35.0958 2.57298 35.0958Z" fill="#283742"/>
<path d="M59.9994 42.7059C59.1521 40.4622 57.6615 38.9873 55.104 38.7676C55.104 34.8136 55.104 30.9067 55.104 26.9213C57.5046 27.3763 59.058 26.3251 59.9994 24.1912C59.9994 30.3575 59.9994 36.5396 59.9994 42.7059Z" fill="white"/>
<path d="M36.167 -5.00009C36.9672 -4.54507 37.7046 -4.29402 38.2067 -3.80762C44.3888 2.32733 50.5237 8.49367 56.6743 14.66C56.8469 14.8326 57.098 14.9895 57.1137 15.1935C57.1764 15.7113 57.3647 16.5272 57.1137 16.7155C56.7371 16.9979 56.0154 16.9508 55.4662 16.8724C55.1838 16.8253 54.9484 16.433 54.6974 16.182C49.0959 10.5805 43.4944 4.97902 37.8929 -0.622464C36.3866 -2.12874 36.1199 -2.11305 34.5822 -0.591083C28.9965 4.97902 23.4264 10.5648 17.8406 16.1349C17.5581 16.4173 17.3071 16.8253 16.9776 16.888C16.5069 16.9822 15.8165 16.9979 15.5341 16.7155C15.2516 16.433 15.2673 15.7583 15.3144 15.2562C15.3301 15.0052 15.691 14.7855 15.9106 14.5659C21.9515 8.50936 27.9923 2.45286 34.0645 -3.57226C34.6136 -4.13712 35.3981 -4.48231 36.167 -5.00009Z" fill="white"/>
</g>
<defs>
<clipPath id="clip0_438_515">
<rect width="60" height="60" fill="white"/>
</clipPath>
<clipPath id="clip1_438_515">
<rect width="14.6064" height="18.2579" fill="white" transform="translate(30.7869 20.1274)"/>
</clipPath>
</defs>
</svg>
