<svg width="60" height="60" viewBox="0 0 60 60" fill="none" xmlns="http://www.w3.org/2000/svg">
<g clip-path="url(#clip0_438_509)">
<path d="M30.29 0C30.6071 0.269531 30.9694 0.492188 31.2411 0.796875C35.1359 5.01563 39.0194 9.24609 42.9256 13.4766C43.3445 13.9219 43.537 14.4141 43.537 15.0469C43.5256 18.4687 43.5256 21.8789 43.5256 25.3008C43.5256 25.5117 43.5256 25.7227 43.5256 25.8984C44.6239 26.2969 45.6995 26.5898 46.6958 27.0586C52.0512 29.5781 55.4592 33.8203 56.4555 39.8086C57.5651 46.4883 55.4026 52.0781 50.2963 56.3555C47.7601 58.4883 44.7937 59.625 41.5329 59.918C41.4424 59.9297 41.3518 59.9648 41.2612 60C40.4347 60 39.5969 60 38.7703 60C38.6684 59.9648 38.5665 59.918 38.4533 59.8945C33.1998 59.2734 29.1352 56.6602 26.2027 52.125C25.9537 51.75 25.7046 51.6328 25.2856 51.6328C20.4964 51.6445 15.7071 51.6445 10.9065 51.6328C10.3064 51.6328 9.69504 51.5977 9.10629 51.457C6.02667 50.7539 4.01132 48.1055 4 44.7773C4.02264 36.0938 4.02264 27.375 4.02264 18.668C4.02264 14.7188 4.01132 10.7812 4.02264 6.83203C4.03397 4.48828 4.91709 2.54297 6.79657 1.24219C7.65706 0.667969 8.72134 0.410156 9.68372 0C16.5563 0 23.4288 0 30.29 0ZM26.8708 32.4023C26.5311 32.4023 26.316 32.4023 26.0895 32.4023C22.1834 32.4023 18.2772 32.4023 14.3711 32.4023C14.088 32.4023 13.805 32.3906 13.5219 32.3438C13.0011 32.2383 12.6388 31.7812 12.6048 31.2305C12.5709 30.6445 12.8879 30.1406 13.4314 29.9883C13.7031 29.918 13.9861 29.8945 14.2692 29.8945C19.0471 29.8945 23.8138 29.8945 28.5917 29.8711C28.9087 29.8711 29.2937 29.7305 29.5428 29.5195C31.8978 27.5859 34.5359 26.3086 37.5023 25.8398C38.6684 25.6523 39.8573 25.6289 41.0801 25.5352C41.0801 22.3828 41.0801 19.1719 41.0801 15.8789C40.8423 15.8789 40.6385 15.8789 40.446 15.8789C38.4873 15.8789 36.5172 15.8906 34.5585 15.8672C33.9811 15.8555 33.381 15.832 32.8262 15.6797C30.3014 14.9766 28.8182 12.9258 28.8068 10.1484C28.7955 7.82812 28.8068 5.49609 28.8068 3.17578C28.8068 2.96484 28.8068 2.75391 28.8068 2.51953C28.5917 2.50781 28.4445 2.48438 28.2973 2.48438C22.4438 2.48438 16.6016 2.48438 10.748 2.48438C10.3404 2.48438 9.91016 2.53125 9.51389 2.63672C7.53251 3.21094 6.43426 4.82813 6.43426 7.19531C6.43426 19.6406 6.43426 32.0742 6.43426 44.5195C6.43426 45 6.46823 45.5039 6.58145 45.9727C7.09095 48.0117 8.61944 49.1484 10.8386 49.1602C15.2542 49.1719 19.6699 49.1602 24.0855 49.1602C24.2553 49.1602 24.4365 49.1367 24.6629 49.1133C23.4175 45.7148 23.1911 42.3047 23.9496 38.7891C23.6666 38.7891 23.4628 38.7891 23.259 38.7891C20.236 38.7891 17.2243 38.7891 14.2013 38.7891C13.9409 38.7891 13.6691 38.7656 13.42 38.6953C12.8766 38.543 12.5595 38.0391 12.5935 37.4531C12.6275 36.8789 13.0124 36.4336 13.5785 36.3398C13.8163 36.3047 14.0654 36.293 14.3145 36.293C17.6206 36.293 20.9153 36.2812 24.2214 36.3047C24.6176 36.3047 24.7988 36.1641 24.98 35.8008C25.4442 34.8633 25.9763 33.9609 26.4745 33.0586C26.5877 32.8594 26.7009 32.6836 26.8708 32.4023ZM40.163 57.5156C47.9979 57.4687 54.3383 50.8828 54.3157 42.8086C54.293 34.6758 47.8847 28.0781 40.0837 28.125C32.2488 28.1836 25.8857 34.8164 25.9537 42.8555C26.0216 50.9883 32.396 57.5625 40.163 57.5156ZM31.2071 4.38281C31.2071 4.71094 31.2071 4.83984 31.2071 4.98047C31.2071 6.77344 31.1845 8.56641 31.2185 10.3594C31.2524 12.1172 32.4979 13.3359 34.1962 13.3594C35.7247 13.3828 37.2532 13.3594 38.7703 13.3594C38.9515 13.3594 39.1326 13.3477 39.427 13.3359C36.6644 10.3359 33.9924 7.42969 31.2071 4.38281Z" fill="#283742" stroke="#283742" stroke-width="0.5"/>
<path d="M26.8711 32.4024C26.7012 32.6836 26.588 32.8594 26.4974 33.0352C25.9879 33.9492 25.4671 34.8516 25.0029 35.7774C24.8218 36.1407 24.6406 36.2813 24.2443 36.2813C20.9383 36.2696 17.6435 36.2696 14.3374 36.2696C14.0884 36.2696 13.8506 36.2696 13.6015 36.3164C13.0467 36.4102 12.6504 36.8555 12.6165 37.4297C12.5825 38.0157 12.8882 38.5196 13.443 38.6719C13.6921 38.7422 13.9638 38.7657 14.2242 38.7657C17.2472 38.7774 20.2589 38.7657 23.2819 38.7657C23.4857 38.7657 23.6895 38.7657 23.9726 38.7657C23.214 42.2813 23.4405 45.6914 24.6859 49.0899C24.4594 49.1133 24.2783 49.1367 24.1085 49.1367C19.6928 49.1367 15.2772 49.1485 10.8615 49.1367C8.6424 49.125 7.11391 47.9883 6.60441 45.9492C6.49119 45.4805 6.45722 44.9883 6.45722 44.4961C6.4459 32.0508 6.4459 19.6172 6.45722 7.17191C6.45722 4.80472 7.55547 3.18753 9.53685 2.63675C9.93312 2.53128 10.352 2.48441 10.771 2.48441C16.6245 2.47269 22.4667 2.47269 28.3203 2.48441C28.4675 2.48441 28.6147 2.50784 28.8298 2.51956C28.8298 2.75394 28.8298 2.96487 28.8298 3.17581C28.8298 5.49612 28.8185 7.82816 28.8298 10.1485C28.8524 12.9258 30.3243 14.9649 32.8492 15.6797C33.4039 15.8321 34.004 15.8672 34.5814 15.8672C36.5402 15.8907 38.5102 15.8789 40.469 15.8789C40.6728 15.8789 40.8766 15.8789 41.103 15.8789C41.103 19.1719 41.103 22.3828 41.103 25.5352C39.8802 25.6407 38.6914 25.6641 37.5252 25.8399C34.5588 26.3086 31.9207 27.586 29.5657 29.5196C29.3167 29.7305 28.9317 29.8711 28.6147 29.8711C23.8367 29.8946 19.0701 29.8828 14.2922 29.8946C14.0091 29.8946 13.726 29.918 13.4543 29.9883C12.9108 30.1407 12.5938 30.6328 12.6278 31.2305C12.6618 31.7813 13.0241 32.2383 13.5449 32.3438C13.8166 32.4024 14.111 32.4024 14.3941 32.4024C18.3002 32.4024 22.2063 32.4024 26.1125 32.4024C26.305 32.4024 26.5314 32.4024 26.8711 32.4024ZM19.9193 23.6485C17.9945 23.6485 16.0697 23.6485 14.145 23.6485C13.8619 23.6485 13.5675 23.6719 13.3184 23.7657C12.775 23.9766 12.5146 24.5508 12.6278 25.1485C12.7297 25.7227 13.2052 26.1211 13.8619 26.1211C15.164 26.1446 16.466 26.1328 17.7681 26.1328C20.4288 26.1328 23.0895 26.1328 25.7388 26.1328C26.305 26.1328 26.7918 25.9922 27.0749 25.4414C27.5164 24.5742 26.905 23.6602 25.8521 23.6485C23.882 23.6367 21.9006 23.6485 19.9193 23.6485Z" fill="white"/>
<path d="M40.1632 57.5156C32.3962 57.5625 26.0218 50.9882 25.9539 42.8554C25.886 34.8164 32.249 28.1836 40.084 28.125C47.8962 28.0664 54.3046 34.6757 54.3159 42.8086C54.3385 50.8828 47.9981 57.4687 40.1632 57.5156ZM41.3747 37.8046C41.4313 37.7695 41.4879 37.7343 41.5332 37.7109C41.6464 37.875 41.7596 38.0625 41.8955 38.2148C43.2768 39.7617 44.6581 41.3086 46.0507 42.8554C46.2092 43.0312 46.3678 43.1953 46.5489 43.3242C47.1943 43.7812 48.0321 43.5 48.3152 42.75C48.5416 42.1523 48.2925 41.6953 47.9076 41.2734C45.6771 38.8007 43.458 36.3281 41.2275 33.8671C40.4349 32.9882 39.7783 33 38.9857 33.8789C36.8232 36.2812 34.6606 38.6836 32.5094 41.0859C32.3283 41.2851 32.1471 41.4961 32.0226 41.7187C31.7735 42.164 31.7961 42.6211 32.0905 43.0312C32.3849 43.4414 32.8038 43.664 33.268 43.5C33.6077 43.3828 33.9473 43.1484 34.1851 42.8789C35.6117 41.3437 37.0043 39.7734 38.4083 38.2148C38.5441 38.0625 38.6574 37.8867 38.7706 37.7226C38.8272 37.7461 38.8838 37.7812 38.9404 37.8046C38.9404 38.0273 38.9404 38.25 38.9404 38.4726C38.9404 42.5742 38.9404 46.6757 38.9404 50.7773C38.9404 51.9257 39.3707 52.5234 40.1859 52.5C40.9671 52.4765 41.3747 51.8906 41.3747 50.7773C41.3747 46.6523 41.3747 42.539 41.3747 38.414C41.3747 38.2148 41.3747 38.0039 41.3747 37.8046Z" fill="#C7EFC2"/>
<path d="M19.9192 23.6485C21.9006 23.6485 23.882 23.6367 25.8634 23.6485C26.9163 23.6602 27.5277 24.5742 27.0862 25.4414C26.8031 25.9922 26.3163 26.1328 25.7501 26.1328C23.0894 26.1211 20.4287 26.1328 17.7794 26.1328C16.4773 26.1328 15.1753 26.1446 13.8732 26.1211C13.2052 26.1094 12.741 25.7227 12.6391 25.1485C12.5259 24.5508 12.7863 23.9766 13.3297 23.7656C13.5902 23.6719 13.8845 23.6485 14.1563 23.6485C16.0697 23.6367 17.9945 23.6485 19.9192 23.6485Z" fill="#283742"/>
<path d="M41.3747 37.8046C41.3747 38.0156 41.3747 38.2148 41.3747 38.4257C41.3747 42.5507 41.3747 46.664 41.3747 50.789C41.3747 51.9023 40.9671 52.4999 40.1858 52.5117C39.382 52.5351 38.9404 51.9374 38.9404 50.789C38.9404 46.6874 38.9404 42.5859 38.9404 38.4843C38.9404 38.2617 38.9404 38.039 38.9404 37.8164C38.8838 37.7929 38.8272 37.7578 38.7706 37.7343C38.646 37.8984 38.5441 38.0742 38.4083 38.2265C37.0043 39.7851 35.6117 41.3437 34.1851 42.8906C33.936 43.1601 33.5963 43.3828 33.268 43.5117C32.7925 43.6757 32.3849 43.4648 32.0905 43.0429C31.7961 42.621 31.7735 42.164 32.0226 41.7304C32.1584 41.496 32.3396 41.2968 32.5094 41.0976C34.672 38.6953 36.8232 36.2929 38.9857 33.8906C39.7896 32.9999 40.4349 32.9999 41.2275 33.8789C43.4579 36.3398 45.6884 38.8124 47.9075 41.2851C48.2925 41.707 48.5416 42.164 48.3151 42.7617C48.0321 43.5117 47.1943 43.7929 46.5489 43.3359C46.3677 43.207 46.1979 43.0312 46.0507 42.8671C44.6581 41.3203 43.2768 39.7734 41.8955 38.2265C41.7596 38.0742 41.6577 37.8984 41.5332 37.7226C41.4766 37.7343 41.42 37.7695 41.3747 37.8046Z" fill="#283742"/>
</g>
<defs>
<clipPath id="clip0_438_509">
<rect width="60" height="60" fill="white"/>
</clipPath>
</defs>
</svg>
