<svg width="60" height="60" viewBox="0 0 60 60" fill="none" xmlns="http://www.w3.org/2000/svg">
<path d="M7.52368 8.13257V47.4832L8.54578 54.1268L16.2115 56.682H35.1202L48.4074 55.1489L51.4737 52.5937V8.13257L48.4074 3.53314H10.59L7.52368 8.13257Z" fill="#C7EFC2"/>
<path d="M46.6478 2C47.3951 2.24985 48.1881 2.41151 48.8896 2.73484C52.0007 4.20452 53.8612 6.58539 53.9679 9.96565C54.09 13.8456 54.0137 17.7256 54.0137 21.6055C54.0137 30.8645 54.0289 40.1234 54.0137 49.3824C54.0137 53.5857 51.6652 56.7749 47.7916 57.8331C46.8918 58.0829 45.931 58.1858 44.9855 58.2005C34.9966 58.2299 25.0076 58.2299 15.0187 58.2152C9.75736 58.2152 6.02104 54.6879 6.00579 49.6029C5.97529 36.6109 5.97529 23.619 6.00579 10.627C6.02104 6.27676 8.59833 3.20514 12.9599 2.17636C13.1124 2.14697 13.2344 2.05879 13.3717 2C24.4586 2 35.5456 2 46.6478 2ZM50.5824 30.159C50.5824 23.7512 50.5824 17.3434 50.5824 10.9503C50.5824 7.32023 48.4931 5.30678 44.7415 5.30678C34.9508 5.30678 25.1449 5.30678 15.3542 5.30678C11.5264 5.30678 9.45235 7.30554 9.45235 11.0091C9.45235 23.7512 9.45235 36.4786 9.45235 49.2207C9.45235 52.9243 11.5264 54.9231 15.3542 54.9231C25.1144 54.9231 34.8746 54.9231 44.6348 54.9231C48.5388 54.9231 50.5824 52.939 50.5976 49.162C50.5824 42.8276 50.5824 36.4933 50.5824 30.159Z" fill="#283742"/>
<path d="M28.2103 28.4395C27.2038 28.4395 26.2582 28.4983 25.3432 28.3954C25.0535 28.366 24.718 27.9251 24.5807 27.6165C23.7114 25.7059 22.8879 23.7806 22.0492 21.87C21.9272 21.5761 21.7747 21.2969 21.4391 21.0323C21.4391 23.4426 21.4391 25.8676 21.4391 28.366C20.2496 28.366 19.1821 28.366 18.0383 28.366C18.0383 22.8988 18.0383 17.5051 18.0383 11.9203C19.0448 11.9203 20.0666 11.8762 21.0579 11.9497C21.3171 11.9644 21.6069 12.3906 21.7442 12.6845C22.7049 14.8156 23.6352 16.976 24.8247 19.0923C24.8247 16.7262 24.8247 14.36 24.8247 11.9644C26.0447 11.9644 27.097 11.9644 28.2103 11.9644C28.2103 17.461 28.2103 22.8841 28.2103 28.4395Z" fill="#283742"/>
<path d="M31.7637 20.1505C31.7637 18.9454 31.7027 17.7402 31.7789 16.5351C31.9467 13.9779 34.0207 12.0379 36.6438 11.9056C39.1753 11.7733 41.6459 13.5076 41.8594 15.9913C42.1034 18.7837 42.1034 21.6202 41.8441 24.3979C41.6154 26.8816 39.1906 28.5424 36.5828 28.4101C33.9902 28.2778 31.9467 26.3819 31.7789 23.8688C31.6874 22.649 31.7637 21.3997 31.7637 20.1505ZM35.1797 20.1799C35.1797 21.2381 35.1492 22.2962 35.1797 23.3544C35.2102 24.4567 35.7897 25.0739 36.781 25.118C37.8028 25.1621 38.5653 24.5301 38.5806 23.4279C38.6263 21.2822 38.6263 19.1217 38.5806 16.976C38.5501 15.9178 37.7418 15.1977 36.7963 15.2418C35.866 15.2859 35.2102 15.9766 35.1797 17.0201C35.1492 18.0636 35.1797 19.1217 35.1797 20.1799Z" fill="#283742"/>
<path d="M30.0707 44.9881C31.1688 44.9881 32.221 44.9881 33.3495 44.9881C33.3495 46.1197 33.3495 47.1485 33.3495 48.2507C31.1383 48.2507 28.9575 48.2507 26.6699 48.2507C26.6699 42.8129 26.6699 37.3604 26.6699 31.8344C28.866 31.8344 31.0468 31.8344 33.3343 31.8344C33.3343 32.8632 33.3343 33.892 33.3343 35.0677C32.2668 35.0677 31.184 35.0677 30.0555 35.0677C30.0555 36.2141 30.0555 37.2282 30.0555 38.3598C31.1383 38.3598 32.221 38.3598 33.3648 38.3598C33.3648 39.5062 33.3648 40.5055 33.3648 41.6519C32.2973 41.6519 31.2145 41.6519 30.0707 41.6519C30.0707 42.8276 30.0707 43.8564 30.0707 44.9881Z" fill="#283742"/>
<path d="M43.6587 44.9587C43.6587 46.1491 43.6587 47.1485 43.6587 48.2361C41.4169 48.2361 39.2056 48.2361 36.9333 48.2361C36.9333 42.7836 36.9333 37.3604 36.9333 31.8492C39.1751 31.8492 41.3864 31.8492 43.6587 31.8492C43.6587 32.9073 43.6587 33.9214 43.6587 35.0677C42.5607 35.0677 41.4932 35.0677 40.3494 35.0677C40.3494 36.2141 40.3494 37.2282 40.3494 38.3304C41.4322 38.3304 42.4845 38.3304 43.6282 38.3304C43.6282 39.4621 43.6282 40.5056 43.6282 41.6813C42.5607 41.6813 41.4779 41.6813 40.3494 41.6813C40.3494 42.8276 40.3494 43.8417 40.3494 44.944C41.4322 44.9587 42.4692 44.9587 43.6587 44.9587Z" fill="#283742"/>
<path d="M16.4065 31.805C18.6635 31.805 20.8138 31.805 23.0709 31.805C23.0709 32.8779 23.0709 33.9067 23.0709 35.0383C22.0034 35.0383 20.9511 35.0383 19.8226 35.0383C19.8226 36.17 19.8226 37.2134 19.8226 38.3451C20.8901 38.3451 21.9423 38.3451 23.0709 38.3451C23.0709 39.4767 23.0709 40.5202 23.0709 41.6519C22.0034 41.6519 20.9511 41.6519 19.7768 41.6519C19.7768 43.8858 19.7768 46.0168 19.7768 48.2213C18.6025 48.2213 17.5503 48.2213 16.4065 48.2213C16.4065 42.8129 16.4065 37.3604 16.4065 31.805Z" fill="#283742"/>
<path d="M35.1794 20.1799C35.1794 19.1217 35.1489 18.0636 35.1946 17.0054C35.2251 15.9619 35.8809 15.2712 36.8112 15.2271C37.7567 15.183 38.5802 15.9031 38.5955 16.9613C38.6412 19.107 38.6412 21.2675 38.5955 23.4132C38.565 24.5154 37.8024 25.1474 36.7959 25.1033C35.8199 25.0592 35.2404 24.442 35.1946 23.3397C35.1489 22.2815 35.1794 21.2234 35.1794 20.1799Z" fill="#C7EFC2"/>
</svg>
