<svg width="60" height="60" viewBox="0 0 60 60" fill="none" xmlns="http://www.w3.org/2000/svg">
<g clip-path="url(#clip0_438_514)">
<path d="M39.5159 12.2322C41.1122 12.2322 42.6155 12.2322 44.1188 12.2322C48.0863 12.248 51 15.2096 51 19.2582C51 30.3012 51 41.36 51 52.403C51 56.4516 48.1793 59.4447 44.2118 59.4604C34.7424 59.4919 25.2576 59.4919 15.7882 59.4604C11.8362 59.4447 9.0155 56.4358 9 52.403C9 39.6586 9 26.9142 9 14.1699C9 13.3192 9.27897 12.6891 10.0229 12.2795C17.059 8.41992 24.0952 4.54463 31.1314 0.685082C34.324 -1.06353 38.3535 0.685082 39.3144 4.22956C39.4384 4.71791 39.5004 5.23777 39.5159 5.74187C39.5314 7.75829 39.5314 9.75895 39.5314 11.7754C39.5159 11.9014 39.5159 12.0274 39.5159 12.2322ZM12.0221 15.2726C12.0066 15.5089 11.9911 15.6664 11.9911 15.8239C11.9911 28.0485 11.9911 40.2887 11.9911 52.5132C11.9911 54.8605 13.5565 56.4358 15.8657 56.4358C25.2576 56.4358 34.6649 56.4358 44.0568 56.4358C46.4745 56.4358 48.0089 54.8762 48.0089 52.403C48.0089 41.3757 48.0089 30.3484 48.0089 19.3212C48.0089 18.9431 47.9934 18.565 47.9159 18.2027C47.4974 16.3596 46.0561 15.2726 44.0258 15.2726C33.5646 15.2726 23.1033 15.2726 12.6421 15.2726C12.4561 15.2726 12.2701 15.2726 12.0221 15.2726ZM16.6251 12.1062C16.6251 12.1377 16.6406 12.1692 16.6406 12.2007C23.2583 12.2007 29.8605 12.2007 36.4937 12.2007C36.4937 9.86922 36.5247 7.56925 36.4627 5.26927C36.4472 4.84394 36.1683 4.37134 35.8893 4.00902C35.0524 2.9378 33.7041 2.7015 32.4952 3.34738C29.9535 4.73366 27.4273 6.11995 24.9011 7.52199C22.1424 9.05005 19.3838 10.5781 16.6251 12.1062Z" fill="#283742" stroke="white" stroke-width="0.2"/>
<path d="M12.0224 15.2723C12.2704 15.2723 12.4564 15.2723 12.6578 15.2723C23.1191 15.2723 33.5803 15.2723 44.0416 15.2723C46.0719 15.2723 47.5132 16.3593 47.9316 18.2024C48.0091 18.5648 48.0246 18.9428 48.0246 19.3209C48.0246 30.3482 48.0246 41.3755 48.0246 52.4027C48.0246 54.876 46.4903 56.4356 44.0726 56.4356C34.6807 56.4356 25.2733 56.4356 15.8814 56.4356C13.5722 56.4356 12.0069 54.8602 12.0069 52.513C12.0069 40.2885 12.0069 28.0482 12.0069 15.8237C11.9914 15.6662 12.0069 15.5086 12.0224 15.2723ZM29.8608 21.1956C25.2423 21.0223 19.0276 25.0709 19.0586 32.2858C19.0896 38.7762 23.863 43.6439 30.1552 43.6439C35.9206 43.6439 41.035 38.3981 41.0195 32.4906C41.035 26.2208 36.029 21.1641 29.8608 21.1956ZM29.9848 50.5281C32.5575 50.5281 35.1302 50.5281 37.6874 50.5281C38.6327 50.5281 39.2062 49.9137 39.1907 48.9685C39.1752 48.0076 38.5862 47.5035 37.4704 47.5035C32.511 47.5035 27.5361 47.5035 22.5766 47.5035C22.3597 47.5035 22.1582 47.5192 21.9412 47.5507C21.3678 47.6453 20.9338 48.1021 20.8254 48.685C20.6394 49.7404 21.2593 50.5123 22.3132 50.5123C24.8859 50.5281 27.4276 50.5281 29.9848 50.5281Z" fill="#C7EFC2"/>
<path d="M29.8607 21.1956C36.029 21.1799 41.0349 26.2209 41.0349 32.4907C41.0349 38.3982 35.9205 43.644 30.1707 43.644C23.8629 43.644 19.105 38.7763 19.074 32.2859C19.0275 25.0709 25.2578 21.0066 29.8607 21.1956ZM27.35 33.94C27.4585 36.3188 28.1559 38.4454 29.4423 40.3673C29.6902 40.7297 30.3876 40.6982 30.6201 40.3043C30.9921 39.6742 31.3795 39.0283 31.674 38.3509C32.2784 36.9646 32.6349 35.4996 32.6659 33.94C30.8836 33.94 29.1323 33.94 27.35 33.94ZM32.6814 30.8681C32.5419 28.4894 31.8445 26.347 30.5426 24.4251C30.2792 24.047 29.7057 24.0942 29.4268 24.5038C28.5899 25.7483 28.0009 27.1189 27.6755 28.5839C27.5205 29.3243 27.4275 30.0647 27.319 30.8524C29.1478 30.8681 30.8681 30.8681 32.6814 30.8681ZM22.1271 33.9085C22.5146 36.0667 24.0024 38.3509 25.2113 38.8865C24.9478 37.3742 24.6843 35.7989 24.3899 34.2236C24.3744 34.0975 24.1884 33.9243 24.0799 33.9085C23.4445 33.8928 22.809 33.9085 22.1271 33.9085ZM24.2504 30.8681C24.6068 29.151 24.9478 27.4969 25.2887 25.7956C23.5685 27.0559 22.5766 28.7572 22.1116 30.8681C22.871 30.8681 23.584 30.8681 24.2504 30.8681ZM34.7581 38.9495C36.2614 38.0201 37.8268 35.4838 37.8113 33.9243C37.1138 33.9243 36.4319 33.9243 35.781 33.9243C35.4245 35.6414 35.0836 37.327 34.7581 38.9495ZM34.7426 25.7956C35.0991 27.4969 35.44 29.1668 35.781 30.8524C36.4629 30.8524 37.1603 30.8524 37.9042 30.8524C37.4238 28.7572 36.4164 27.0559 34.7426 25.7956Z" fill="#283742"/>
<path d="M29.9846 50.5284C27.4274 50.5284 24.8857 50.5284 22.3285 50.5284C21.2746 50.5284 20.6547 49.7407 20.8406 48.701C20.9491 48.1182 21.3676 47.6613 21.9565 47.5668C22.158 47.5353 22.375 47.5195 22.5919 47.5195C27.5513 47.5195 32.5263 47.5195 37.4857 47.5195C38.6015 47.5195 39.1905 48.0394 39.206 48.9846C39.2215 49.9298 38.648 50.5284 37.7026 50.5442C35.1299 50.5284 32.5572 50.5284 29.9846 50.5284Z" fill="#283742"/>
<path d="M27.3499 33.9401C29.1321 33.9401 30.8679 33.9401 32.6657 33.9401C32.6347 35.4996 32.2783 36.9647 31.6738 38.351C31.3794 39.0284 30.9919 39.6742 30.62 40.3044C30.3875 40.6982 29.6746 40.7297 29.4421 40.3674C28.1558 38.4297 27.4738 36.3031 27.3499 33.9401Z" fill="#C7EFC2"/>
<path d="M32.6812 30.8681C30.8679 30.8681 29.1476 30.8681 27.3188 30.8681C27.4428 30.0804 27.5203 29.34 27.6753 28.5996C27.9853 27.1188 28.5897 25.764 29.4266 24.5195C29.7056 24.1099 30.279 24.0469 30.5425 24.4407C31.8443 26.3469 32.5417 28.4893 32.6812 30.8681Z" fill="#C7EFC2"/>
<path d="M22.1267 33.9085C22.8086 33.9085 23.4441 33.8927 24.064 33.9242C24.1725 33.9242 24.3584 34.1133 24.3739 34.2393C24.6684 35.8146 24.9319 37.3899 25.1953 38.9023C24.002 38.3509 22.5297 36.0667 22.1267 33.9085Z" fill="#C7EFC2"/>
<path d="M24.2501 30.8684C23.5837 30.8684 22.8707 30.8684 22.1113 30.8684C22.5763 28.7575 23.5682 27.0562 25.2884 25.7959C24.9475 27.4972 24.6065 29.1513 24.2501 30.8684Z" fill="#C7EFC2"/>
<path d="M34.7578 38.9495C35.0833 37.3269 35.4242 35.6413 35.7807 33.9242C36.4316 33.9242 37.1135 33.9242 37.8109 33.9242C37.8264 35.4838 36.2611 38.02 34.7578 38.9495Z" fill="#C7EFC2"/>
<path d="M34.7419 25.7959C36.4157 27.0562 37.4231 28.7418 37.9036 30.8527C37.1597 30.8527 36.4622 30.8527 35.7803 30.8527C35.4394 29.1828 35.0829 27.4972 34.7419 25.7959Z" fill="#C7EFC2"/>
</g>
<defs>
<clipPath id="clip0_438_514">
<rect width="60" height="60" fill="white"/>
</clipPath>
</defs>
</svg>
