<svg width="60" height="60" viewBox="0 0 60 60" fill="none" xmlns="http://www.w3.org/2000/svg">
<g clip-path="url(#clip0_438_508)">
<path d="M0.822021 16.0396V23.4371L3.6988 25.4919H11.5072L14.795 27.9577V25.4919H17.2608H18.9046V23.4371V16.0396L17.2608 13.1628H3.6988L0.822021 14.3957V16.0396Z" fill="#C7EFC2"/>
<path d="M20.5486 39.0539L21.3705 53.8487L23.0144 54.6707H51.3712V53.0268V37.821L50.1383 35.7661H47.6725H21.3705L20.5486 39.0539Z" fill="#C7EFC2"/>
<path d="M21.4459 60.0132C20.0214 59.4809 19.8023 58.3225 19.9432 56.9763C18.3778 56.491 16.8593 56.0214 15.3253 55.5675C13.3216 54.9726 12.4136 53.4698 12.8989 51.4505C14.1199 46.269 15.3253 41.0876 16.5776 35.9218C17.3603 32.6971 19.5518 30.9908 22.7452 30.3803C25.2342 29.895 27.6918 29.3002 30.1652 28.7523C30.9792 28.5645 31.2296 28.1888 31.2922 27.3591C31.3548 26.5608 31.12 26.0598 30.4313 25.5276C27.9423 23.6335 26.6743 21.0662 26.5804 17.9198C26.5804 17.685 26.5804 17.4658 26.5804 17.1841C25.5159 17.1684 24.6393 16.8084 23.9975 15.9787C23.5592 15.3995 23.3557 14.7421 23.387 14.0063C23.4653 12.4096 24.5611 11.3765 26.5648 11.1104C26.5648 10.9069 26.5648 10.7034 26.5648 10.4842C26.5648 8.49616 26.5491 6.50811 26.5648 4.50441C26.6117 1.90586 28.5058 0.0273943 31.12 0.0117404C34.6109 -0.00391348 38.1173 -0.00391348 41.6082 0.0117404C44.2537 0.0117404 46.1478 1.90586 46.1634 4.55137C46.1791 6.52377 46.1634 8.49616 46.1634 10.4685C46.1634 10.672 46.1634 10.8912 46.1634 11.0947C48.2924 11.4391 49.3725 12.5192 49.3412 14.2255C49.3099 15.8535 48.1828 16.9336 46.2261 17.1841C46.1478 17.9668 46.1165 18.7651 45.9756 19.5478C45.4903 22.209 44.0971 24.3066 41.8899 25.8563C41.5769 26.0755 41.4673 26.2946 41.4673 26.6703C41.4829 28.4549 41.4986 28.5018 43.2362 28.8932C45.8034 29.4724 48.3863 30.0046 50.9379 30.6151C53.6304 31.2726 55.4306 32.9789 56.1037 35.6557C57.4343 40.9937 58.6709 46.3473 59.9076 51.7009C60.2989 53.4072 59.4223 54.91 57.7473 55.4735C56.2915 55.9588 54.8044 56.3971 53.3329 56.8354C52.9416 56.945 52.8007 57.1328 52.832 57.5242C52.9259 58.6982 52.472 59.5749 51.3449 60.0288C41.3733 60.0132 31.4175 60.0132 21.4459 60.0132ZM19.9275 49.9477C19.9275 49.0867 19.9275 48.2571 19.9275 47.4431C19.9275 46.6917 20.2249 46.3003 20.8041 46.3003C21.3833 46.3003 21.6807 46.6917 21.6964 47.4274C21.6964 49.0554 21.6964 50.6678 21.6964 52.2958C21.6964 53.8299 22.6043 54.7535 24.1227 54.7535C32.2941 54.7535 40.4498 54.7535 48.6211 54.7535C50.1552 54.7535 51.0788 53.8612 51.0788 52.3271C51.0944 47.8031 51.0944 43.2635 51.0788 38.7395C51.0788 37.2367 50.1708 36.3445 48.6524 36.3445C40.4654 36.3445 32.2784 36.3445 24.0914 36.3445C22.5574 36.3445 21.6807 37.2524 21.6807 38.8021C21.6807 40.1484 21.6807 41.4946 21.6807 42.8408C21.6807 43.5296 21.3677 43.9366 20.8354 43.9523C20.2875 43.9679 19.9275 43.5453 19.9275 42.8252C19.9275 41.5102 19.9275 40.211 19.9275 38.896C19.9275 36.1879 21.5555 34.5599 24.2636 34.5599C32.3254 34.5599 40.4028 34.5599 48.4646 34.5599C48.8716 34.5599 49.2942 34.5599 49.6856 34.6538C51.5953 35.0765 52.8164 36.6575 52.8164 38.7082C52.832 42.2303 52.8164 45.7368 52.8164 49.2589C52.8164 49.4781 52.8164 49.7129 52.8164 49.9477C54.4131 49.6346 55.9315 49.3215 57.4499 49.0241C57.4499 49.0398 57.4343 48.9459 57.4186 48.8519C56.4168 44.6254 55.4306 40.3832 54.3974 36.1566C53.8808 34.0433 52.472 32.7597 50.3743 32.2744C47.995 31.7266 45.6156 31.21 43.2205 30.7247C43.017 30.6777 42.6883 30.7717 42.5317 30.9282C38.994 34.4503 33.7029 34.4347 30.1495 30.9125C30.0086 30.7717 29.7112 30.6777 29.5077 30.7247C27.1596 31.2256 24.8272 31.7422 22.4791 32.2588C20.2093 32.7597 18.8004 34.1216 18.2525 36.3758C17.3916 39.9605 16.5463 43.5453 15.7009 47.13C15.5444 47.8188 15.3879 48.5075 15.2626 49.0398C16.8593 49.3215 18.3621 49.6346 19.9275 49.9477ZM28.4745 12.9888C28.4745 15.0238 28.271 17.1058 28.5215 19.1408C28.9755 23.023 32.5602 25.872 36.5676 25.8094C40.4498 25.7468 43.9093 22.7256 44.3006 18.906C44.4885 16.9493 44.4102 14.9612 44.4102 13.0045C44.4102 12.8479 44.1754 12.6601 44.0189 12.5505C43.0014 11.8774 41.9212 11.2826 40.9507 10.5312C40.3089 10.0459 39.8393 9.34147 39.307 8.74662C38.5243 9.2632 37.7416 9.81108 36.9433 10.3277C36.3798 10.6877 35.8475 10.5938 35.5657 10.1242C35.284 9.65455 35.4718 9.20058 36.051 8.80924C36.8181 8.277 37.6008 7.76042 38.3365 7.18123C39.3383 6.39853 40.0271 6.4768 40.7002 7.54127C41.4986 8.79358 42.5161 9.77978 43.8154 10.4842C43.9876 10.5781 44.1754 10.6564 44.4259 10.766C44.4259 8.6527 44.4259 6.649 44.4259 4.62964C44.4259 2.86075 43.3301 1.78063 41.5769 1.76498C38.1173 1.76498 34.6578 1.76498 31.1983 1.76498C29.4607 1.76498 28.3806 2.8451 28.365 4.56703C28.365 6.55507 28.365 8.55877 28.365 10.5468C28.365 10.7347 28.3806 10.9069 28.3963 11.2199C29.6799 10.9695 30.8852 10.7347 32.0906 10.4842C32.7637 10.3433 33.2333 10.5312 33.3899 11.0321C33.5464 11.5643 33.2333 12.0339 32.5289 12.1905C31.167 12.4722 29.8051 12.7227 28.4745 12.9888ZM36.3954 58.2599C40.9037 58.2599 45.4121 58.2599 49.936 58.2599C49.9987 58.2599 50.0456 58.2599 50.1082 58.2599C51.0475 58.2443 51.0788 58.4947 51.0788 57.2737C51.0788 56.5067 51.0788 56.5067 50.3117 56.5067C41.1072 56.5067 31.9184 56.5067 22.7139 56.5067C21.6025 56.5067 21.7277 56.3345 21.6807 57.5398C21.6651 58.0877 21.8216 58.2756 22.4008 58.2756C27.05 58.2443 31.7305 58.2599 36.3954 58.2599ZM40.935 29.942C39.9958 29.2376 39.6201 28.2514 39.714 26.9991C37.4599 27.7348 35.284 27.7505 33.0455 26.9834C33.1394 28.2201 32.748 29.2063 31.8245 29.942C34.1569 32.3527 38.7748 32.3527 40.935 29.942ZM19.9432 51.8105C18.7221 51.5131 17.5481 51.2313 16.3741 50.9652C15.5444 50.7774 14.793 51.2 14.5739 51.9514C14.3391 52.7341 14.7617 53.5324 15.5914 53.7986C17.1254 54.2838 18.6752 54.7535 20.2249 55.2074C20.3971 55.2544 20.6163 55.1761 20.9293 55.1448C20.084 54.096 19.8649 53.0315 19.9432 51.8105ZM51.8458 55.1448C52.1432 55.1761 52.3467 55.2544 52.5189 55.2074C54.1 54.7378 55.681 54.2682 57.2621 53.7673C58.0291 53.5168 58.4205 52.7184 58.2013 51.9984C57.9821 51.2313 57.2308 50.7774 56.4324 50.9652C55.3679 51.2 54.3191 51.4661 53.2547 51.7166C52.9729 51.7792 52.8164 51.8888 52.832 52.2175C52.8633 53.235 52.5972 54.1743 51.8458 55.1448ZM26.5804 12.9419C25.9699 12.9106 25.4846 13.1141 25.3281 13.6306C25.2185 14.0063 25.2655 14.5073 25.4377 14.8829C25.6255 15.29 26.0638 15.4778 26.5804 15.3369C26.5804 14.5386 26.5804 13.7715 26.5804 12.9419ZM46.1948 15.3369C46.9931 15.3995 47.5566 14.9143 47.588 14.1942C47.6193 13.5054 46.9148 12.801 46.1948 12.9732C46.1948 13.7559 46.1948 14.5386 46.1948 15.3369Z" fill="#283742"/>
<path d="M0 15.6031C0.0782695 15.3996 0.156539 15.2118 0.219155 15.0083C0.751387 13.5525 2.05066 12.5506 3.6004 12.535C7.84261 12.5036 12.0692 12.5036 16.3114 12.535C18.2838 12.5506 19.8648 14.1473 19.9118 16.1354C19.9587 18.5774 19.9587 21.0194 19.9118 23.4457C19.8648 25.4651 18.2211 27.0148 16.1861 27.0618C15.9357 27.0618 15.6852 27.0618 15.3878 27.0618C15.3878 27.4531 15.3878 27.7819 15.3878 28.1106C15.3721 28.7681 15.0591 29.222 14.5112 29.4255C13.932 29.6447 13.4467 29.5038 12.9927 29.0029C12.5857 28.5332 12.1631 28.0793 11.7874 27.5784C11.5056 27.2027 11.1925 27.0461 10.7073 27.0618C8.67226 27.0931 6.63726 26.9992 4.6179 27.0931C2.42636 27.187 0.673118 26.3574 0.0156539 23.9153C0 21.1446 0 18.3739 0 15.6031ZM13.5406 26.9522C13.8224 25.559 14.1355 25.3085 15.5443 25.3085C15.6852 25.3085 15.8104 25.3085 15.9513 25.3085C17.3445 25.2929 18.1585 24.4789 18.1585 23.07C18.1585 20.8628 18.1585 18.6556 18.1585 16.4484C18.1585 15.0709 17.3602 14.2725 15.9826 14.2569C11.9752 14.2569 7.98349 14.2569 3.97609 14.2569C2.55159 14.2569 1.76889 15.0396 1.76889 16.4641C1.76889 18.6556 1.76889 20.8315 1.76889 23.0231C1.76889 24.5102 2.56724 25.2929 4.05436 25.2929C6.32418 25.2929 8.57834 25.3242 10.8482 25.2772C11.7717 25.2616 12.4762 25.512 13.0084 26.2947C13.1336 26.5295 13.3371 26.7174 13.5406 26.9522Z" fill="#283742"/>
<path d="M40.9351 29.942C38.7748 32.3371 34.1569 32.3528 31.8088 29.9577C32.7481 29.222 33.1394 28.2358 33.0298 26.9991C35.2684 27.7662 37.4442 27.7348 39.6984 27.0148C39.6201 28.2514 39.9958 29.2376 40.9351 29.942Z" fill="white"/>
<path d="M19.9432 51.8105C19.865 53.0159 20.0841 54.096 20.9138 55.1448C20.6007 55.1761 20.3815 55.2544 20.2094 55.2074C18.6596 54.7535 17.1099 54.2838 15.5758 53.7986C14.7461 53.5325 14.3235 52.7341 14.5583 51.9514C14.7775 51.2 15.5288 50.7774 16.3585 50.9652C17.5482 51.2313 18.7066 51.5288 19.9432 51.8105Z" fill="white"/>
<path d="M51.8457 55.1449C52.5971 54.1587 52.8632 53.2194 52.8319 52.2019C52.8162 51.8732 52.9728 51.7636 53.2546 51.701C54.319 51.4662 55.3678 51.2001 56.4323 50.9496C57.2306 50.7774 57.982 51.2157 58.2012 51.9828C58.4203 52.7028 58.029 53.5169 57.262 53.7517C55.6966 54.2682 54.0999 54.7222 52.5188 55.1918C52.3466 55.2701 52.1431 55.1762 51.8457 55.1449Z" fill="white"/>
<path d="M26.5801 12.9419C26.5801 13.7715 26.5801 14.5386 26.5801 15.3369C26.0635 15.4621 25.6252 15.2899 25.4373 14.8829C25.2651 14.5229 25.2182 14.022 25.3277 13.6306C25.4686 13.1141 25.9696 12.8949 26.5801 12.9419Z" fill="white"/>
<path d="M46.1948 15.337C46.1948 14.5386 46.1948 13.7559 46.1948 12.9732C46.9149 12.801 47.6193 13.5054 47.588 14.1942C47.5567 14.9143 46.9932 15.3996 46.1948 15.337Z" fill="white"/>
<path d="M36.3953 41.6982C38.7434 41.6982 40.6062 43.5924 40.5906 45.9561C40.5749 48.3042 38.6808 50.1827 36.3327 50.167C34.0316 50.1514 32.1375 48.2416 32.1375 45.9248C32.1375 43.5924 34.0472 41.6982 36.3953 41.6982ZM38.8373 45.9561C38.853 44.5786 37.7885 43.4828 36.4266 43.4671C35.0491 43.4515 33.922 44.5473 33.9063 45.9248C33.8907 47.2867 35.0178 48.4294 36.3953 48.4294C37.7415 48.4138 38.8217 47.318 38.8373 45.9561Z" fill="#283742"/>
<path d="M36.4267 23.7587C35.7222 23.5395 35.0022 23.383 34.329 23.1012C33.8125 22.8977 33.6559 22.3968 33.8751 21.9428C34.0942 21.4889 34.5482 21.301 35.0648 21.5358C35.9571 21.9585 36.818 21.9428 37.7103 21.5358C38.2112 21.301 38.7121 21.5045 38.9 21.9428C39.0878 22.3811 38.9313 22.8977 38.4304 23.1012C37.7886 23.3673 37.1311 23.5239 36.4267 23.7587Z" fill="#283742"/>
<path d="M32.9515 15.5405C32.9515 15.8379 32.9671 16.1197 32.9515 16.4171C32.9202 16.918 32.6227 17.2154 32.1375 17.2311C31.6366 17.2624 31.2922 16.9806 31.2452 16.4954C31.1826 15.8379 31.1826 15.1648 31.2452 14.5073C31.2922 14.0221 31.6522 13.7403 32.1375 13.7716C32.6227 13.8029 32.9202 14.0847 32.9515 14.6012C32.9671 14.9143 32.9515 15.2274 32.9515 15.5405Z" fill="#283742"/>
<path d="M41.5301 15.5249C41.5301 15.8537 41.5614 16.1824 41.5144 16.5111C41.4518 16.9807 41.1387 17.2468 40.6691 17.2468C40.1682 17.2468 39.8395 16.9651 39.8081 16.4798C39.7768 15.838 39.7768 15.1962 39.8081 14.5544C39.8395 14.0691 40.1682 13.8186 40.6222 13.7873C41.1074 13.7717 41.4518 14.0378 41.5144 14.5387C41.5614 14.8518 41.5301 15.1805 41.5301 15.5249Z" fill="#283742"/>
<path d="M9.95581 18.9062C8.51565 18.9062 7.07549 18.9062 5.61968 18.9062C4.8996 18.9062 4.5239 18.6088 4.50825 18.0765C4.49259 17.513 4.8996 17.153 5.61968 17.153C8.49999 17.153 11.396 17.153 14.2763 17.153C14.3546 17.153 14.4328 17.153 14.5111 17.153C15.059 17.2156 15.4034 17.56 15.3877 18.0609C15.3721 18.5618 15.0433 18.8905 14.4641 18.9062C12.9614 18.9062 11.4586 18.9062 9.95581 18.9062Z" fill="#283742"/>
<path d="M9.95582 22.4126C8.50001 22.4126 7.02854 22.4126 5.57273 22.4126C4.88396 22.4126 4.49261 22.0682 4.50826 21.5203C4.52392 21.0037 4.91527 20.6594 5.55708 20.6594C8.48436 20.6594 11.4116 20.6594 14.3389 20.6594C15.0277 20.6594 15.4034 21.0037 15.3877 21.5673C15.3721 22.1308 15.012 22.4126 14.292 22.4126C12.8518 22.4283 11.4116 22.4126 9.95582 22.4126Z" fill="#283742"/>
</g>
<defs>
<clipPath id="clip0_438_508">
<rect width="60" height="60" fill="white"/>
</clipPath>
</defs>
</svg>
