<svg width="60" height="60" viewBox="0 0 60 60" fill="none" xmlns="http://www.w3.org/2000/svg">
<path d="M56.754 30.6643C56.754 35.0689 56.7721 39.3847 56.7179 43.7183C56.7179 43.9847 56.1578 44.482 55.8506 44.4998C50.7736 44.5353 45.6786 44.6419 40.6197 44.482C36.6267 44.3577 33.6637 41.1608 33.6998 37.3955C33.7359 33.6125 36.7532 30.4511 40.71 30.3978C45.8773 30.3268 51.0447 30.4689 56.212 30.5222C56.3385 30.5222 56.4649 30.5755 56.754 30.6643ZM40.963 41.6758C43.3117 41.6403 45.2269 39.7222 45.2088 37.3955C45.2088 35.1044 43.2395 33.1863 40.8907 33.1863C38.4696 33.1863 36.5183 35.1399 36.5725 37.5198C36.6267 39.8465 38.6142 41.7291 40.963 41.6758Z" fill="#C7EFC2"/>
<path d="M57.2994 27.1289C59.4051 27.8008 59.97 28.5415 59.9872 30.6259C60.0043 34.743 60.0043 38.8602 59.9872 42.9773C59.9872 45.0445 59.4222 45.768 57.2994 46.4743C57.2994 48.3864 57.2994 50.3502 57.2994 52.3313C57.2823 56.5346 55.0909 58.7568 50.9138 58.7568C36.0368 58.7568 21.1599 58.7568 6.2829 58.7568C2.17419 58.7223 0 56.5346 0 52.3657C0 41.9437 0 31.5217 0 21.0997C0 17.0514 2.19131 14.8637 6.24866 14.8292C8.61117 14.812 8.61117 14.812 9.46715 12.6242C10.4772 10.0747 11.4873 7.52518 12.5144 4.99289C13.6272 2.25388 15.7843 1.34087 18.5063 2.47782C27.905 6.38823 37.2865 10.3503 46.7023 14.2091C47.9007 14.7086 49.3559 14.8637 50.6741 14.7948C55.1252 14.5708 57.5562 17.6371 57.3336 21.5303C57.2138 23.3736 57.2994 25.2168 57.2994 27.1289ZM54.5431 27.1806C54.5431 25.1651 54.5431 23.2874 54.5431 21.4097C54.5431 18.5501 53.5502 17.5338 50.7083 17.5338C36.0026 17.5338 21.2968 17.5338 6.59106 17.5338C3.68072 17.5338 2.68778 18.5501 2.68778 21.4959C2.68778 31.625 2.68778 41.737 2.68778 51.8662C2.68778 55.1048 3.578 56.0178 6.76225 56.0178C21.3482 56.0178 35.917 56.0178 50.5029 56.0178C51.0507 56.0178 51.6157 56.0178 52.1635 55.9316C53.4988 55.7077 54.4062 54.8464 54.4746 53.5371C54.6116 51.1943 54.5089 48.8515 54.5089 46.3709C53.9439 46.3709 53.4817 46.3709 53.0195 46.3709C49.3045 46.3709 45.6067 46.4226 41.8917 46.3365C36.8414 46.2331 32.8183 42.0643 32.7498 36.9653C32.6814 31.7629 36.5675 27.439 41.6692 27.2495C45.4526 27.1117 49.2532 27.1978 53.0537 27.1806C53.5159 27.1806 53.9611 27.1806 54.5431 27.1806ZM57.2994 30.2125C57.0255 30.1263 56.9056 30.0747 56.7858 30.0747C51.8896 30.023 46.9934 29.8679 42.0972 29.9541C38.348 30.0058 35.489 33.0721 35.4547 36.7413C35.4205 40.3933 38.2281 43.4941 42.0116 43.6147C46.8222 43.7697 51.6328 43.6664 56.4434 43.6319C56.7344 43.6319 57.2651 43.1496 57.2651 42.8739C57.3165 38.6707 57.2994 34.4846 57.2994 30.2125ZM40.214 14.588C39.8887 14.433 39.5806 14.2607 39.2382 14.1229C34.9583 12.3314 30.6955 10.5398 26.4156 8.74826C23.4368 7.50796 20.458 6.25042 17.4791 5.01011C16.606 4.64836 15.7158 4.545 15.2878 5.54414C14.021 8.54155 12.8397 11.5906 11.6071 14.657C14.4661 15.1565 14.5174 15.1393 15.459 12.6759C15.6816 12.1247 15.9041 11.5562 16.1096 11.0049C16.7944 9.2306 17.1196 9.07557 18.8658 9.64404C23.4539 11.1772 28.0762 12.6587 32.6471 14.278C35.1637 15.1737 37.6632 14.657 40.214 14.588ZM24.8577 14.7775C24.8748 14.7086 24.8919 14.6225 24.9262 14.5536C22.8205 13.8645 20.6976 13.1582 18.5234 12.4347C18.2153 13.2788 17.9585 13.9679 17.6675 14.7775C20.184 14.7775 22.5123 14.7775 24.8577 14.7775Z" fill="#283742"/>
<path d="M39.7297 14.6472C37.1977 14.7131 34.7168 15.2072 32.2358 14.3671C27.6986 12.8188 23.1275 11.4022 18.5564 9.93619C16.8401 9.37614 16.5002 9.54086 15.8205 11.2375C15.5996 11.7646 15.3787 12.3082 15.1748 12.8353C14.2401 15.1743 14.1892 15.2072 11.3513 14.7295C12.5748 11.7975 13.7303 8.88198 14.9878 5.99939C15.4127 5.04401 16.2963 5.14284 17.1629 5.48875C20.1197 6.69121 23.0765 7.87719 26.0333 9.06317C30.2816 10.7763 34.5128 12.4893 38.7611 14.2024C39.101 14.3342 39.4068 14.4989 39.7297 14.6472Z" fill="white"/>
<path d="M25.0836 14.9732C22.7429 14.9732 20.3851 14.9732 17.8379 14.9732C18.1305 14.1326 18.3886 13.4171 18.6984 12.5407C20.9014 13.2919 23.0183 14.0074 25.1352 14.7407C25.118 14.8301 25.1008 14.9016 25.0836 14.9732Z" fill="white"/>
<path d="M15.1038 28.7573C16.7918 28.7573 18.4798 28.7725 20.1678 28.7573C21.1075 28.7421 21.8558 29.0309 21.8906 29.9276C21.9254 30.9004 21.1249 31.1892 20.1504 31.1892C16.6874 31.1892 13.2244 31.1892 9.74401 31.1892C8.8043 31.1892 8.09082 30.9004 8.10822 29.958C8.12562 29.0309 8.8217 28.7573 9.76141 28.7573C11.5538 28.7573 13.3288 28.7573 15.1038 28.7573Z" fill="#283742"/>
<path d="M12.085 25.498C11.194 25.498 10.303 25.5135 9.41198 25.498C8.60665 25.4826 8.14402 25.1119 8.10975 24.3706C8.07548 23.583 8.52098 23.1197 9.39484 23.1042C11.2282 23.0733 13.0445 23.0733 14.8779 23.1042C15.7346 23.1197 16.2487 23.5984 16.2144 24.3552C16.1801 25.1119 15.6318 25.5135 14.7751 25.5135C13.8841 25.498 12.9931 25.498 12.085 25.498Z" fill="#283742"/>
<path d="M42.2139 40.9183C40.009 40.9522 38.1603 39.1543 38.1094 36.9493C38.0586 34.6934 39.8903 32.8276 42.163 32.8106C44.3678 32.8106 46.1995 34.6255 46.2165 36.8305C46.1995 39.0525 44.4187 40.8844 42.2139 40.9183ZM42.4513 38.391C42.7905 37.8991 43.3163 37.4581 43.418 36.9323C43.5707 36.1012 42.994 35.4566 42.163 35.6263C41.6711 35.728 41.0266 36.3386 40.9079 36.8305C40.7044 37.6277 41.298 38.1196 42.4513 38.391Z" fill="#283742"/>
<path d="M42.8474 38.4867C41.7573 38.1714 41.1963 37.6 41.3886 36.674C41.5008 36.1026 42.11 35.3933 42.5748 35.2751C43.3443 35.0781 43.9053 35.8268 43.7611 36.7922C43.6649 37.403 43.168 37.9153 42.8474 38.4867Z" fill="white"/>
</svg>
