<svg width="850" height="381" viewBox="0 0 850 381" fill="none" xmlns="http://www.w3.org/2000/svg">
<rect width="850" height="380" fill="#197E37"/>
<path d="M343.097 251.774C356.567 282.289 365.756 312.027 369.936 342.5H344.19C340.684 313.232 332.901 285.205 320.435 256.964C302.79 216.989 276.997 180.829 244.654 150.479C212.316 120.134 174.052 96.1792 132.104 79.8747C101.784 68.0896 69.9288 60.4523 37.5 57.1241L37.5 39.2719C73.6516 42.6971 109.115 51.0615 142.74 64.1311C187.928 81.6951 228.838 107.382 263.191 139.618C297.54 171.849 324.649 209.982 343.097 251.774Z" stroke="#177633" stroke-opacity="0.7" stroke-width="75"/>
<path d="M483 381C537.386 310.065 686.927 210.757 850 381H483Z" fill="white" fill-opacity="0.1"/>
<path d="M85.632 143.16V150.648H72.096V156.6H82.08V163.752H72.096V177H62.688V143.16H85.632ZM94.3463 147.576C92.6823 147.576 91.3383 147.128 90.3143 146.232C89.3223 145.304 88.8263 144.152 88.8263 142.776C88.8263 141.368 89.3223 140.2 90.3143 139.272C91.3383 138.344 92.6823 137.88 94.3463 137.88C95.9783 137.88 97.2903 138.344 98.2823 139.272C99.3063 140.2 99.8183 141.368 99.8183 142.776C99.8183 144.152 99.3063 145.304 98.2823 146.232C97.2903 147.128 95.9783 147.576 94.3463 147.576ZM99.0023 150.072V177H89.5943V150.072H99.0023ZM113.768 141.48V177H104.36V141.48H113.768ZM123.878 147.576C122.214 147.576 120.87 147.128 119.846 146.232C118.854 145.304 118.358 144.152 118.358 142.776C118.358 141.368 118.854 140.2 119.846 139.272C120.87 138.344 122.214 137.88 123.878 137.88C125.51 137.88 126.822 138.344 127.814 139.272C128.838 140.2 129.35 141.368 129.35 142.776C129.35 144.152 128.838 145.304 127.814 146.232C126.822 147.128 125.51 147.576 123.878 147.576ZM128.534 150.072V177H119.126V150.072H128.534ZM151.507 149.832C154.611 149.832 157.075 150.872 158.899 152.952C160.723 155 161.635 157.784 161.635 161.304V177H152.227V162.552C152.227 161.016 151.827 159.816 151.027 158.952C150.227 158.056 149.155 157.608 147.811 157.608C146.403 157.608 145.299 158.056 144.499 158.952C143.699 159.816 143.299 161.016 143.299 162.552V177H133.891V150.072H143.299V153.912C144.131 152.696 145.251 151.72 146.659 150.984C148.067 150.216 149.683 149.832 151.507 149.832ZM176.733 149.736C178.557 149.736 180.141 150.104 181.485 150.84C182.861 151.576 183.917 152.568 184.653 153.816V150.072H194.061V176.712C194.061 179.24 193.581 181.512 192.621 183.528C191.661 185.576 190.157 187.208 188.109 188.424C186.093 189.64 183.533 190.248 180.429 190.248C176.269 190.248 172.941 189.272 170.445 187.32C167.949 185.368 166.525 182.712 166.173 179.352H175.437C175.629 180.216 176.109 180.888 176.877 181.368C177.645 181.848 178.637 182.088 179.853 182.088C183.053 182.088 184.653 180.296 184.653 176.712V173.256C183.917 174.504 182.861 175.496 181.485 176.232C180.141 176.968 178.557 177.336 176.733 177.336C174.589 177.336 172.637 176.776 170.877 175.656C169.149 174.536 167.773 172.936 166.749 170.856C165.757 168.744 165.261 166.296 165.261 163.512C165.261 160.728 165.757 158.296 166.749 156.216C167.773 154.136 169.149 152.536 170.877 151.416C172.637 150.296 174.589 149.736 176.733 149.736ZM184.653 163.512C184.653 161.784 184.173 160.424 183.213 159.432C182.285 158.44 181.133 157.944 179.757 157.944C178.349 157.944 177.181 158.44 176.253 159.432C175.325 160.392 174.861 161.752 174.861 163.512C174.861 165.24 175.325 166.616 176.253 167.64C177.181 168.632 178.349 169.128 179.757 169.128C181.133 169.128 182.285 168.632 183.213 167.64C184.173 166.648 184.653 165.272 184.653 163.512ZM239.378 143.16L227.474 166.248V177H218.018V166.248L206.114 143.16H216.866L222.818 156.216L228.77 143.16H239.378ZM254.794 177.336C252.106 177.336 249.69 176.776 247.546 175.656C245.434 174.536 243.77 172.936 242.554 170.856C241.338 168.776 240.73 166.328 240.73 163.512C240.73 160.728 241.338 158.296 242.554 156.216C243.802 154.136 245.482 152.536 247.594 151.416C249.738 150.296 252.154 149.736 254.842 149.736C257.53 149.736 259.93 150.296 262.042 151.416C264.186 152.536 265.866 154.136 267.082 156.216C268.33 158.296 268.954 160.728 268.954 163.512C268.954 166.296 268.33 168.744 267.082 170.856C265.866 172.936 264.186 174.536 262.042 175.656C259.898 176.776 257.482 177.336 254.794 177.336ZM254.794 169.176C256.106 169.176 257.194 168.696 258.058 167.736C258.954 166.744 259.402 165.336 259.402 163.512C259.402 161.688 258.954 160.296 258.058 159.336C257.194 158.376 256.122 157.896 254.842 157.896C253.562 157.896 252.49 158.376 251.626 159.336C250.762 160.296 250.33 161.688 250.33 163.512C250.33 165.368 250.746 166.776 251.578 167.736C252.41 168.696 253.482 169.176 254.794 169.176ZM300.334 150.072V177H290.878V173.16C290.078 174.376 288.974 175.368 287.566 176.136C286.158 176.872 284.542 177.24 282.718 177.24C279.582 177.24 277.102 176.216 275.278 174.168C273.486 172.088 272.59 169.272 272.59 165.72V150.072H281.95V164.52C281.95 166.056 282.35 167.272 283.15 168.168C283.982 169.032 285.07 169.464 286.414 169.464C287.79 169.464 288.878 169.032 289.678 168.168C290.478 167.272 290.878 166.056 290.878 164.52V150.072H300.334ZM315.096 154.824C316.152 153.288 317.432 152.072 318.936 151.176C320.44 150.28 322.056 149.832 323.784 149.832V159.864H321.144C319.096 159.864 317.576 160.264 316.584 161.064C315.592 161.864 315.096 163.256 315.096 165.24V177H305.688V150.072H315.096V154.824Z" fill="white"/>
<path d="M71.184 203.304V237H62.976V203.304H71.184ZM93.4523 209.928C96.5883 209.928 99.0843 210.952 100.94 213C102.828 215.016 103.772 217.8 103.772 221.352V237H95.6123V222.456C95.6123 220.664 95.1483 219.272 94.2203 218.28C93.2923 217.288 92.0443 216.792 90.4763 216.792C88.9083 216.792 87.6603 217.288 86.7323 218.28C85.8043 219.272 85.3403 220.664 85.3403 222.456V237H77.1323V210.216H85.3403V213.768C86.1723 212.584 87.2923 211.656 88.7003 210.984C90.1083 210.28 91.6923 209.928 93.4523 209.928ZM107.844 223.608C107.844 220.824 108.404 218.392 109.524 216.312C110.676 214.232 112.26 212.632 114.276 211.512C116.324 210.392 118.66 209.832 121.284 209.832C124.644 209.832 127.444 210.712 129.684 212.472C131.956 214.232 133.444 216.712 134.148 219.912H125.412C124.676 217.864 123.252 216.84 121.14 216.84C119.636 216.84 118.436 217.432 117.54 218.616C116.644 219.768 116.196 221.432 116.196 223.608C116.196 225.784 116.644 227.464 117.54 228.648C118.436 229.8 119.636 230.376 121.14 230.376C123.252 230.376 124.676 229.352 125.412 227.304H134.148C133.444 230.44 131.956 232.904 129.684 234.696C127.412 236.488 124.612 237.384 121.284 237.384C118.66 237.384 116.324 236.824 114.276 235.704C112.26 234.584 110.676 232.984 109.524 230.904C108.404 228.824 107.844 226.392 107.844 223.608ZM150.731 237.384C148.107 237.384 145.739 236.824 143.627 235.704C141.547 234.584 139.899 232.984 138.683 230.904C137.499 228.824 136.907 226.392 136.907 223.608C136.907 220.856 137.515 218.44 138.73 216.36C139.947 214.248 141.611 212.632 143.723 211.512C145.835 210.392 148.203 209.832 150.827 209.832C153.451 209.832 155.819 210.392 157.931 211.512C160.043 212.632 161.707 214.248 162.923 216.36C164.139 218.44 164.747 220.856 164.747 223.608C164.747 226.36 164.123 228.792 162.875 230.904C161.659 232.984 159.979 234.584 157.835 235.704C155.723 236.824 153.355 237.384 150.731 237.384ZM150.731 230.28C152.299 230.28 153.627 229.704 154.715 228.552C155.835 227.4 156.395 225.752 156.395 223.608C156.395 221.464 155.851 219.816 154.763 218.664C153.707 217.512 152.395 216.936 150.827 216.936C149.227 216.936 147.899 217.512 146.843 218.664C145.787 219.784 145.259 221.432 145.259 223.608C145.259 225.752 145.771 227.4 146.795 228.552C147.851 229.704 149.163 230.28 150.731 230.28ZM203.277 209.928C206.605 209.928 209.245 210.936 211.197 212.952C213.181 214.968 214.173 217.768 214.173 221.352V237H206.013V222.456C206.013 220.728 205.549 219.4 204.621 218.472C203.725 217.512 202.477 217.032 200.877 217.032C199.277 217.032 198.013 217.512 197.085 218.472C196.189 219.4 195.741 220.728 195.741 222.456V237H187.581V222.456C187.581 220.728 187.117 219.4 186.189 218.472C185.293 217.512 184.045 217.032 182.445 217.032C180.845 217.032 179.581 217.512 178.653 218.472C177.757 219.4 177.309 220.728 177.309 222.456V237H169.101V210.216H177.309V213.576C178.141 212.456 179.229 211.576 180.573 210.936C181.917 210.264 183.437 209.928 185.133 209.928C187.149 209.928 188.941 210.36 190.509 211.224C192.109 212.088 193.357 213.32 194.253 214.92C195.181 213.448 196.445 212.248 198.045 211.32C199.645 210.392 201.389 209.928 203.277 209.928ZM245.161 223.176C245.161 223.944 245.114 224.744 245.018 225.576H226.442C226.57 227.24 227.098 228.52 228.026 229.416C228.986 230.28 230.154 230.712 231.53 230.712C233.578 230.712 235.002 229.848 235.802 228.12H244.538C244.09 229.88 243.274 231.464 242.09 232.872C240.938 234.28 239.482 235.384 237.722 236.184C235.962 236.984 233.994 237.384 231.818 237.384C229.194 237.384 226.858 236.824 224.81 235.704C222.762 234.584 221.162 232.984 220.01 230.904C218.858 228.824 218.282 226.392 218.282 223.608C218.282 220.824 218.842 218.392 219.962 216.312C221.114 214.232 222.714 212.632 224.762 211.512C226.81 210.392 229.162 209.832 231.818 209.832C234.41 209.832 236.714 210.376 238.73 211.464C240.746 212.552 242.314 214.104 243.434 216.12C244.586 218.136 245.161 220.488 245.161 223.176ZM236.762 221.016C236.762 219.608 236.282 218.488 235.322 217.656C234.362 216.824 233.162 216.408 231.722 216.408C230.346 216.408 229.178 216.808 228.218 217.608C227.29 218.408 226.714 219.544 226.49 221.016H236.762ZM283.904 203.304V209.88H274.976V237H266.768V209.88H257.84V203.304H283.904ZM286.391 223.56C286.391 220.808 286.903 218.392 287.927 216.312C288.983 214.232 290.407 212.632 292.199 211.512C293.991 210.392 295.991 209.832 298.199 209.832C300.087 209.832 301.735 210.216 303.143 210.984C304.583 211.752 305.687 212.76 306.455 214.008V210.216H314.663V237H306.455V233.208C305.655 234.456 304.535 235.464 303.095 236.232C301.687 237 300.039 237.384 298.151 237.384C295.975 237.384 293.991 236.824 292.199 235.704C290.407 234.552 288.983 232.936 287.927 230.856C286.903 228.744 286.391 226.312 286.391 223.56ZM306.455 223.608C306.455 221.56 305.879 219.944 304.727 218.76C303.607 217.576 302.231 216.984 300.599 216.984C298.967 216.984 297.575 217.576 296.423 218.76C295.303 219.912 294.743 221.512 294.743 223.56C294.743 225.608 295.303 227.24 296.423 228.456C297.575 229.64 298.967 230.232 300.599 230.232C302.231 230.232 303.607 229.64 304.727 228.456C305.879 227.272 306.455 225.656 306.455 223.608ZM336.441 237L331.305 229.56L326.985 237H318.105L326.937 223.32L317.865 210.216H327.081L332.217 217.608L336.537 210.216H345.417L336.441 223.704L345.657 237H336.441ZM376.176 237L369.168 224.28H367.2V237H358.992V203.304H372.768C375.424 203.304 377.68 203.768 379.536 204.696C381.424 205.624 382.832 206.904 383.76 208.536C384.688 210.136 385.152 211.928 385.152 213.912C385.152 216.152 384.512 218.152 383.232 219.912C381.984 221.672 380.128 222.92 377.664 223.656L385.44 237H376.176ZM367.2 218.472H372.288C373.792 218.472 374.912 218.104 375.648 217.368C376.416 216.632 376.8 215.592 376.8 214.248C376.8 212.968 376.416 211.96 375.648 211.224C374.912 210.488 373.792 210.12 372.288 210.12H367.2V218.472ZM415.552 223.176C415.552 223.944 415.504 224.744 415.408 225.576H396.832C396.96 227.24 397.488 228.52 398.416 229.416C399.376 230.28 400.544 230.712 401.92 230.712C403.968 230.712 405.392 229.848 406.192 228.12H414.928C414.48 229.88 413.664 231.464 412.48 232.872C411.328 234.28 409.872 235.384 408.112 236.184C406.352 236.984 404.384 237.384 402.208 237.384C399.584 237.384 397.248 236.824 395.2 235.704C393.152 234.584 391.552 232.984 390.4 230.904C389.248 228.824 388.672 226.392 388.672 223.608C388.672 220.824 389.232 218.392 390.352 216.312C391.504 214.232 393.104 212.632 395.152 211.512C397.2 210.392 399.552 209.832 402.208 209.832C404.8 209.832 407.104 210.376 409.12 211.464C411.136 212.552 412.704 214.104 413.824 216.12C414.976 218.136 415.552 220.488 415.552 223.176ZM407.152 221.016C407.152 219.608 406.672 218.488 405.712 217.656C404.752 216.824 403.552 216.408 402.112 216.408C400.736 216.408 399.568 216.808 398.608 217.608C397.68 218.408 397.104 219.544 396.88 221.016H407.152ZM434.81 230.04V237H430.634C427.658 237 425.338 236.28 423.674 234.84C422.01 233.368 421.178 230.984 421.178 227.688V217.032H417.914V210.216H421.178V203.688H429.386V210.216H434.762V217.032H429.386V227.784C429.386 228.584 429.578 229.16 429.962 229.512C430.346 229.864 430.986 230.04 431.882 230.04H434.81ZM465.83 210.216V237H457.622V233.352C456.79 234.536 455.654 235.496 454.214 236.232C452.806 236.936 451.238 237.288 449.51 237.288C447.462 237.288 445.654 236.84 444.086 235.944C442.518 235.016 441.302 233.688 440.438 231.96C439.574 230.232 439.142 228.2 439.142 225.864V210.216H447.302V224.76C447.302 226.552 447.766 227.944 448.694 228.936C449.622 229.928 450.87 230.424 452.438 230.424C454.038 230.424 455.302 229.928 456.23 228.936C457.158 227.944 457.622 226.552 457.622 224.76V210.216H465.83ZM479.934 214.68C480.894 213.208 482.094 212.056 483.534 211.224C484.974 210.36 486.574 209.928 488.334 209.928V218.616H486.078C484.03 218.616 482.494 219.064 481.47 219.96C480.446 220.824 479.934 222.36 479.934 224.568V237H471.726V210.216H479.934V214.68ZM508.577 209.928C511.713 209.928 514.209 210.952 516.065 213C517.953 215.016 518.897 217.8 518.897 221.352V237H510.737V222.456C510.737 220.664 510.273 219.272 509.345 218.28C508.417 217.288 507.169 216.792 505.601 216.792C504.033 216.792 502.785 217.288 501.857 218.28C500.929 219.272 500.465 220.664 500.465 222.456V237H492.257V210.216H500.465V213.768C501.297 212.584 502.417 211.656 503.825 210.984C505.233 210.28 506.817 209.928 508.577 209.928Z" fill="#78F758"/>
<g opacity="0.05" clip-path="url(#clip0_412_391)">
<path d="M804.748 217.26L826.268 220.568L829.57 199.013L808.05 195.706L804.748 217.26Z" fill="#FF5F2F"/>
<path d="M554.657 345.646C628.307 291.117 655.403 12.1952 604.916 14.2999C554.429 16.4046 548.163 240.467 666.668 235.527C762.086 231.548 750.265 82.8145 722.214 83.9839C694.164 85.1533 685.881 252.794 788.885 220.224" stroke="#FBE4FF" stroke-width="4" stroke-miterlimit="10"/>
</g>
<g clip-path="url(#clip1_412_391)">
<path d="M710.395 209.719C735.526 188.205 743.046 148.669 725.803 123.293C715.898 108.766 700.673 102.882 693.152 100.676C690.034 96.0785 682.146 85.9648 668.755 82.2872C645.459 75.8512 625.097 94.4235 622.346 96.9979C595.564 121.638 585.475 181.769 621.979 211.006C645.826 230.13 684.53 231.969 710.395 209.719Z" fill="#002D53"/>
<path d="M678.11 173.862H649.311V209.535H678.11V173.862Z" fill="#FFB3AE"/>
<path d="M678.11 173.862V190.963C662.885 192.066 654.263 190.043 649.311 187.101V173.862H678.11Z" fill="#FF7A72"/>
<path d="M706.726 152.531C703.975 159.886 697.371 164.116 691.868 162.093C686.365 160.07 684.164 152.347 686.915 144.992C689.667 137.636 696.27 133.407 701.773 135.43C707.276 137.452 709.478 145.176 706.726 152.531Z" fill="#FFB3AE"/>
<path d="M625.464 152.531C628.215 159.886 634.819 164.116 640.322 162.093C645.825 160.07 648.026 152.347 645.275 144.992C642.523 137.636 635.92 133.407 630.417 135.43C625.097 137.452 622.896 145.176 625.464 152.531Z" fill="#FFB3AE"/>
<path d="M692.968 145.727C697.554 158.415 683.063 183.975 664.352 183.975C648.577 183.975 635.736 166.874 635.736 145.727C635.736 122.742 658.849 104.721 664.352 107.479C666.554 108.583 664.719 112.444 666.737 119.064C671.506 134.51 688.933 134.694 692.968 145.727Z" fill="#FFB3AE"/>
<path d="M744.697 309.568H580.339V277.388C580.339 231.969 617.026 195.008 662.518 195.008C707.827 195.008 744.697 231.969 744.697 277.388V309.568Z" fill="#FFB042"/>
<path d="M769.277 258.265H723.969V309.936H769.277V258.265Z" fill="#3D71F2"/>
<path d="M783.585 284.376C783.585 288.789 779.917 292.467 775.514 292.467C772.946 292.467 770.745 291.364 769.277 289.525V300.558C771.295 301.293 773.313 301.661 775.514 301.661C785.053 301.661 792.757 293.938 792.757 284.376C792.757 274.814 785.053 267.091 775.514 267.091C773.313 267.091 771.112 267.459 769.277 268.194V279.227C770.745 277.388 772.946 276.285 775.514 276.285C779.917 276.101 783.585 279.779 783.585 284.376Z" fill="#3D71F2"/>
<path d="M802.112 309.936H526.225V323.911H802.112V309.936Z" fill="#D18C7E"/>
<path d="M573.551 278.124C572.634 253.667 573.001 222.775 581.072 220.936C581.439 220.936 582.356 220.752 583.273 221.12C589.877 224.614 582.356 252.196 573.551 278.124Z" fill="#40C1B0"/>
<path d="M573.551 278.124C561.628 257.161 555.758 253.3 552.823 254.219C551.723 254.587 550.805 255.69 550.622 256.61C548.604 263.413 568.232 275.182 573.551 278.124Z" fill="#40C1B0"/>
<path d="M573.551 278.124C573.551 278.124 584.741 245.944 592.445 247.783C600.149 249.806 573.551 278.124 573.551 278.124Z" fill="#40C1B0"/>
<path d="M556.125 309.568H586.575L589.327 272.056H553.374L556.125 309.568Z" fill="#FF828A"/>
<path d="M725.252 303.132C725.252 306.994 722.134 310.12 718.282 310.12H606.57C602.718 310.12 599.599 306.994 599.599 303.132V233.256C599.599 229.395 602.718 226.269 606.57 226.269H718.282C722.134 226.269 725.252 229.395 725.252 233.256V303.132Z" fill="white"/>
<path d="M662.517 280.515C667.887 280.515 672.24 276.151 672.24 270.769C672.24 265.386 667.887 261.023 662.517 261.023C657.148 261.023 652.795 265.386 652.795 270.769C652.795 276.151 657.148 280.515 662.517 280.515Z" fill="#DFEAF7"/>
</g>
<defs>
<clipPath id="clip0_412_391">
<rect width="289" height="340" fill="white" transform="translate(541 7)"/>
</clipPath>
<clipPath id="clip1_412_391">
<rect width="299" height="267" fill="white" transform="translate(511 81)"/>
</clipPath>
</defs>
</svg>
