<svg width="23" height="23" viewBox="0 0 23 23" fill="none" xmlns="http://www.w3.org/2000/svg">
<path fill-rule="evenodd" clip-rule="evenodd" d="M5.478 0.243C6.925 0.023 8.768 0 11.1 0C13.432 0 15.274 0.023 16.72 0.243C18.194 0.468 19.38 0.913 20.319 1.847L20.338 1.867C21.271 2.804 21.718 3.989 21.944 5.463C22.166 6.91 22.19 8.752 22.19 11.085C22.19 13.418 22.166 15.26 21.944 16.707C21.718 18.181 21.271 19.367 20.338 20.304L20.318 20.323C19.38 21.257 18.194 21.703 16.721 21.927C15.274 22.147 13.432 22.17 11.1 22.17C8.767 22.17 6.925 22.147 5.479 21.927C4.005 21.702 2.819 21.257 1.881 20.323L1.861 20.303C0.93 19.367 0.480003 18.183 0.251003 16.709C0.0260033 15.261 0 13.419 0 11.085C0 8.751 0.026 6.909 0.25 5.461C0.48 3.987 0.930003 2.803 1.862 1.866L1.881 1.847C2.819 0.913 4.005 0.467 5.478 0.243V0.243ZM5.78 2.22C4.538 2.41 3.817 2.742 3.292 3.265L3.279 3.277C2.755 3.804 2.419 4.527 2.227 5.767C2.031 7.036 2 8.719 2 11.085C2 13.451 2.03 15.135 2.227 16.402C2.42 17.644 2.755 18.366 3.279 18.892L3.292 18.906C3.817 19.428 4.537 19.76 5.78 19.95C7.049 20.143 8.732 20.17 11.1 20.17C13.467 20.17 15.15 20.143 16.42 19.95C17.662 19.76 18.382 19.428 18.907 18.906L18.92 18.893C19.443 18.367 19.777 17.646 19.967 16.404C20.162 15.135 20.19 13.452 20.19 11.085C20.19 8.718 20.162 7.035 19.967 5.766C19.777 4.524 19.443 3.803 18.92 3.277L18.907 3.265C18.382 2.742 17.662 2.41 16.42 2.22C15.15 2.027 13.467 2 11.1 2C8.732 2 7.049 2.027 5.78 2.22V2.22ZM5.498 11.085C5.498 9.59926 6.08821 8.17437 7.13879 7.12379C8.18937 6.07321 9.61426 5.483 11.1 5.483C12.5857 5.483 14.0106 6.07321 15.0612 7.12379C16.1118 8.17437 16.702 9.59926 16.702 11.085C16.702 12.5707 16.1118 13.9956 15.0612 15.0462C14.0106 16.0968 12.5857 16.687 11.1 16.687C9.61426 16.687 8.18937 16.0968 7.13879 15.0462C6.08821 13.9956 5.498 12.5707 5.498 11.085V11.085ZM11.1 7.483C10.627 7.483 10.1586 7.57617 9.72158 7.75719C9.28456 7.9382 8.88748 8.20353 8.553 8.538C8.21852 8.87248 7.9532 9.26956 7.77219 9.70657C7.59117 10.1436 7.498 10.612 7.498 11.085C7.498 11.558 7.59117 12.0264 7.77219 12.4634C7.9532 12.9004 8.21852 13.2975 8.553 13.632C8.88748 13.9665 9.28456 14.2318 9.72158 14.4128C10.1586 14.5938 10.627 14.687 11.1 14.687C12.0553 14.687 12.9715 14.3075 13.647 13.632C14.3225 12.9565 14.702 12.0403 14.702 11.085C14.702 10.1297 14.3225 9.21351 13.647 8.538C12.9715 7.8625 12.0553 7.483 11.1 7.483V7.483Z" fill="white"/>
<path d="M16.6646 4.3916C16.4138 4.64233 16.2729 4.98241 16.2729 5.337C16.2729 5.6916 16.4138 6.03167 16.6646 6.2824C16.9153 6.53314 17.2554 6.674 17.6099 6.674C17.9645 6.674 18.3046 6.53314 18.5554 6.2824C18.8061 6.03167 18.947 5.6916 18.947 5.337C18.947 4.98241 18.8061 4.64233 18.5554 4.3916C18.3046 4.14086 17.9645 4 17.6099 4C17.2554 4 16.9153 4.14086 16.6646 4.3916Z" fill="white"/>
</svg>
