<svg width="330" height="43" viewBox="0 0 330 43" fill="none" xmlns="http://www.w3.org/2000/svg">
<g clip-path="url(#clip0_364_30)">
<path d="M18.0033 26.1439C17.4632 26.3159 16.5631 26.4879 15.8429 26.4879C14.9428 26.4879 14.0426 26.3159 13.3225 26.1439C12.6024 25.7999 12.0623 25.4559 11.8822 25.1119C11.7022 24.9399 11.5222 24.5959 11.3421 24.2519C11.3421 24.0799 11.1621 23.9079 10.9821 23.7359C10.802 23.5639 10.622 23.5639 10.442 23.5639L7.56144 23.7359C7.38141 23.7359 7.38141 23.7359 7.20137 23.7359L7.02134 23.9079L6.84131 24.0799C6.84131 24.2519 6.84131 24.2519 6.84131 24.4239C7.02134 25.2839 7.38141 26.1439 7.92151 26.8319C8.64164 27.6919 9.72183 28.5519 11.1621 28.8959C12.4223 29.4119 14.0426 29.5839 16.023 29.5839C17.4632 29.5839 18.9035 29.4119 20.1637 28.8959C21.424 28.3799 22.5042 27.8639 23.0443 27.0039C23.7644 26.1439 24.1244 25.2839 24.1244 24.2519C24.1244 23.2199 23.7644 22.3599 23.2243 21.6719C22.5042 20.9839 21.604 20.2959 20.3438 19.7799C19.4436 19.4359 18.0033 19.0919 15.8429 18.7479C13.1425 18.2319 12.6024 17.8879 12.4223 17.8879C12.0623 17.7159 12.0623 17.5439 12.0623 17.1999C12.0623 17.0279 12.0623 16.6839 12.7824 16.1679C13.1425 15.9959 13.8626 15.6519 15.4829 15.6519C16.7431 15.6519 17.6433 15.8239 18.1834 16.1679C18.5434 16.3399 18.9035 16.6839 18.9035 17.1999C18.9035 17.3719 19.0835 17.5439 19.2636 17.7159C19.4436 17.8879 19.6236 17.8879 19.8037 17.8879L22.8642 17.7159C23.0443 17.7159 23.0443 17.7159 23.2243 17.7159C23.4043 17.7159 23.4043 17.5439 23.4043 17.5439C23.4043 17.5439 23.5844 17.3719 23.5844 17.1999C23.5844 17.0279 23.5844 17.0279 23.5844 16.8559C23.4043 16.1679 23.0443 15.4799 22.5042 14.7919C21.784 13.9319 20.8839 13.2439 19.4436 12.8999C18.1834 12.5559 16.7431 12.2119 15.3028 12.2119C13.8626 12.2119 12.6024 12.3839 11.3421 12.7279C10.0819 13.5879 9.18173 14.1039 8.4616 14.9639C7.74147 15.8239 7.38141 16.6839 7.38141 17.5439C7.38141 18.4039 7.74147 19.2639 8.28157 19.7799C8.82167 20.4679 9.72183 20.9839 10.802 21.4999C11.5222 21.8439 12.9624 22.1879 14.7627 22.5319C16.9231 22.8759 17.6433 23.2199 18.0033 23.2199C18.5434 23.3919 19.0835 23.5639 19.2636 23.9079C19.4436 24.0799 19.4436 24.0799 19.4436 24.2519C19.4436 24.4239 19.4436 24.5959 19.4436 24.5959C19.4436 24.9399 19.2636 25.1119 19.0835 25.4559C18.9035 25.6279 18.5434 25.9719 18.0033 26.1439Z" fill="#555555"/>
<path d="M3.42062 13.072H0.540098C0.360065 13.072 0 13.416 0 13.76V28.724C0 28.896 0.360065 29.24 0.540098 29.24H3.24059C3.60065 29.24 3.78069 28.896 3.78069 28.724V13.76C3.96072 13.416 3.78069 13.072 3.42062 13.072Z" fill="#555555"/>
<path d="M44.288 21.1559C44.288 19.6079 43.9279 18.0599 43.2078 16.6839C42.4877 15.3079 41.4075 14.2759 39.7872 13.5879C38.3469 12.8999 36.7266 12.5559 34.9263 12.5559C32.2258 12.5559 29.8854 13.4159 28.2651 14.9639C26.4648 16.5119 25.7446 18.7479 25.7446 21.3279C25.7446 22.7039 26.1047 24.2519 26.8248 25.4559C27.545 26.8319 28.6252 27.8639 30.0654 28.5519C31.5057 29.2399 33.126 29.7559 34.9263 29.7559C36.5466 29.7559 38.1669 29.4119 39.6071 28.7239C41.0474 28.0359 42.3076 27.0039 43.0278 25.6279C43.7479 24.4239 44.288 22.8759 44.288 21.1559ZM38.527 25.1119C37.6268 25.9719 36.3666 26.4879 34.9263 26.4879C33.486 26.4879 32.2258 26.1439 31.3256 25.1119C30.4255 24.2519 29.8854 23.0479 29.8854 21.3279C29.8854 19.2639 30.4255 17.8879 31.3256 17.0279C32.4058 16.1679 33.486 15.8239 34.9263 15.8239C35.8265 15.8239 36.7266 15.9959 37.6268 16.5119C38.3469 16.8559 39.067 17.5439 39.4271 18.2319C39.7872 19.0919 40.1472 19.9519 40.1472 21.1559C39.9672 22.8759 39.4271 24.2519 38.527 25.1119Z" fill="#555555"/>
<path d="M2.52057 11.524C2.7006 11.696 2.88063 11.696 3.06067 11.524C3.2407 11.352 3.60076 11.352 3.60076 11.18C4.50093 9.632 5.76116 8.256 7.02139 7.052C8.82171 7.74 10.622 8.428 12.6024 8.944C12.4224 9.46 12.2423 10.148 12.0623 10.664C12.0623 10.836 12.0623 11.008 12.0623 11.18C12.2423 11.352 12.4224 11.524 12.6024 11.524C12.7824 11.524 12.9625 11.524 13.1425 11.524C13.3225 11.352 13.5026 11.18 13.5026 11.008C13.6826 10.32 13.8626 9.804 14.0427 9.288C16.3831 9.804 18.7235 9.976 21.0639 9.976C23.4044 9.976 25.7448 9.804 28.0852 9.288C28.2652 9.804 28.4453 10.492 28.6253 11.008C28.6253 11.18 28.8053 11.352 28.9854 11.352C29.1654 11.524 29.3454 11.524 29.5255 11.524H29.7055C29.8855 11.524 30.0656 11.352 30.2456 11.18C30.4256 11.008 30.4256 10.836 30.2456 10.664C30.0656 10.148 29.8855 9.46 29.7055 8.944C31.6859 8.428 33.4862 7.912 35.2865 7.052C36.5468 8.256 37.807 9.632 38.7071 11.18C38.7071 11.352 38.8872 11.352 38.8872 11.352C38.8872 11.352 39.0672 11.524 39.2472 11.524C39.4273 11.524 39.4273 11.524 39.6073 11.524C39.7873 11.524 39.7873 11.524 39.9674 11.352C40.1474 11.352 40.1474 11.18 40.1474 11.18C40.1474 11.18 40.3274 11.008 40.3274 10.836C40.3274 10.664 40.3274 10.664 40.3274 10.492C40.3274 10.32 40.3274 10.32 40.1474 10.148C39.0672 8.428 37.6269 6.708 36.0067 5.332C32.226 2.064 26.825 0 21.244 0C15.663 0 10.442 2.064 6.30125 5.504C4.68096 7.052 3.42073 8.6 2.1605 10.492C2.1605 10.664 1.98047 10.664 1.98047 10.836C1.98047 11.008 1.98047 11.008 1.98047 11.18C1.98047 11.352 1.98047 11.352 2.1605 11.524C2.34053 11.352 2.34053 11.524 2.52057 11.524ZM14.7628 7.74C16.3831 3.784 18.7235 1.548 21.244 1.548C23.7644 1.548 26.1049 3.784 27.7251 7.74C23.4044 8.6 19.0836 8.6 14.7628 7.74ZM34.2063 6.02C32.586 6.708 31.1458 7.052 29.5255 7.568C28.4453 5.16 27.185 3.44 25.9248 2.064C28.9854 2.752 31.6859 4.128 34.2063 6.02ZM16.5631 2.064C15.3029 3.44 14.0427 5.16 13.1425 7.396C11.5222 7.052 9.90191 6.536 8.46165 6.02C10.8021 4.128 13.6826 2.752 16.5631 2.064Z" fill="#555555"/>
<path d="M39.967 30.7881C39.787 30.7881 39.787 30.6161 39.607 30.6161C39.4269 30.6161 39.4269 30.6161 39.2469 30.6161C39.0669 30.6161 39.0669 30.6161 38.8868 30.7881L38.7068 30.9601C37.8066 32.5081 36.5464 33.8841 35.2862 35.0881C33.4859 34.4001 31.6855 33.7121 29.7052 33.1961C29.8852 32.6801 30.0652 31.9921 30.2453 31.4761C30.2453 31.3041 30.2453 31.3041 30.2453 31.1321C30.2453 30.9601 30.2453 30.9601 30.0652 30.7881C30.0652 30.6161 29.8852 30.6161 29.8852 30.6161C29.8852 30.6161 29.7052 30.4441 29.5251 30.4441C29.3451 30.4441 29.3451 30.4441 29.1651 30.4441C28.985 30.4441 28.985 30.4441 28.805 30.6161C28.625 30.6161 28.625 30.7881 28.625 30.7881C28.625 30.7881 28.4449 30.9601 28.4449 31.1321C28.2649 31.8201 28.0849 32.3361 27.9048 32.8521C23.224 31.9921 18.3631 31.9921 13.8623 32.8521C13.6823 32.3361 13.5022 31.6481 13.3222 31.1321C13.3222 30.9601 13.1422 30.7881 12.9621 30.6161C12.7821 30.4441 12.6021 30.4441 12.422 30.6161C12.242 30.6161 12.062 30.7881 11.8819 30.9601C11.7019 31.1321 11.7019 31.3041 11.8819 31.4761C12.062 31.9921 12.242 32.6801 12.422 33.1961C10.4417 33.7121 8.64133 34.2281 6.84101 35.0881C5.76081 34.0561 4.50058 32.6801 3.60042 31.1321C3.60042 30.9601 3.60042 30.9601 3.42039 30.9601C3.42039 30.9601 3.24035 30.7881 3.06032 30.7881C2.88029 30.7881 2.88029 30.7881 2.70025 30.7881C2.52022 30.7881 2.52022 30.7881 2.34019 30.9601C2.34019 30.9601 2.52022 30.9601 2.34019 30.9601C2.34019 30.9601 2.16016 31.1321 2.16016 31.3041C2.16016 31.4761 2.16016 31.4761 2.16016 31.6481C2.16016 31.8201 2.16016 31.8201 2.34019 31.9921C4.32055 35.0881 7.02104 37.8401 10.4417 39.5601C13.8623 41.4521 17.643 42.3121 21.4237 42.3121C25.2043 42.3121 28.985 41.2801 32.4057 39.5601C35.8263 37.6681 38.5268 35.0881 40.5071 31.9921C40.5071 31.8201 40.6872 31.8201 40.6872 31.6481C40.6872 31.4761 40.6872 31.4761 40.6872 31.3041C40.6872 31.1321 40.6872 31.1321 40.5071 30.9601C40.1471 30.9601 40.1471 30.9601 39.967 30.7881ZM27.7248 34.5721C26.1045 38.5281 23.7641 40.7641 21.2436 40.7641C18.7232 40.7641 16.3827 38.5281 14.7624 34.5721C19.0832 33.7121 23.404 33.7121 27.7248 34.5721ZM8.4613 36.4641C10.0816 35.7761 11.5219 35.4321 13.1422 34.9161C14.0423 37.1521 15.3025 39.0441 16.5628 40.2481C13.6823 39.5601 10.8017 38.1841 8.4613 36.4641ZM25.9245 40.2481C27.1847 39.0441 28.4449 37.1521 29.3451 34.9161C30.9654 35.2601 32.5857 35.7761 34.0259 36.4641C31.6855 38.1841 28.985 39.5601 25.9245 40.2481Z" fill="#555555"/>
<path d="M54.5498 21.156H63.0113V19.264H58.1505L59.9508 17.716C62.2912 15.652 63.0113 14.62 63.0113 13.244C63.0113 11.352 61.3911 9.97596 58.8706 9.97596C56.3501 9.97596 54.7298 11.352 54.7298 13.588H57.0703C57.0703 12.556 57.7904 11.868 58.8706 11.868C59.9508 11.868 60.6709 12.556 60.6709 13.416C60.6709 14.276 60.1308 14.964 59.0506 15.996L54.9099 19.78V21.156H54.5498ZM65.3518 21.156H67.8722L72.7331 11.868V9.97596H64.4516V11.868H70.2127L65.3518 21.156ZM79.0343 21.5C81.9148 21.5 83.7151 19.264 83.7151 15.652C83.7151 12.04 81.9148 9.80396 79.0343 9.80396C76.1537 9.80396 74.3534 11.868 74.3534 15.652C74.1734 19.264 75.9737 21.328 79.0343 21.5ZM79.0343 19.436C77.594 19.436 76.8739 18.06 76.8739 15.48C76.8739 12.9 77.774 11.696 79.0343 11.696C80.2945 11.696 81.1946 12.9 81.1946 15.48C81.1946 18.06 80.2945 19.436 79.0343 19.436ZM90.3763 21.5C93.2568 21.5 95.0572 19.264 95.0572 15.652C95.0572 12.04 93.2568 9.80396 90.3763 9.80396C87.4958 9.80396 85.6955 11.868 85.6955 15.652C85.5154 19.264 87.3158 21.328 90.3763 21.5ZM90.3763 19.436C88.9361 19.436 88.2159 18.06 88.2159 15.48C88.2159 12.9 89.1161 11.696 90.3763 11.696C91.6366 11.696 92.5367 12.9 92.5367 15.48C92.5367 18.06 91.6366 19.436 90.3763 19.436ZM102.078 9.97596H99.738L96.8575 11.696V13.76L99.558 12.212V21.156H102.078V9.97596ZM106.579 14.276C107.299 14.276 108.02 13.76 108.02 13.072C108.02 12.384 107.299 11.696 106.579 11.696C105.859 11.696 105.139 12.212 105.139 13.072C105.139 13.76 105.859 14.276 106.579 14.276ZM106.579 19.78C107.299 19.78 108.02 19.264 108.02 18.404C108.02 17.716 107.299 17.028 106.579 17.028C105.859 17.028 105.139 17.544 105.139 18.404C105.139 19.264 105.859 19.78 106.579 19.78ZM110.18 21.156H118.641V19.264H113.781L115.581 17.716C117.921 15.652 118.641 14.62 118.641 13.244C118.641 11.352 117.021 9.97596 114.501 9.97596C111.98 9.97596 110.36 11.352 110.36 13.588H112.7C112.7 12.556 113.421 11.868 114.501 11.868C115.581 11.868 116.301 12.556 116.301 13.416C116.301 14.276 115.761 14.964 114.681 15.996L110.54 19.78V21.156H110.18ZM125.123 21.5C128.003 21.5 129.803 19.264 129.803 15.652C129.803 12.04 128.003 9.80396 125.123 9.80396C122.242 9.80396 120.442 11.868 120.442 15.652C120.262 19.264 122.062 21.328 125.123 21.5ZM125.123 19.436C123.682 19.436 122.962 18.06 122.962 15.48C122.962 12.9 123.862 11.696 125.123 11.696C126.383 11.696 127.283 12.9 127.283 15.48C127.283 18.06 126.383 19.436 125.123 19.436ZM137.005 9.97596H134.664L131.784 11.696V13.76L134.484 12.212V21.156H137.005V9.97596ZM144.206 21.328C146.907 21.328 148.707 19.952 148.707 18.06C148.707 16.684 147.807 15.652 146.006 15.48V15.308C147.267 15.136 148.167 14.276 148.167 12.9C148.167 11.18 146.547 9.80396 144.026 9.80396C141.686 9.80396 139.705 11.18 139.705 13.072H142.046C142.046 12.212 142.946 11.696 143.846 11.696C144.926 11.696 145.466 12.212 145.466 13.072C145.466 13.932 144.746 14.62 143.486 14.62H142.406V16.34H144.026C145.286 16.34 146.186 17.028 146.186 17.888C146.186 18.748 145.466 19.436 144.206 19.436C143.126 19.436 142.226 18.92 142.226 18.06H139.705C139.885 19.952 141.686 21.328 144.206 21.328Z" fill="black"/>
<path d="M61.031 29.7559C60.851 28.3799 59.5907 27.3479 57.9704 27.3479C55.9901 27.3479 54.5498 28.8959 54.5498 31.1319C54.5498 33.5399 55.9901 34.9159 57.9704 34.9159C59.5907 34.9159 60.851 33.8839 61.031 32.5079H60.3109C60.1308 33.5399 59.2307 34.2279 57.9704 34.2279C56.5302 34.2279 55.2699 33.0239 55.2699 30.9599C55.2699 28.8959 56.5302 27.6919 57.9704 27.6919C59.2307 27.6919 60.1308 28.5519 60.3109 29.4119H61.031V29.7559ZM64.9917 35.0879C66.2519 35.0879 66.9721 34.3999 67.1521 33.7119L66.612 33.5399C66.432 34.0559 65.8919 34.3999 64.9917 34.3999C63.7315 34.3999 63.0113 33.5399 63.0113 32.3359H67.3321V31.9919C67.3321 30.0999 66.0719 29.2399 64.8117 29.2399C63.3714 29.2399 62.2912 30.4439 62.2912 32.1639C62.2912 33.8839 63.3714 35.0879 64.9917 35.0879ZM63.0113 31.6479C63.0113 30.6159 63.9115 29.7559 64.9917 29.7559C66.0719 29.7559 66.792 30.6159 66.792 31.6479H63.0113ZM69.1325 34.9159H69.8526V31.3039C69.8526 30.4439 70.5727 29.9279 71.4729 29.9279C71.6529 29.9279 71.833 29.9279 71.833 29.9279V29.2399C71.6529 29.2399 71.6529 29.2399 71.4729 29.2399C70.7528 29.2399 70.0326 29.5839 69.8526 30.2719V29.2399H69.1325V34.9159ZM75.7937 29.2399H74.5334V27.8639H73.8133V29.2399H72.9131V29.7559H73.8133V33.5399C73.8133 34.3999 74.5334 34.9159 75.2536 34.9159C75.6136 34.9159 75.7937 34.9159 75.7937 34.7439V34.3999C75.6136 34.3999 75.6136 34.3999 75.4336 34.3999C74.8935 34.3999 74.5334 34.2279 74.5334 33.5399V29.9279H75.7937V29.2399ZM77.414 34.9159H78.1341V29.2399H77.414V34.9159ZM77.774 28.3799C78.1341 28.3799 78.3141 28.2079 78.3141 27.8639C78.3141 27.6919 78.1341 27.3479 77.774 27.3479C77.414 27.3479 77.2339 27.5199 77.2339 27.8639C77.2339 28.0359 77.414 28.3799 77.774 28.3799ZM82.4549 29.2399H81.0146V28.5519C81.0146 28.0359 81.3747 27.6919 81.9148 27.6919C82.0948 27.6919 82.2748 27.6919 82.4549 27.6919L82.6349 27.1759C82.4549 27.1759 82.2748 27.0039 81.9148 27.0039C81.1946 27.0039 80.2945 27.5199 80.2945 28.3799V29.2399H79.3943V29.7559H80.2945V34.7439H81.0146V29.7559H82.2748V29.2399H82.4549ZM83.8951 34.9159H84.6153V29.2399H83.8951V34.9159ZM84.2552 28.3799C84.6153 28.3799 84.7953 28.2079 84.7953 27.8639C84.7953 27.6919 84.6153 27.3479 84.2552 27.3479C83.8951 27.3479 83.7151 27.5199 83.7151 27.8639C83.7151 28.0359 83.8951 28.3799 84.2552 28.3799ZM88.9361 35.0879C90.1963 35.0879 90.9164 34.3999 91.0964 33.7119L90.3763 33.5399C90.1963 34.0559 89.6562 34.3999 88.756 34.3999C87.4958 34.3999 86.7757 33.5399 86.7757 32.3359H91.0964V31.9919C91.0964 30.0999 89.8362 29.2399 88.576 29.2399C87.1357 29.2399 86.0555 30.4439 86.0555 32.1639C86.2356 33.8839 87.1357 35.0879 88.9361 35.0879ZM86.9557 31.6479C86.9557 30.6159 87.8559 29.7559 88.9361 29.7559C90.0163 29.7559 90.7364 30.6159 90.7364 31.6479H86.9557ZM96.8575 30.6159C96.4974 29.7559 95.9573 29.2399 94.8771 29.2399C93.6169 29.2399 92.8968 29.9279 92.8968 30.7879C92.8968 31.4759 93.4369 31.9919 94.337 32.3359L95.2372 32.5079C95.9573 32.6799 96.1374 33.0239 96.1374 33.3679C96.1374 33.8839 95.5973 34.3999 94.6971 34.3999C93.977 34.3999 93.4369 34.0559 93.2568 33.3679L92.5367 33.5399C92.7167 34.3999 93.4369 34.9159 94.6971 34.9159C95.9573 34.9159 96.8575 34.2279 96.8575 33.1959C96.8575 32.5079 96.3174 31.9919 95.4172 31.6479L94.5171 31.4759C93.7969 31.3039 93.4369 30.9599 93.4369 30.6159C93.4369 30.0999 93.977 29.5839 94.8771 29.5839C95.5973 29.5839 96.1374 29.9279 96.3174 30.4439L96.8575 30.6159ZM108.02 29.7559C107.839 28.3799 106.579 27.3479 104.959 27.3479C102.979 27.3479 101.538 28.8959 101.538 31.1319C101.538 33.5399 102.979 34.9159 104.959 34.9159C106.579 34.9159 107.839 33.8839 108.02 32.5079H107.299C107.119 33.5399 106.219 34.2279 104.959 34.2279C103.519 34.2279 102.258 33.0239 102.258 30.9599C102.258 28.8959 103.519 27.6919 104.959 27.6919C106.219 27.6919 107.119 28.5519 107.299 29.4119H108.02V29.7559ZM111.98 35.0879C113.421 35.0879 114.501 33.8839 114.501 32.1639C114.501 30.4439 113.421 29.2399 111.98 29.2399C110.54 29.2399 109.46 30.4439 109.46 32.1639C109.28 33.8839 110.36 35.0879 111.98 35.0879ZM111.98 34.3999C110.72 34.3999 110 33.3679 110 32.1639C110 30.9599 110.72 29.7559 111.98 29.7559C113.24 29.7559 113.961 30.7879 113.961 32.1639C113.781 33.3679 113.06 34.3999 111.98 34.3999ZM116.121 34.9159H116.841V31.3039C116.841 30.4439 117.381 29.7559 118.281 29.7559C119.002 29.7559 119.542 30.2719 119.542 30.9599V34.7439H120.262V30.9599C120.262 30.0999 120.802 29.5839 121.702 29.5839C122.422 29.5839 122.962 30.0999 122.962 30.9599V34.7439H123.682V30.9599C123.682 29.7559 122.962 29.0679 121.882 29.0679C120.982 29.0679 120.442 29.4119 120.082 30.0999C119.902 29.4119 119.362 29.0679 118.461 29.0679C117.741 29.0679 117.201 29.4119 116.841 29.9279V29.2399H116.121V34.9159ZM125.483 36.9799H126.203V33.8839C126.383 34.3999 126.923 35.0879 128.003 35.0879C129.443 35.0879 130.344 33.8839 130.344 32.1639C130.344 30.4439 129.443 29.2399 127.823 29.2399C126.743 29.2399 126.203 29.9279 126.023 30.4439V29.2399H125.303V36.9799H125.483ZM126.203 32.1639C126.203 30.7879 126.923 29.9279 128.003 29.9279C129.263 29.9279 129.803 30.9599 129.803 32.1639C129.803 33.5399 129.083 34.5719 128.003 34.5719C126.743 34.3999 126.203 33.5399 126.203 32.1639ZM133.764 35.0879C134.664 35.0879 135.384 34.5719 135.565 34.0559V34.9159H136.285V31.1319C136.285 29.5839 135.024 29.2399 134.124 29.2399C133.224 29.2399 132.324 29.5839 131.964 30.4439L132.684 30.6159C132.864 30.0999 133.404 29.7559 134.304 29.7559C135.204 29.7559 135.745 30.2719 135.745 30.9599V31.1319C135.745 31.4759 135.204 31.6479 134.124 31.6479C132.864 31.8199 131.784 32.1639 131.784 33.1959C131.784 34.3999 132.684 35.0879 133.764 35.0879ZM133.764 34.3999C133.044 34.3999 132.504 34.0559 132.504 33.3679C132.504 32.6799 133.044 32.3359 134.124 32.3359C134.664 32.3359 135.384 32.1639 135.745 31.9919V32.8519C135.565 33.7119 134.844 34.3999 133.764 34.3999ZM138.805 31.4759C138.805 30.4439 139.525 29.9279 140.425 29.9279C141.326 29.9279 141.866 30.4439 141.866 31.4759V35.0879H142.586V31.4759C142.586 30.0999 141.866 29.4119 140.605 29.4119C139.705 29.4119 139.165 29.7559 138.805 30.4439V29.2399H138.085V34.9159H138.805V31.4759ZM144.746 36.9799C145.466 36.9799 146.006 36.6359 146.367 35.7759L148.887 29.2399H148.167L146.367 34.0559L144.566 29.2399H143.846L146.006 34.9159L145.826 35.6039C145.466 36.4639 145.106 36.6359 144.386 36.4639L144.206 36.9799C144.206 36.9799 144.566 36.9799 144.746 36.9799Z" fill="black"/>
<path d="M198.036 26.832C197.496 27.004 196.596 27.176 195.876 27.176C194.975 27.176 194.075 27.004 193.355 26.832C192.635 26.66 192.095 26.316 191.915 25.972C191.735 25.8 191.555 25.456 191.375 25.112C191.375 24.94 191.195 24.768 191.015 24.596C190.835 24.424 190.655 24.424 190.475 24.424L187.594 24.596C187.414 24.596 187.414 24.596 187.234 24.596L187.054 24.768L186.874 24.94C186.874 25.112 186.874 25.112 186.874 25.284C187.054 26.144 187.414 27.004 187.954 27.692C188.674 28.552 189.755 29.412 191.195 29.756C192.455 30.272 194.075 30.444 196.056 30.444C197.496 30.444 198.936 30.272 200.196 29.756C201.457 29.24 202.537 28.724 203.077 27.864C203.797 27.004 204.157 26.144 204.157 25.112C204.157 24.08 203.797 23.22 203.257 22.532C202.537 21.844 201.637 21.156 200.376 20.64C199.476 20.296 198.036 19.952 195.876 19.608C193.175 19.092 192.635 18.748 192.455 18.748C192.095 18.576 192.095 18.404 192.095 18.06C192.095 17.888 192.095 17.544 192.815 17.028C193.175 16.856 193.895 16.512 195.516 16.512C196.776 16.512 197.676 16.684 198.216 17.028C198.576 17.2 198.936 17.544 198.936 18.06C198.936 18.232 199.116 18.404 199.296 18.576C199.476 18.748 199.656 18.748 199.836 18.748L202.897 18.576C203.077 18.576 203.077 18.576 203.257 18.576C203.437 18.576 203.437 18.404 203.437 18.404C203.437 18.404 203.617 18.232 203.617 18.06C203.617 17.888 203.617 17.888 203.617 17.716C203.437 17.028 203.077 16.34 202.537 15.652C201.817 14.792 200.917 14.104 199.476 13.76C198.216 13.416 196.776 13.072 195.336 13.072C193.895 13.072 192.635 13.244 191.375 13.588C190.115 13.932 189.214 14.62 188.494 15.48C187.774 16.34 187.414 17.2 187.414 18.06C187.414 18.92 187.774 19.78 188.314 20.296C188.854 20.984 189.755 21.5 190.835 22.016C191.555 22.36 192.995 22.704 194.795 23.048C196.956 23.392 197.676 23.736 198.036 23.736C198.576 23.908 199.116 24.08 199.296 24.424C199.476 24.596 199.476 24.596 199.476 24.768C199.476 24.94 199.476 25.112 199.476 25.112C199.476 25.456 199.296 25.628 199.116 25.972C198.936 26.316 198.576 26.66 198.036 26.832Z" fill="#555555"/>
<path d="M183.453 13.76H180.753C180.393 13.76 180.213 14.104 180.213 14.276V29.24C180.213 29.584 180.573 29.756 180.753 29.756H183.453C183.814 29.756 183.994 29.412 183.994 29.24V14.448C183.994 14.104 183.814 13.76 183.453 13.76Z" fill="#555555"/>
<path d="M224.321 21.8439C224.321 20.2959 223.961 18.7479 223.241 17.3719C222.52 15.9959 221.44 14.9639 219.82 14.2759C218.38 13.5879 216.759 13.2439 214.959 13.2439C212.259 13.2439 209.918 14.1039 208.298 15.6519C206.497 17.1999 205.777 19.4359 205.777 22.0159C205.777 23.3919 206.137 24.9399 206.858 26.1439C207.578 27.5199 208.658 28.5519 210.098 29.2399C211.538 29.9279 213.159 30.4439 214.959 30.4439C216.579 30.4439 218.2 30.0999 219.64 29.4119C221.08 28.7239 222.34 27.6919 223.06 26.3159C223.781 24.9399 224.321 23.5639 224.321 21.8439ZM218.56 25.7999C217.66 26.6599 216.399 27.1759 214.959 27.1759C213.519 27.1759 212.259 26.8319 211.358 25.7999C210.458 24.9399 209.918 23.7359 209.918 22.0159C209.918 19.9519 210.458 18.5759 211.358 17.7159C212.439 16.8559 213.519 16.5119 214.959 16.5119C215.859 16.5119 216.759 16.6839 217.66 17.1999C218.38 17.5439 219.1 18.2319 219.46 18.9199C219.82 19.7799 220.18 20.6399 220.18 21.8439C220 23.5639 219.46 24.9399 218.56 25.7999Z" fill="#555555"/>
<path d="M182.553 12.2121C182.733 12.3841 182.913 12.3841 183.093 12.2121C183.273 12.0401 183.633 12.0401 183.633 11.8681C184.533 10.3201 185.794 8.94411 187.054 7.74011C188.854 8.42811 190.655 9.11611 192.635 9.63211C192.455 10.1481 192.275 10.8361 192.095 11.3521C192.095 11.5241 192.095 11.6961 192.095 11.8681C192.095 12.0401 192.455 12.2121 192.635 12.2121C192.815 12.2121 192.995 12.2121 193.175 12.2121C193.355 12.0401 193.535 11.8681 193.535 11.6961C193.715 11.0081 193.895 10.4921 194.075 9.97611C196.416 10.4921 198.756 10.6641 201.097 10.6641C203.437 10.6641 205.777 10.4921 208.118 9.97611C208.298 10.4921 208.478 11.1801 208.658 11.6961C208.658 11.8681 208.838 12.0401 209.018 12.0401C209.198 12.2121 209.378 12.2121 209.558 12.2121H209.738C209.918 12.2121 210.098 12.0401 210.278 11.8681C210.458 11.6961 210.458 11.5241 210.278 11.3521C210.098 10.8361 209.918 10.1481 209.738 9.63211C211.718 9.11611 213.519 8.60011 215.319 7.74011C216.579 8.94411 217.84 10.3201 218.74 11.8681C218.74 12.0401 218.92 12.0401 218.92 12.0401C218.92 12.0401 219.1 12.2121 219.28 12.2121C219.46 12.2121 219.46 12.2121 219.64 12.2121C219.82 12.2121 219.82 12.2121 220 12.0401C220.18 12.0401 220.18 11.8681 220.18 11.8681C220.18 11.8681 220.36 11.6961 220.36 11.5241C220.36 11.3521 220.36 11.3521 220.36 11.1801C220.36 11.0081 220.36 11.0081 220.18 10.8361C219.1 9.11611 217.66 7.39611 216.039 6.02011C211.898 2.40811 206.678 0.516113 201.097 0.516113C195.515 0.516113 190.295 2.58011 186.154 6.02011C184.534 7.39611 183.273 9.11611 182.013 10.8361C182.013 11.0081 181.833 11.0081 181.833 11.1801C181.833 11.3521 181.833 11.3521 181.833 11.5241C181.833 11.6961 181.833 11.6961 182.013 11.8681C182.373 12.0401 182.373 12.0401 182.553 12.2121ZM194.795 8.42811C196.416 4.47211 198.756 2.23611 201.277 2.23611C203.797 2.23611 206.137 4.47211 207.758 8.42811C203.437 9.28811 199.116 9.28811 194.795 8.42811ZM214.239 6.53611C212.619 7.22411 211.178 7.56811 209.558 8.08411C208.658 5.84811 207.398 3.95611 206.137 2.75211C209.018 3.44011 211.718 4.81611 214.239 6.53611ZM196.596 2.75211C195.335 3.95611 194.075 5.84811 193.175 8.08411C191.555 7.74011 189.934 7.22411 188.494 6.53611C190.835 4.81611 193.715 3.44011 196.596 2.75211Z" fill="#555555"/>
<path d="M220 31.4761C219.82 31.4761 219.82 31.3041 219.64 31.3041C219.46 31.3041 219.46 31.3041 219.28 31.3041C219.1 31.3041 219.1 31.3041 218.92 31.4761L218.74 31.6481C217.84 33.1961 216.579 34.5721 215.319 35.7761C213.519 35.0881 211.718 34.4001 209.738 33.8841C209.918 33.3681 210.098 32.6801 210.278 32.1641C210.278 31.9921 210.278 31.9921 210.278 31.8201C210.278 31.6481 210.278 31.6481 210.098 31.4761C210.098 31.3041 209.918 31.3041 209.918 31.3041C209.918 31.3041 209.738 31.1321 209.558 31.1321C209.378 31.1321 209.378 31.1321 209.198 31.1321C209.018 31.1321 209.018 31.1321 208.838 31.3041C208.658 31.3041 208.658 31.4761 208.658 31.4761C208.658 31.4761 208.478 31.6481 208.478 31.8201C208.298 32.5081 208.118 33.0241 207.938 33.5401C203.257 32.6801 198.396 32.6801 193.895 33.5401C193.715 33.0241 193.535 32.3361 193.355 31.8201C193.355 31.6481 193.175 31.4761 192.995 31.3041C192.815 31.1321 192.635 31.1321 192.455 31.3041C192.275 31.3041 192.095 31.4761 191.915 31.6481C191.735 31.8201 191.735 31.9921 191.915 32.1641C192.095 32.6801 192.275 33.3681 192.455 33.8841C190.475 34.4001 188.674 34.9161 186.874 35.7761C185.614 34.5721 184.353 33.1961 183.453 31.6481C183.453 31.4761 183.273 31.4761 183.273 31.4761C183.273 31.4761 183.093 31.3041 182.913 31.3041C182.733 31.3041 182.733 31.3041 182.553 31.3041C182.373 31.3041 182.373 31.3041 182.193 31.4761C182.013 31.6481 182.013 31.6481 182.013 31.6481C182.013 31.6481 181.833 31.8201 181.833 31.9921C181.833 32.1641 181.833 32.1641 181.833 32.3361C181.833 32.5081 181.833 32.5081 182.013 32.6801C183.993 35.7761 186.694 38.5281 190.115 40.2481C193.535 42.1401 197.316 43.0001 201.097 43.0001C204.877 43.0001 208.658 41.9681 212.079 40.2481C215.499 38.3561 218.2 35.7761 220.18 32.6801C220.18 32.5081 220.36 32.5081 220.36 32.3361C220.36 32.1641 220.36 32.1641 220.36 31.9921C220.36 31.8201 220.36 31.8201 220.18 31.6481C220.18 31.6481 220.18 31.4761 220 31.4761ZM207.758 35.2601C206.137 39.2161 203.797 41.4521 201.277 41.4521C198.756 41.4521 196.416 39.2161 194.795 35.2601C199.116 34.4001 203.437 34.4001 207.758 35.2601ZM188.494 36.9801C190.115 36.2921 191.555 35.9481 193.175 35.4321C194.075 37.6681 195.335 39.5601 196.596 40.7641C193.715 40.2481 190.835 38.8721 188.494 36.9801ZM205.957 40.9361C207.218 39.7321 208.478 37.8401 209.378 35.6041C210.998 35.9481 212.619 36.4641 214.059 37.1521C211.718 38.8721 209.018 40.2481 205.957 40.9361Z" fill="#555555"/>
<path d="M238.904 10.4921C236.203 10.4921 234.403 12.2121 234.583 14.4481C234.583 16.5121 236.203 18.0601 238.184 18.0601C239.444 18.0601 240.704 17.5441 241.064 16.5121C241.064 18.7481 240.164 20.1241 238.724 20.1241C237.823 20.1241 237.103 19.6081 236.923 18.7481H234.403C234.583 20.6401 236.203 22.0161 238.544 22.0161C241.424 22.0161 243.404 19.7801 243.404 15.9961C243.585 11.8681 241.424 10.4921 238.904 10.4921ZM238.904 12.2121C239.984 12.2121 240.884 13.0721 240.884 14.1041C240.884 15.1361 239.984 15.9961 238.904 15.9961C237.823 15.9961 236.923 15.1361 236.923 14.1041C236.923 13.0721 237.823 12.2121 238.904 12.2121ZM250.066 22.0161C252.946 22.0161 254.747 19.7801 254.747 16.1681C254.747 12.5561 252.946 10.3201 250.066 10.3201C247.185 10.3201 245.385 12.3841 245.385 16.1681C245.385 19.9521 247.185 22.0161 250.066 22.0161ZM250.066 20.1241C248.625 20.1241 247.905 18.7481 247.905 16.1681C247.905 13.5881 248.805 12.3841 250.066 12.3841C251.326 12.3841 252.226 13.5881 252.226 16.1681C252.406 18.7481 251.506 20.1241 250.066 20.1241ZM261.408 22.0161C264.288 22.0161 266.089 19.7801 266.089 16.1681C266.089 12.5561 264.288 10.3201 261.408 10.3201C258.527 10.3201 256.727 12.3841 256.727 16.1681C256.727 19.9521 258.527 22.0161 261.408 22.0161ZM261.408 20.1241C259.967 20.1241 259.247 18.7481 259.247 16.1681C259.247 13.5881 260.148 12.3841 261.408 12.3841C262.668 12.3841 263.568 13.5881 263.568 16.1681C263.748 18.7481 262.848 20.1241 261.408 20.1241ZM273.29 10.4921H270.949L268.069 12.2121V14.2761L270.769 12.7281V21.6721H273.29V10.4921ZM277.791 14.9641C278.511 14.9641 279.231 14.4481 279.231 13.5881C279.231 12.9001 278.511 12.2121 277.791 12.2121C277.071 12.2121 276.35 12.7281 276.35 13.5881C276.35 14.4481 276.891 14.9641 277.791 14.9641ZM277.791 20.4681C278.511 20.4681 279.231 19.9521 279.231 19.0921C279.231 18.4041 278.511 17.7161 277.791 17.7161C277.071 17.7161 276.35 18.2321 276.35 19.0921C276.35 19.9521 276.891 20.4681 277.791 20.4681ZM281.211 21.8441H289.673V19.9521H284.812L286.612 18.4041C288.953 16.3401 289.673 15.3081 289.673 13.9321C289.673 12.0401 288.053 10.6641 285.532 10.6641C283.012 10.6641 281.391 12.0401 281.391 14.2761H283.732C283.732 13.2441 284.452 12.5561 285.532 12.5561C286.612 12.5561 287.332 13.2441 287.332 14.1041C287.332 14.9641 286.792 15.6521 285.712 16.6841L281.571 20.4681V21.8441H281.211ZM296.154 22.0161C299.035 22.0161 300.835 19.7801 300.835 16.1681C300.835 12.5561 299.035 10.3201 296.154 10.3201C293.274 10.3201 291.473 12.3841 291.473 16.1681C291.473 19.9521 293.274 22.0161 296.154 22.0161ZM296.154 20.1241C294.714 20.1241 293.994 18.7481 293.994 16.1681C293.994 13.5881 294.894 12.3841 296.154 12.3841C297.414 12.3841 298.314 13.5881 298.314 16.1681C298.494 18.7481 297.594 20.1241 296.154 20.1241ZM308.036 10.4921H305.696L302.815 12.2121V14.2761L305.516 12.7281V21.6721H308.036V10.4921ZM315.238 22.0161C317.938 22.0161 319.558 20.4681 319.558 18.0601C319.558 15.8241 317.938 14.2761 315.778 14.2761C314.697 14.2761 313.797 14.6201 313.437 15.3081L313.797 12.5561H319.018V10.4921H311.817L311.277 16.5121L313.437 16.8561C313.797 16.3401 314.517 16.1681 315.238 16.1681C316.498 16.1681 317.218 17.0281 317.218 18.2321C317.218 19.4361 316.318 20.2961 315.238 20.2961C314.337 20.2961 313.437 19.7801 313.437 18.7481H311.097C311.097 20.6401 312.897 22.0161 315.238 22.0161Z" fill="black"/>
<path d="M241.064 30.4439C240.884 29.0679 239.623 28.0359 238.003 28.0359C236.023 28.0359 234.583 29.5839 234.583 31.8199C234.583 34.2279 236.023 35.6039 238.003 35.6039C239.623 35.6039 240.884 34.5719 241.064 33.1959H240.344C240.164 34.2279 239.263 34.9159 238.003 34.9159C236.563 34.9159 235.303 33.7119 235.303 31.6479C235.303 29.5839 236.563 28.3799 238.003 28.3799C239.263 28.3799 240.164 29.2399 240.344 30.0999H241.064V30.4439ZM245.024 35.7759C246.285 35.7759 247.005 35.0879 247.185 34.3999L246.465 34.2279C246.285 34.7439 245.745 35.0879 244.844 35.0879C243.584 35.0879 242.864 34.2279 242.864 33.0239H247.185V32.6799C247.185 30.7879 245.925 29.9279 244.664 29.9279C243.224 29.9279 242.144 31.1319 242.144 32.8519C242.324 34.5719 243.404 35.7759 245.024 35.7759ZM243.044 32.3359C243.044 31.3039 243.944 30.4439 245.024 30.4439C246.105 30.4439 246.825 31.3039 246.825 32.3359H243.044ZM249.165 35.6039H249.885V31.9919C249.885 31.1319 250.605 30.6159 251.506 30.6159C251.686 30.6159 251.866 30.6159 251.866 30.6159V29.9279C251.686 29.9279 251.686 29.9279 251.506 29.9279C250.785 29.9279 250.065 30.2719 249.885 30.9599V30.0999H249.165V35.6039ZM255.826 29.9279H254.566V28.5519H253.846V29.9279H252.946V30.4439H253.846V34.2279C253.846 35.0879 254.566 35.6039 255.286 35.6039C255.646 35.6039 255.826 35.6039 255.826 35.4319L255.646 34.9159C255.466 34.9159 255.466 34.9159 255.286 34.9159C254.746 34.9159 254.386 34.7439 254.386 34.0559V30.4439H255.646V29.9279H255.826ZM257.447 35.6039H258.167V29.9279H257.447V35.6039ZM257.807 29.0679C258.167 29.0679 258.347 28.8959 258.347 28.5519C258.347 28.3799 258.167 28.0359 257.807 28.0359C257.447 28.0359 257.267 28.2079 257.267 28.5519C257.267 28.7239 257.447 29.0679 257.807 29.0679ZM262.488 29.9279H261.047V29.2399C261.047 28.7239 261.407 28.3799 261.947 28.3799C262.128 28.3799 262.308 28.3799 262.488 28.3799L262.668 27.8639C262.488 27.8639 262.308 27.6919 261.947 27.6919C261.227 27.6919 260.327 28.2079 260.327 29.0679V29.9279H259.427V30.4439H260.327V35.4319H261.047V30.4439H262.308V29.9279H262.488ZM263.928 35.6039H264.648V29.9279H263.928V35.6039ZM264.288 29.0679C264.648 29.0679 264.828 28.8959 264.828 28.5519C264.828 28.3799 264.648 28.0359 264.288 28.0359C263.928 28.0359 263.748 28.2079 263.748 28.5519C263.748 28.7239 263.928 29.0679 264.288 29.0679ZM268.969 35.7759C270.229 35.7759 270.949 35.0879 271.129 34.3999L270.409 34.2279C270.229 34.7439 269.689 35.0879 268.789 35.0879C267.529 35.0879 266.808 34.2279 266.808 33.0239H271.129V32.6799C271.129 30.7879 269.869 29.9279 268.609 29.9279C267.168 29.9279 266.088 31.1319 266.088 32.8519C266.268 34.5719 267.168 35.7759 268.969 35.7759ZM266.988 32.3359C266.988 31.3039 267.889 30.4439 268.969 30.4439C270.049 30.4439 270.769 31.3039 270.769 32.3359H266.988ZM276.89 31.1319C276.53 30.2719 275.99 29.7559 274.91 29.7559C273.65 29.7559 272.93 30.4439 272.93 31.3039C272.93 31.9919 273.47 32.5079 274.37 32.8519L275.27 33.0239C275.99 33.1959 276.17 33.5399 276.17 33.8839C276.17 34.3999 275.63 34.9159 274.73 34.9159C274.01 34.9159 273.47 34.5719 273.29 33.8839L272.569 34.0559C272.749 34.9159 273.47 35.4319 274.73 35.4319C275.99 35.4319 276.89 34.7439 276.89 33.7119C276.89 33.0239 276.35 32.5079 275.45 32.1639L274.55 31.9919C273.83 31.8199 273.47 31.4759 273.47 31.1319C273.47 30.6159 274.01 30.0999 274.91 30.0999C275.63 30.0999 276.17 30.4439 276.35 30.9599L276.89 31.1319ZM288.052 30.4439C287.872 29.0679 286.612 28.0359 284.992 28.0359C283.011 28.0359 281.571 29.5839 281.571 31.8199C281.571 34.2279 283.011 35.6039 284.992 35.6039C286.612 35.6039 287.872 34.5719 288.052 33.1959H287.332C287.152 34.2279 286.252 34.9159 284.992 34.9159C283.551 34.9159 282.291 33.7119 282.291 31.6479C282.291 29.5839 283.551 28.3799 284.992 28.3799C286.252 28.3799 287.152 29.2399 287.332 30.0999H288.052V30.4439ZM292.013 35.7759C293.453 35.7759 294.533 34.5719 294.533 32.8519C294.533 31.1319 293.453 29.9279 292.013 29.9279C290.573 29.9279 289.493 31.1319 289.493 32.8519C289.312 34.5719 290.393 35.7759 292.013 35.7759ZM292.013 35.0879C290.753 35.0879 290.033 34.0559 290.033 32.8519C290.033 31.6479 290.753 30.4439 292.013 30.4439C293.273 30.4439 293.993 31.4759 293.993 32.8519C293.813 34.0559 293.093 35.0879 292.013 35.0879ZM296.154 35.6039H296.874V31.9919C296.874 31.1319 297.414 30.4439 298.314 30.4439C299.034 30.4439 299.574 30.9599 299.574 31.6479V35.4319H300.294V31.6479C300.294 30.7879 300.835 30.2719 301.735 30.2719C302.455 30.2719 302.995 30.7879 302.995 31.6479V35.4319H303.715V31.6479C303.715 30.4439 302.995 29.7559 301.915 29.7559C301.015 29.7559 300.474 30.0999 300.114 30.7879C299.934 30.0999 299.394 29.7559 298.494 29.7559C297.774 29.7559 297.234 30.0999 296.874 30.6159V29.7559H296.154V35.6039ZM305.515 37.6679H306.236V34.5719C306.416 35.0879 306.956 35.7759 308.036 35.7759C309.476 35.7759 310.376 34.5719 310.376 32.8519C310.376 31.1319 309.476 29.9279 307.856 29.9279C306.776 29.9279 306.236 30.6159 306.056 31.1319V30.0999H305.335V37.6679H305.515ZM306.236 32.8519C306.236 31.4759 306.956 30.6159 308.036 30.6159C309.296 30.6159 309.836 31.6479 309.836 32.8519C309.836 34.2279 309.116 35.2599 308.036 35.2599C306.776 35.0879 306.236 34.0559 306.236 32.8519ZM313.797 35.7759C314.697 35.7759 315.417 35.2599 315.597 34.7439V35.6039H316.317V31.8199C316.317 30.2719 315.057 29.9279 314.157 29.9279C313.257 29.9279 312.357 30.2719 311.997 31.1319L312.717 31.3039C312.897 30.7879 313.437 30.4439 314.337 30.4439C315.237 30.4439 315.777 30.9599 315.777 31.6479V31.8199C315.777 32.1639 315.237 32.3359 314.157 32.3359C312.897 32.5079 311.817 32.8519 311.817 33.8839C311.817 35.0879 312.717 35.7759 313.797 35.7759ZM313.797 35.0879C313.077 35.0879 312.537 34.7439 312.537 34.0559C312.537 33.3679 313.077 33.0239 314.157 33.0239C314.697 33.0239 315.417 32.8519 315.777 32.6799V33.5399C315.597 34.3999 314.877 35.0879 313.797 35.0879ZM318.838 31.9919C318.838 30.9599 319.558 30.4439 320.458 30.4439C321.358 30.4439 321.898 30.9599 321.898 31.9919V35.6039H322.619V31.9919C322.619 30.6159 321.898 29.9279 320.638 29.9279C319.738 29.9279 319.198 30.2719 318.838 30.9599V30.0999H318.118V35.7759H318.838V31.9919ZM324.779 37.6679C325.499 37.6679 326.039 37.3239 326.399 36.4639L328.92 29.9279H328.2L326.399 34.7439L324.599 29.9279H323.879L326.039 35.6039L325.859 36.1199C325.499 36.9799 325.139 37.1519 324.419 36.9799L324.239 37.4959C324.239 37.6679 324.599 37.6679 324.779 37.6679Z" fill="black"/>
</g>
<defs>
<clipPath id="clip0_364_30">
<rect width="330" height="43" fill="white"/>
</clipPath>
</defs>
</svg>
