<svg width="51" height="57" viewBox="0 0 51 57" fill="none" xmlns="http://www.w3.org/2000/svg">
<circle cx="35" cy="41.0508" r="14" fill="#C7EFC2"/>
<path d="M25.426 1C25.7206 1.25042 26.0572 1.45729 26.3096 1.74037C29.9283 5.66 33.5365 9.59052 37.1656 13.521C37.5549 13.9348 37.7337 14.3921 37.7337 14.98C37.7232 18.1593 37.7232 21.3276 37.7232 24.5069C37.7232 24.7029 37.7232 24.8989 37.7232 25.0622C38.7436 25.4324 39.7429 25.7046 40.6686 26.1401C45.6443 28.481 48.8106 32.4224 49.7363 37.9861C50.7672 44.1921 48.758 49.3857 44.0138 53.3597C41.6574 55.3413 38.9013 56.3974 35.8718 56.6696C35.7876 56.6805 35.7034 56.7132 35.6193 56.7458C34.8514 56.7458 34.0729 56.7458 33.305 56.7458C33.2104 56.7132 33.1157 56.6696 33.0105 56.6479C28.1295 56.0708 24.353 53.6428 21.6285 49.4292C21.3971 49.0808 21.1657 48.9719 20.7764 48.9719C16.3267 48.9828 11.877 48.9828 7.41682 48.9719C6.8593 48.9719 6.29125 48.9393 5.74424 48.8086C2.88297 48.1553 1.01052 45.6947 1 42.6025C1.02104 34.5346 1.02104 26.434 1.02104 18.3444C1.02104 14.6752 1.01052 11.0168 1.02104 7.34762C1.03156 5.17005 1.85207 3.36267 3.59829 2.15411C4.39776 1.62061 5.38658 1.38108 6.28073 1C12.666 1 19.0513 1 25.426 1ZM22.2492 31.1049C21.9336 31.1049 21.7337 31.1049 21.5233 31.1049C17.8941 31.1049 14.2649 31.1049 10.6358 31.1049C10.3728 31.1049 10.1098 31.094 9.8468 31.0505C9.36291 30.9525 9.02629 30.5279 8.99473 30.0161C8.96317 29.4718 9.25772 29.0036 9.76265 28.862C10.0151 28.7967 10.2781 28.7749 10.5411 28.7749C14.9803 28.7749 19.4089 28.7749 23.8481 28.7532C24.1426 28.7532 24.5003 28.6225 24.7317 28.4265C26.9198 26.63 29.3708 25.4432 32.1269 25.0077C33.2104 24.8335 34.3149 24.8118 35.451 24.7246C35.451 21.7958 35.451 18.8125 35.451 15.7531C35.2301 15.7531 35.0407 15.7531 34.8619 15.7531C33.042 15.7531 31.2117 15.7639 29.3918 15.7422C28.8553 15.7313 28.2978 15.7095 27.7824 15.568C25.4365 14.9147 24.0585 13.0093 24.048 10.4289C24.0375 8.27309 24.048 6.10641 24.048 3.95061C24.048 3.75463 24.048 3.55865 24.048 3.34089C23.8481 3.33 23.7113 3.30823 23.5746 3.30823C18.1361 3.30823 12.7081 3.30823 7.26955 3.30823C6.89086 3.30823 6.49112 3.35178 6.12294 3.44977C4.28205 3.98327 3.26167 5.4858 3.26167 7.68515C3.26167 19.2481 3.26167 30.8001 3.26167 42.363C3.26167 42.8094 3.29323 43.2776 3.39842 43.7131C3.87179 45.6076 5.29191 46.6637 7.35371 46.6746C11.4563 46.6855 15.5588 46.6746 19.6614 46.6746C19.8192 46.6746 19.9875 46.6528 20.1979 46.631C19.0407 43.4735 18.8304 40.3052 19.5352 37.0388C19.2722 37.0388 19.0828 37.0388 18.8935 37.0388C16.0848 37.0388 13.2866 37.0388 10.478 37.0388C10.236 37.0388 9.98355 37.017 9.75213 36.9517C9.2472 36.8102 8.95265 36.342 8.98421 35.7976C9.01577 35.2641 9.37343 34.8504 9.8994 34.7633C10.1203 34.7306 10.3517 34.7197 10.5832 34.7197C13.6548 34.7197 16.716 34.7088 19.7876 34.7306C20.1558 34.7306 20.3241 34.5999 20.4924 34.2624C20.9237 33.3914 21.4181 32.553 21.881 31.7147C21.9862 31.5296 22.0914 31.3662 22.2492 31.1049ZM34.5989 54.4376C41.8783 54.3941 47.7692 48.2751 47.7481 40.7734C47.7271 33.2172 41.7731 27.0873 34.5253 27.1309C27.2459 27.1853 21.334 33.3478 21.3971 40.8169C21.4602 48.3731 27.3826 54.4812 34.5989 54.4376ZM26.2781 5.07206C26.2781 5.37692 26.2781 5.49669 26.2781 5.62734C26.2781 7.29318 26.257 8.95903 26.2886 10.6249C26.3202 12.258 27.4773 13.3904 29.0552 13.4122C30.4753 13.4339 31.8954 13.4122 33.305 13.4122C33.4733 13.4122 33.6417 13.4013 33.9152 13.3904C31.3484 10.6031 28.8659 7.9029 26.2781 5.07206Z" fill="#283742" stroke="#283742" stroke-width="0.5"/>
<path d="M22.2497 31.1049C22.0919 31.3662 21.9867 31.5296 21.9026 31.6929C21.4292 32.5421 20.9453 33.3805 20.514 34.2406C20.3457 34.5782 20.1774 34.7088 19.8092 34.7088C16.7376 34.6979 13.6764 34.6979 10.6048 34.6979C10.3733 34.6979 10.1524 34.6979 9.92101 34.7415C9.40556 34.8286 9.03738 35.2423 9.00583 35.7758C8.97427 36.3202 9.25829 36.7884 9.77374 36.9299C10.0052 36.9953 10.2576 37.017 10.4996 37.017C13.3083 37.0279 16.1064 37.017 18.9151 37.017C19.1044 37.017 19.2938 37.017 19.5568 37.017C18.852 40.2834 19.0624 43.4518 20.2195 46.6092C20.0091 46.631 19.8408 46.6528 19.683 46.6528C15.5804 46.6528 11.4779 46.6637 7.37532 46.6528C5.31352 46.6419 3.8934 45.5858 3.42003 43.6913C3.31484 43.2558 3.28328 42.7985 3.28328 42.3412C3.27276 30.7783 3.27276 19.2263 3.28328 7.66336C3.28328 5.46401 4.30366 3.96149 6.14455 3.44976C6.51273 3.35177 6.90195 3.30821 7.29117 3.30821C12.7297 3.29733 18.1577 3.29733 23.5962 3.30821C23.733 3.30821 23.8697 3.32999 24.0696 3.34088C24.0696 3.55864 24.0696 3.75462 24.0696 3.9506C24.0696 6.1064 24.0591 8.27308 24.0696 10.4289C24.0906 13.0093 25.4581 14.9038 27.804 15.5679C28.3194 15.7095 28.8769 15.7422 29.4134 15.7422C31.2333 15.7639 33.0637 15.753 34.8835 15.753C35.0729 15.753 35.2622 15.753 35.4726 15.753C35.4726 18.8125 35.4726 21.7958 35.4726 24.7246C34.3365 24.8226 33.232 24.8444 32.1485 25.0077C29.3924 25.4432 26.9414 26.63 24.7533 28.4265C24.5219 28.6225 24.1643 28.7531 23.8697 28.7531C19.4305 28.7749 15.0019 28.764 10.5627 28.7749C10.2997 28.7749 10.0367 28.7967 9.78426 28.862C9.27933 29.0036 8.98479 29.4609 9.01635 30.0161C9.0479 30.5279 9.38452 30.9525 9.86841 31.0505C10.1209 31.1049 10.3944 31.1049 10.6574 31.1049C14.2866 31.1049 17.9157 31.1049 21.5449 31.1049C21.7238 31.1049 21.9341 31.1049 22.2497 31.1049ZM15.7908 22.9717C14.0025 22.9717 12.2142 22.9717 10.4259 22.9717C10.163 22.9717 9.88945 22.9935 9.65803 23.0806C9.1531 23.2766 8.91115 23.8101 9.01635 24.3653C9.11102 24.8988 9.55283 25.269 10.163 25.269C11.3727 25.2908 12.5824 25.2799 13.7921 25.2799C16.2642 25.2799 18.7363 25.2799 21.1978 25.2799C21.7238 25.2799 22.1761 25.1493 22.4391 24.6375C22.8493 23.8318 22.2813 22.9826 21.303 22.9717C19.4726 22.9608 17.6317 22.9717 15.7908 22.9717Z" fill="white"/>
<path d="M15.7901 22.9717C17.631 22.9717 19.4719 22.9608 21.3128 22.9717C22.2911 22.9826 22.8592 23.8318 22.4489 24.6375C22.1859 25.1493 21.7336 25.2799 21.2076 25.2799C18.7356 25.269 16.2635 25.2799 13.802 25.2799C12.5922 25.2799 11.3825 25.2908 10.1728 25.269C9.55213 25.2581 9.12084 24.8988 9.02616 24.3653C8.92097 23.8101 9.16291 23.2766 9.66784 23.0806C9.90979 22.9935 10.1833 22.9717 10.4358 22.9717C12.2135 22.9608 14.0018 22.9717 15.7901 22.9717Z" fill="#283742"/>
<path d="M29.2552 44.4734L28.9002 44.8256C29.6722 45.6039 30.4507 46.3822 31.2291 47.1541C31.477 47.4017 31.7928 47.5522 32.1401 47.5508C32.4829 47.5494 32.7945 47.4004 33.0429 47.1673C33.0974 47.1178 33.1594 47.0537 33.2031 47.0086C33.219 46.9922 33.2324 46.9784 33.2422 46.9686L35.5421 44.669C35.8917 45.1547 36.2395 45.6396 36.5828 46.1284C36.7155 46.3225 36.8895 46.5051 37.1218 46.6232C37.3632 46.746 37.6305 46.7803 37.909 46.7314L37.909 46.7314L37.9136 46.7306C38.1888 46.6796 38.4148 46.5532 38.589 46.3665C38.7549 46.1886 38.8541 45.9773 38.9207 45.7817L38.9207 45.7817L38.922 45.7776C39.4363 44.2213 39.957 42.6621 40.4775 41.1034C40.6857 40.4798 40.8939 39.8563 41.1017 39.2331C41.3216 38.5737 41.5414 37.9158 41.7614 37.2577C41.9813 36.5996 42.2013 35.9414 42.4212 35.2815C42.5506 34.8934 42.5217 34.4846 42.3254 34.1505C42.1261 33.8115 41.7765 33.5901 41.3583 33.5544L41.3584 33.5544L41.3542 33.5541C41.0945 33.5341 40.8361 33.6149 40.6913 33.6602C40.6797 33.6638 40.6689 33.6672 40.6588 33.6703L40.6588 33.6702L40.649 33.6734C39.0635 34.1973 37.4745 34.7278 35.8876 35.2575C35.2534 35.4692 34.6195 35.6808 33.9864 35.8919L33.9849 35.8923C32.737 36.3125 31.4889 36.7263 30.2396 37.1406C29.9588 37.2329 29.7077 37.3922 29.5321 37.6295C29.3535 37.8709 29.2782 38.1594 29.2981 38.4581L29.2981 38.4581L29.2983 38.4605C29.3316 38.9274 29.5994 39.2314 29.8791 39.4348L29.879 39.4348L29.884 39.4383C30.3781 39.7884 30.8687 40.1387 31.3805 40.5055C30.559 41.3219 29.7424 42.1388 28.9259 42.9611L28.9259 42.9611L28.9241 42.963C28.6759 43.2154 28.5088 43.5329 28.5003 43.8887C28.4917 44.2492 28.6479 44.5733 28.9016 44.827L29.2552 44.4734ZM29.2552 44.4734C28.9046 44.1229 28.9173 43.6831 29.2807 43.3134L32.7038 46.7998C32.3532 47.1312 31.9197 47.1376 31.5819 46.7998C30.8042 46.0286 30.0265 45.251 29.2552 44.4734ZM34.1219 41.347L34.1219 41.347L34.1242 41.3447C34.4157 41.0494 34.633 40.676 34.6 40.246C34.5667 39.8139 34.2928 39.4798 33.9521 39.2364C33.7418 39.0838 33.5316 38.9325 33.3181 38.7797C34.3069 38.4508 35.2984 38.1208 36.2912 37.7903C37.2772 37.4621 38.2646 37.1334 39.252 36.8049C38.8372 38.0533 38.4234 39.2951 38.0084 40.5406C37.7645 41.2724 37.5203 42.0054 37.2751 42.7418C37.1232 42.527 36.9765 42.3167 36.8327 42.1067L36.8328 42.1066L36.8247 42.0954C36.5816 41.7606 36.247 41.4951 35.8204 41.4621C35.3948 41.4293 35.0229 41.6393 34.7292 41.9326C34.0808 42.5766 33.4346 43.2241 32.796 43.864C32.5994 44.0611 32.4035 44.2574 32.2084 44.4526C32.0119 44.2546 31.8147 44.0568 31.6157 43.8577C32.4475 43.0211 33.2844 42.1844 34.1219 41.347Z" fill="#283742" stroke="#C7EFC2"/>
</svg>
