<svg width="20" height="19" viewBox="0 0 20 19" fill="none" xmlns="http://www.w3.org/2000/svg">
<path d="M4.722 2.191C4.722 0.88 3.636 0 2.361 0C1.086 0 0.011 0.937 0 2.192C0.011 3.446 1.086 4.384 2.361 4.384C3.636 4.384 4.722 3.435 4.722 2.192V2.191ZM0.237 6.306H4.398V18.936H0.237V6.306ZM15.103 5.784C17.902 5.784 20 7.624 20 11.57V18.937H15.835V12.099C15.835 10.345 15.333 9.205 13.759 9.205C12.469 9.207 11.675 10.621 11.675 11.835V18.938L7.518 18.937V6.307H11.256V7.887C11.6476 7.2218 12.2121 6.67505 12.8894 6.30479C13.5667 5.93452 14.3316 5.75456 15.103 5.784Z" fill="white"/>
</svg>
