<svg width="32" height="32" viewBox="0 0 32 32" fill="none" xmlns="http://www.w3.org/2000/svg">
<rect width="32" height="32" rx="16" fill="white"/>
<path d="M20.5 16.377L19.793 17.122L21.0835 18.4846H17C16.4696 18.4846 15.9609 18.7067 15.5858 19.102C15.2107 19.4972 15 20.0333 15 20.5923C15 21.1513 15.2107 21.6874 15.5858 22.0827C15.9609 22.478 16.4696 22.7 17 22.7H18V21.6462H17C16.7348 21.6462 16.4804 21.5352 16.2929 21.3375C16.1054 21.1399 16 20.8718 16 20.5923C16 20.3128 16.1054 20.0448 16.2929 19.8472C16.4804 19.6495 16.7348 19.5385 17 19.5385H21.0835L19.792 20.9016L20.5 21.6462L23 19.0116L20.5 16.377Z" fill="#197E37"/>
<path d="M13 18.4846H10L9.9985 10.5312L15.7155 14.7024C15.7991 14.7633 15.8983 14.796 16 14.796C16.1017 14.796 16.2009 14.7633 16.2845 14.7024L22 10.5333V15.3231H23V10.0538C22.9997 9.77443 22.8943 9.50655 22.7068 9.30897C22.5193 9.1114 22.2651 9.00028 22 9H10C9.73504 9 9.48092 9.11081 9.29342 9.30811C9.10593 9.5054 9.0004 9.77304 9 10.0523V18.4846C9.0004 18.764 9.10588 19.0318 9.29333 19.2293C9.48078 19.4269 9.7349 19.538 10 19.5385H13V18.4846ZM20.8995 10.0538L16 13.6285L11.1005 10.0538H20.8995Z" fill="#197E37"/>
</svg>
