<svg width="50" height="50" viewBox="0 0 50 50" fill="none" xmlns="http://www.w3.org/2000/svg">
<g clip-path="url(#clip0_866_939)">
<path d="M24.9735 3.51125e-06C18.3477 0.00702688 11.9956 2.64405 7.31296 7.3317C2.63028 12.0193 -3.72238e-06 18.3742 0 25C0 31.6304 2.63392 37.9893 7.32233 42.6777C12.0107 47.3661 18.3696 50 25 50C28.169 50.0001 31.309 49.3978 34.253 48.225C33.4161 46.7905 32.5834 45.3535 31.755 43.914C30.4 45.644 28.89 46.829 27.3135 47.383C26.9615 47.4185 26.6065 47.4445 26.25 47.464V37.065H27.748C27.2891 36.2743 26.9174 35.436 26.6395 34.565H26.25V33.01C25.9333 31.3335 25.9333 29.6125 26.25 27.936V26.25H26.6855C26.8855 25.6382 27.1317 25.0425 27.422 24.468C27.542 24.2235 27.673 23.9855 27.8085 23.75H26.25V15.435H35.8475C36.0125 16.0695 36.1625 16.7215 36.296 17.3885C37.1073 17.1868 37.9364 17.0655 38.7715 17.0265C38.6681 16.4935 38.5535 15.9627 38.4275 15.4345H45.3725C45.926 16.6177 46.3749 17.847 46.714 19.1085C47.8672 19.8467 48.9048 20.7515 49.793 21.7935C49.0138 15.7687 46.0676 10.2338 41.5048 6.22303C36.942 2.21227 31.075 0.000128517 25 3.51125e-06C24.9912 -1.17042e-06 24.9823 -1.17042e-06 24.9735 3.51125e-06ZM26.25 2.841C28.884 3.289 31.401 5.459 33.384 9.0595C34.023 10.22 34.594 11.523 35.088 12.9345H26.25V2.841ZM23.75 2.9395V12.9345H15.375C15.869 11.523 16.44 10.22 17.079 9.0595C18.945 5.6705 21.2855 3.5505 23.75 2.9395ZM17.99 3.616C16.828 4.792 15.785 6.226 14.8885 7.8535C14.0485 9.3785 13.326 11.087 12.7325 12.9345H6.005C8.7725 8.5815 12.9925 5.2495 17.99 3.616ZM32.695 3.8475C37.394 5.554 41.355 8.7815 43.995 12.9345H37.7275C37.1355 11.087 36.414 9.3785 35.574 7.8535C34.736 6.331 33.767 4.979 32.695 3.8475ZM4.6285 15.435H12.0325C11.41 18.016 11.0285 20.815 10.931 23.7505H2.536C2.69131 20.87 3.40166 18.0466 4.628 15.4355M14.615 15.4355H23.75V23.75H13.4335C13.5395 20.7825 13.955 17.9735 14.615 15.4355ZM2.536 26.25H10.917C10.9815 29.178 11.327 31.977 11.914 34.565H4.628C3.40166 31.9539 2.69131 29.1305 2.536 26.25ZM13.417 26.25H23.75V34.565H14.49C13.8675 32.015 13.487 29.2075 13.417 26.25ZM6.005 37.065H12.573C13.194 39.1075 13.973 40.985 14.8885 42.6475C15.6075 43.9525 16.4225 45.132 17.3155 46.1565C12.612 44.4515 8.6475 41.221 6.005 37.065ZM15.202 37.0655H23.75V47.4645C23.596 47.456 23.444 47.4405 23.291 47.4295C20.996 46.6795 18.829 44.6195 17.079 41.442C16.365 40.145 15.733 38.6735 15.202 37.066" fill="#283742"/>
<path d="M31.7831 35.9753L31.7602 35.9357L31.7338 35.8984C30.6423 34.356 30 32.4837 30 30.47C30 25.27 34.2786 21 39.5 21C44.7224 21 49 25.2699 49 30.47V30.4702C49.0003 31.6862 48.7629 32.8905 48.3014 34.0154L48.2911 34.0404L48.2822 34.066C48.1829 34.351 48.0785 34.6035 47.9553 34.8291L39.9373 48.4747C39.7603 48.7105 39.6238 48.8572 39.5205 48.9426C39.504 48.9563 39.4896 48.9673 39.4775 48.9761C39.3912 48.9181 39.2493 48.7915 39.0508 48.5389L31.7831 35.9753ZM46.08 30.4705C46.08 26.8166 43.1577 23.906 39.5 23.906C35.8429 23.906 32.92 26.8166 32.92 30.4705C32.92 34.1241 35.843 37.034 39.5 37.034C43.1575 37.034 46.08 34.1246 46.08 30.4705Z" fill="#C7EFC2" stroke="#283742" stroke-width="2"/>
</g>
<defs>
<clipPath id="clip0_866_939">
<rect width="50" height="50" fill="white"/>
</clipPath>
</defs>
</svg>
