<svg width="37" height="37" viewBox="0 0 37 37" fill="none" xmlns="http://www.w3.org/2000/svg">
<path d="M26.5938 19.6562L29.1722 24.6512L34.6875 25.4375L30.6406 29.0993L32.375 34.6875L26.5938 31.4593L20.8125 34.6875L22.5469 29.0993L18.5 25.4375L24.1656 24.6512L26.5938 19.6562Z" fill="#157A33"/>
<path d="M28.9062 5.78125H25.4375V4.625C25.4357 4.01225 25.1914 3.42512 24.7582 2.99184C24.3249 2.55856 23.7378 2.31433 23.125 2.3125H13.875C13.2622 2.31433 12.6751 2.55856 12.2418 2.99184C11.8086 3.42512 11.5643 4.01225 11.5625 4.625V5.78125H8.09375C7.481 5.78308 6.89387 6.02731 6.46059 6.46059C6.02731 6.89387 5.78308 7.481 5.78125 8.09375V32.375C5.78308 32.9878 6.02731 33.5749 6.46059 34.0082C6.89387 34.4414 7.481 34.6857 8.09375 34.6875H16.1875V32.375H8.09375V8.09375H11.5625V11.5625H25.4375V8.09375H28.9062V16.1875H31.2188V8.09375C31.2169 7.481 30.9727 6.89387 30.5394 6.46059C30.1061 6.02731 29.519 5.78308 28.9062 5.78125ZM23.125 9.25H13.875V4.625H23.125V9.25Z" fill="#157A33"/>
</svg>
