<svg width="65" height="66" viewBox="0 0 65 66" fill="none" xmlns="http://www.w3.org/2000/svg">
<rect x="2.5166" y="17.0469" width="59.3393" height="39.5596" fill="#80BBF8"/>
<path d="M60.5448 18.1392C41.7781 18.1392 23.0836 18.1392 4.31689 18.1392C4.31689 18.4102 4.31689 18.645 4.31689 18.8798C4.31689 29.085 4.31689 39.2902 4.31689 49.4954C4.31689 51.6087 5.41869 52.7105 7.51391 52.7105C7.91128 52.7105 8.32672 52.6924 8.72409 52.7105C9.84395 52.7647 10.729 53.6497 10.8013 54.7334C10.8554 55.7991 10.1329 56.8648 9.04921 56.9732C6.6108 57.2261 4.28076 56.9551 2.36616 55.185C0.794741 53.722 0 51.9338 0 49.7844C0 46.4429 0 43.1194 0 39.7779C0 29.2295 0 18.6992 0 8.15079C0 4.64671 2.13135 1.84705 5.45481 1.03425C6.08699 0.871689 6.73724 0.817502 7.38748 0.817502C24.077 0.79944 40.7847 0.79944 57.4742 0.817502C61.8092 0.817502 64.8978 3.90615 64.8978 8.22304C64.8978 22.0407 64.8978 35.8403 64.8978 49.6579C64.8978 53.9748 61.8092 57.0635 57.4923 57.0635C54.9997 57.0635 52.489 57.0635 49.9964 57.0635C48.5695 57.0635 47.5941 56.1423 47.6122 54.8779C47.6303 53.6317 48.5876 52.7466 49.9964 52.7466C52.5613 52.7466 55.1261 52.7466 57.709 52.7466C59.4069 52.7466 60.599 51.5364 60.599 49.8386C60.599 39.4347 60.599 29.0127 60.599 18.6089C60.5629 18.4463 60.5629 18.3199 60.5448 18.1392ZM4.33495 13.732C23.1197 13.732 41.8323 13.732 60.5809 13.732C60.5809 11.9258 60.5809 10.1738 60.5809 8.42173C60.5809 6.182 59.5153 5.11633 57.2755 5.11633C40.7485 5.11633 24.2035 5.11633 7.67648 5.11633C7.45973 5.11633 7.22492 5.11633 7.00817 5.11633C5.59931 5.20664 4.4072 6.3265 4.37108 7.7173C4.29883 9.72221 4.33495 11.7091 4.33495 13.732Z" fill="black"/>
<path d="M24.04 46.3528C22.0531 44.9258 20.2108 43.6073 18.3504 42.2888C17.7543 41.8553 17.3389 41.3315 17.2847 40.5728C17.2124 39.4891 17.8266 38.6582 18.9826 38.2789C22.5228 37.1049 26.063 35.9308 29.6032 34.7387C35.8889 32.6435 42.1926 30.5302 48.4783 28.453C48.9479 28.3085 49.4536 28.146 49.9233 28.1821C51.4044 28.3085 52.2172 29.6993 51.7114 31.2166C50.4651 34.9555 49.2188 38.6763 47.9725 42.4152C45.9134 48.5925 43.8363 54.7879 41.7952 60.9652C41.4882 61.8683 41.0005 62.5366 40.0251 62.7172C38.9956 62.8978 38.255 62.4463 37.677 61.5973C36.4849 59.8995 35.2747 58.2197 34.0646 56.5399C33.9562 56.3954 33.8478 56.269 33.7214 56.1064C31.1385 58.6893 28.5917 61.2361 26.0449 63.7829C25.8643 63.9635 25.7017 64.1441 25.5211 64.3067C24.5277 65.2459 23.2994 65.264 22.3421 64.3067C20.1385 62.1212 17.9349 59.9176 15.7494 57.714C14.756 56.7205 14.7921 55.4742 15.8217 54.4266C18.3323 51.8979 20.843 49.3872 23.3717 46.8766C23.5523 46.714 23.7691 46.5876 24.04 46.3528ZM38.9414 55.8897C41.4159 48.448 43.8543 41.1508 46.3108 33.7453C38.8691 36.2198 31.5539 38.6582 24.1664 41.1147C25.5934 42.1262 26.9119 43.0654 28.2305 44.0227C29.8019 45.1426 29.8922 46.4792 28.5375 47.8519C25.9546 50.4349 23.3717 53.0178 20.8068 55.6007C20.6443 55.7632 20.4817 55.9438 20.4456 55.98C21.6919 57.2263 22.9021 58.4364 24.1122 59.6647C26.7855 56.9915 29.5129 54.246 32.2583 51.5186C33.595 50.182 34.9496 50.2904 36.0514 51.8076C36.9545 53.1261 37.8938 54.4447 38.9414 55.8897Z" fill="black"/>
<path d="M4.33601 13.7319C4.33601 11.6909 4.29989 9.72207 4.35408 7.73522C4.3902 6.32636 5.58231 5.2065 6.99117 5.13425C7.20792 5.11619 7.44273 5.13425 7.65948 5.13425C24.1865 5.13425 40.7315 5.13425 57.2585 5.13425C59.4983 5.13425 60.5639 6.19992 60.5639 8.43965C60.5639 10.1917 60.5639 11.9437 60.5639 13.75C41.8153 13.7319 23.1208 13.7319 4.33601 13.7319ZM12.9698 9.45114C12.9698 8.27709 11.9944 7.30172 10.8204 7.30172C9.6102 7.30172 8.63484 8.29515 8.6529 9.50532C8.67097 10.6613 9.66439 11.6367 10.8384 11.6186C12.0125 11.6005 12.9698 10.6252 12.9698 9.45114ZM19.4722 9.48726C19.4903 8.31321 18.533 7.31979 17.3589 7.30172C16.1849 7.28366 15.1915 8.2229 15.1553 9.39695C15.1192 10.6071 16.1126 11.6186 17.3047 11.6186C18.4788 11.6186 19.4542 10.6613 19.4722 9.48726ZM21.6397 9.36082C21.5855 10.5349 22.5067 11.5644 23.6807 11.6186C24.8728 11.6728 25.9205 10.7155 25.9566 9.52339C25.9927 8.34934 25.0535 7.33785 23.8794 7.30172C22.6873 7.24754 21.6758 8.18678 21.6397 9.36082Z" fill="#80BBF8"/>
<path d="M38.943 55.8895C37.8954 54.4264 36.9562 53.126 36.017 51.8074C34.9152 50.2902 33.5605 50.1818 32.2239 51.5184C29.4784 54.2639 26.751 57.0094 24.0778 59.6645C22.8495 58.4363 21.6574 57.2442 20.4111 55.9798C20.4473 55.9437 20.6098 55.7631 20.7724 55.6005C23.3553 53.0176 25.9382 50.4347 28.503 47.8518C29.8758 46.479 29.7674 45.1424 28.196 44.0226C26.8774 43.0833 25.5589 42.1441 24.132 41.1145C31.5375 38.6581 38.8347 36.2197 46.2763 33.7451C43.8379 41.1687 41.4176 48.4659 38.943 55.8895Z" fill="white"/>
</svg>
