<svg width="50" height="50" viewBox="0 0 50 50" fill="none" xmlns="http://www.w3.org/2000/svg">
<g clip-path="url(#clip0_330_332)">
<path d="M42.501 9.00002C42.501 8.60002 40.501 6.83335 39.501 6.00002C29.501 -1.99998 17.001 2.00002 12.001 5.00002C10.001 6.20002 8.16764 8.16668 7.50098 9.00002C14.001 8.5 16.6676 8.66668 17.501 9.00002L18.501 10V11.5L18.001 14.5L17.001 21.5L17.501 30L18.501 35.5L17.501 39L16.001 39.5L6.50098 40.5L11.001 44.5C21.401 52.1 34.001 47.6667 39.001 44.5C41.001 42.9 42.1676 41.5 42.501 41L43.501 40.5L42.001 40H39.501L31.501 38L32.001 34.5L31.501 21L31.001 11.5L32.501 9.00002H42.501Z" fill="#E9F7E7"/>
<path d="M2.19043 8.90137C2.19043 9.59668 2.18457 10.2217 2.19141 10.8457C2.21973 13.3076 4.09082 15.1982 6.54883 15.2187C8.7207 15.2363 10.8926 15.2373 13.0645 15.2178C15.4609 15.1953 17.3057 13.3691 17.3799 10.9697C17.4004 10.3105 17.3828 9.65137 17.3828 8.98535C18.3447 9.14453 19.2939 10.1963 19.4932 11.3105C19.5498 11.626 19.5732 11.9512 19.5732 12.2715C19.5771 20.7578 19.5781 29.2432 19.5752 37.7295C19.5742 39.9619 18.2266 41.2959 15.9824 41.2959C11.8418 41.2969 7.70215 41.2969 3.56153 41.2959C1.37012 41.2949 0.0273452 39.9697 0.0263686 37.791C0.0234389 29.2539 0.0302749 20.7178 0.0205092 12.1807C0.0195327 10.8643 0.51758 9.84863 1.64356 9.15723C1.7959 9.06348 1.96875 9.00293 2.19043 8.90137ZM9.81934 18.4854C9.3916 18.4414 9.07617 18.626 8.88379 19.0186C8.78028 19.2305 8.67188 19.4443 8.59766 19.668C7.93457 21.6582 7.27735 23.6504 6.62403 25.6445C6.57715 25.7871 6.55371 25.9424 6.55176 26.0928C6.5459 26.5986 6.86426 27.0156 7.3418 27.1475C7.84375 27.2871 8.44043 27.1104 8.58496 26.6289C8.76367 26.0322 9.1543 26.0625 9.59863 26.0762C9.91992 26.0859 10.2451 26.0654 10.5625 26.1045C10.6924 26.1211 10.8672 26.2344 10.917 26.3496C11.2051 27.0147 11.71 27.3066 12.3076 27.1162C12.9033 26.9258 13.1807 26.3154 12.96 25.6211C12.5742 24.4121 12.1807 23.2061 11.7734 22.0039C11.4482 21.043 11.1094 20.0869 10.7568 19.1357C10.6035 18.7236 10.3125 18.457 9.81934 18.4854ZM9.77539 35.873C8.01074 35.873 6.24512 35.8662 4.48047 35.876C3.67578 35.8799 3.20215 36.3965 3.30078 37.1201C3.37695 37.6797 3.83594 38.0342 4.51563 38.0352C7.17969 38.0391 9.84473 38.0371 12.5088 38.0371C13.4082 38.0371 14.3076 38.0498 15.207 38.0312C15.8555 38.0176 16.3184 37.5352 16.3076 36.9346C16.2969 36.3506 15.8506 35.9141 15.2217 35.8789C15.0693 35.8701 14.916 35.874 14.7637 35.874C13.1016 35.8721 11.4385 35.8721 9.77539 35.873Z" fill="#377849"/>
<path d="M32.6221 8.8916C32.6221 9.70117 32.5996 10.3965 32.626 11.0908C32.7119 13.3398 34.5479 15.1748 36.8018 15.2109C39.0752 15.2471 41.3496 15.249 43.623 15.21C45.8887 15.1709 47.7344 13.2969 47.8027 11.0303C47.8232 10.3525 47.8057 9.67383 47.8057 8.89746C48.0322 9.00391 48.2139 9.06836 48.374 9.16797C49.3486 9.77246 49.916 10.6406 49.959 11.7959C49.9941 12.7617 49.9736 13.7305 49.9736 14.6973C49.9746 22.4023 49.9756 30.1074 49.9727 37.8125C49.9717 39.6563 48.9316 40.9541 47.2275 41.252C46.9795 41.2949 46.7207 41.2949 46.4678 41.2949C42.2939 41.2979 38.1191 41.2979 33.9453 41.2959C31.7832 41.2949 30.4258 39.9355 30.4248 37.7598C30.4219 29.2402 30.4248 20.7197 30.4219 12.2002C30.4219 10.8955 30.9131 9.8623 32.042 9.16797C32.1934 9.07324 32.3652 9.01172 32.6221 8.8916ZM42.9414 22.8203C44.2695 20.8359 42.8555 18.3398 40.4551 18.4756C39.6943 18.5186 38.9287 18.4766 38.165 18.4844C37.3906 18.4922 36.9502 18.9004 36.9453 19.6709C36.9307 21.7744 36.9307 23.8789 36.9453 25.9834C36.9512 26.7578 37.3789 27.1533 38.167 27.1621C39.0146 27.1719 39.8643 27.1826 40.7109 27.1553C41.0596 27.1436 41.4219 27.0791 41.751 26.9619C43.0977 26.4795 44.1035 24.6777 42.9414 22.8203ZM40.2334 35.873C40.2334 35.874 40.2334 35.875 40.2334 35.876C38.418 35.876 36.6016 35.8672 34.7861 35.8809C34.1562 35.8857 33.707 36.3418 33.6914 36.9229C33.6748 37.5244 34.1357 37.9961 34.7813 38.0332C34.917 38.041 35.0527 38.0361 35.1885 38.0361C37.9375 38.0361 40.6875 38.0361 43.4365 38.0361C44.166 38.0361 44.8965 38.0518 45.626 38.0293C46.3574 38.0078 46.8213 37.4199 46.6914 36.7236C46.5938 36.2002 46.1719 35.8779 45.5293 35.875C43.7627 35.8682 41.998 35.873 40.2334 35.873Z" fill="#377849"/>
<path d="M9.81055 5.35444C10.1123 4.97847 10.2891 4.61518 10.5791 4.4189C13.7148 2.29878 17.1631 0.935498 20.9023 0.363232C27.5508 -0.654346 33.708 0.680615 39.3613 4.32808C39.4473 4.38276 39.5313 4.4394 39.6143 4.49897C40.1846 4.91011 40.3242 5.5146 39.9717 6.04487C39.6299 6.55952 39.001 6.66401 38.4033 6.30073C37.8242 5.94819 37.2676 5.55366 36.668 5.24116C28.2246 0.833935 19.9463 1.14644 11.8447 6.14741C11.4268 6.40522 10.9971 6.60542 10.5742 6.30073C10.2881 6.09565 10.1104 5.73823 9.81055 5.35444Z" fill="#263238"/>
<path d="M23.8534 49.9658C19.707 49.9336 14.8622 48.4746 10.4618 45.5508C9.95599 45.2149 9.7431 44.7754 9.86517 44.3164C9.99114 43.8447 10.3007 43.502 10.7851 43.502C11.1132 43.501 11.4833 43.6387 11.7636 43.8213C14.2314 45.4297 16.8847 46.6006 19.7656 47.2207C26.2617 48.6182 32.3242 47.5244 37.9492 43.9922C38.0781 43.9111 38.2021 43.8203 38.3329 43.7432C38.8867 43.415 39.5224 43.5527 39.8437 44.0674C40.1503 44.5566 40.0361 45.2363 39.5019 45.5371C38.0126 46.375 36.5419 47.2666 34.9824 47.9531C31.8036 49.3506 28.4609 49.9619 23.8534 49.9658Z" fill="#263238"/>
<path d="M34.7756 8.72266C38.424 8.72266 42.0002 8.72266 45.6799 8.72266C45.6379 9.65039 45.676 10.5703 45.5344 11.4609C45.3879 12.3809 44.4944 13.0352 43.4797 13.0469C41.2912 13.0732 39.1018 13.082 36.9133 13.0439C35.6438 13.0215 34.7873 12.0703 34.7756 10.793C34.7707 10.1172 34.7756 9.44141 34.7756 8.72266Z" fill="#263238"/>
<path d="M4.37028 8.72266C7.99919 8.72266 11.5754 8.72266 15.1515 8.72266C15.1515 9.61914 15.2511 10.5225 15.1252 11.3926C14.9806 12.3984 14.1056 13.0371 13.0334 13.0488C10.8791 13.0723 8.7238 13.0742 6.56852 13.0498C5.36247 13.0361 4.47868 12.2363 4.38102 11.0625C4.3195 10.3066 4.37028 9.54199 4.37028 8.72266Z" fill="#263238"/>
<path d="M39.1484 21.7217C39.1484 21.3594 39.1484 21.043 39.1484 20.6973C39.7314 20.6973 40.2998 20.6592 40.8574 20.7217C41.0186 20.7403 41.2656 21.0557 41.2559 21.2236C41.2461 21.3975 40.9883 21.6787 40.8135 21.6992C40.2842 21.7617 39.7412 21.7217 39.1484 21.7217Z" fill="#263238"/>
<path d="M39.1602 24.9784C39.1602 24.617 39.1602 24.2889 39.1602 23.952C39.7432 23.952 40.2988 23.9129 40.8418 23.9754C41.0078 23.995 41.2598 24.2987 41.2559 24.4666C41.252 24.6395 40.998 24.9344 40.8281 24.954C40.2842 25.0174 39.7275 24.9784 39.1602 24.9784Z" fill="#263238"/>
</g>
<defs>
<clipPath id="clip0_330_332">
<rect width="50" height="50" fill="white"/>
</clipPath>
</defs>
</svg>
