<svg width="50" height="50" viewBox="0 0 50 50" fill="none" xmlns="http://www.w3.org/2000/svg">
<path d="M45 1.5H13C11 1.9 10.8333 4 11 5V44L10 47.5V49H42.5C45.3 49 46.3333 47 46.5 46V6C46.5 2.8 45.5 1.66667 45 1.5Z" fill="#C7EFC2"/>
<path d="M9.57022 11.9404C9.57022 11.6621 9.57022 11.4443 9.57022 11.2256C9.57022 8.81738 9.56729 6.41016 9.5712 4.00195C9.5751 1.5166 11.0282 0.0605469 13.5009 0.0605469C23.5585 0.0595703 33.6161 0.0595703 43.6747 0.0605469C46.0849 0.0605469 47.5565 1.52051 47.5565 3.92969C47.5595 17.9697 47.5595 32.0098 47.5565 46.0498C47.5565 48.459 46.081 49.9375 43.6874 49.9385C31.6103 49.9395 19.5341 49.9404 7.45694 49.9385C4.99991 49.9385 3.10049 48.499 2.57705 46.2217C2.47452 45.7754 2.44717 45.3037 2.44717 44.8438C2.44034 35.1748 2.44034 25.5059 2.44327 15.8369C2.44424 13.3984 3.91495 11.9424 6.3583 11.9395C7.39444 11.9395 8.43057 11.9404 9.57022 11.9404ZM11.3134 47.5518C11.6366 47.5518 11.8515 47.5518 12.0663 47.5518C22.5507 47.5518 33.0341 47.5518 43.5185 47.5508C43.7216 47.5508 43.9267 47.5527 44.1288 47.5313C44.7177 47.4697 45.1132 47.0791 45.1796 46.4951C45.1982 46.3301 45.1894 46.1621 45.1894 45.9951C45.1894 31.9912 45.1894 17.9883 45.1894 3.98438C45.1894 3.81738 45.2021 3.64844 45.1767 3.48535C45.0907 2.93555 44.7909 2.56836 44.2255 2.47461C43.9901 2.43555 43.747 2.42969 43.5067 2.42969C33.5595 2.42773 23.6132 2.42773 13.6659 2.42773C12.2558 2.42773 11.9501 2.73926 11.9501 4.16992C11.9501 17.0986 11.954 30.0283 11.9452 42.957C11.9442 44.4805 12.1659 46.0381 11.3134 47.5518ZM9.57022 14.3027C8.47647 14.3027 7.47842 14.3027 6.48038 14.3027C5.16495 14.3037 4.83194 14.6328 4.83194 15.9375C4.83194 25.5449 4.83194 35.1533 4.83194 44.7607C4.83194 44.9463 4.82901 45.1309 4.8378 45.3164C4.88955 46.4717 5.75381 47.4082 6.87198 47.5244C8.11123 47.6533 9.18155 46.9795 9.46866 45.8438C9.56241 45.4736 9.56631 45.0732 9.56631 44.6865C9.5712 34.8018 9.57022 24.916 9.57022 15.0313C9.57022 14.8125 9.57022 14.5947 9.57022 14.3027Z" fill="#263238"/>
<path d="M21.4334 17.9198C20.7361 17.8602 20.0193 17.8837 19.3455 17.7255C17.825 17.3671 16.7752 16.0331 16.7195 14.4735C16.6873 13.5682 16.6843 12.66 16.7205 11.7548C16.7957 9.88855 18.2986 8.43054 20.1765 8.3866C21.0271 8.36609 21.8787 8.36609 22.7293 8.38758C24.6414 8.43543 26.1482 9.96277 26.1843 11.8817C26.2 12.7137 26.2009 13.5468 26.1834 14.3788C26.1453 16.2714 24.6638 17.7772 22.7693 17.8544C22.3259 17.8729 21.8816 17.8573 21.4373 17.8573C21.4363 17.8778 21.4343 17.8993 21.4334 17.9198ZM19.071 13.0887C19.071 13.4589 19.0652 13.828 19.072 14.1971C19.0877 15.0438 19.53 15.4862 20.3855 15.4979C21.1062 15.5087 21.8269 15.5106 22.5476 15.497C23.3162 15.4823 23.78 15.0702 23.8123 14.3182C23.8464 13.5253 23.8445 12.7284 23.8132 11.9345C23.7849 11.2196 23.3611 10.7792 22.6687 10.7518C21.8572 10.7186 21.0418 10.7186 20.2302 10.7509C19.5144 10.7792 19.0964 11.2489 19.074 11.9794C19.0623 12.3495 19.072 12.7196 19.071 13.0887Z" fill="#263238"/>
<path d="M21.4736 20.2031C22.1709 20.2637 22.8877 20.2402 23.5606 20.4004C25.0938 20.7656 26.1494 22.1465 26.1816 23.7168C26.1992 24.5674 26.2002 25.4189 26.1816 26.2686C26.1397 28.1748 24.6094 29.6943 22.6963 29.7334C21.8643 29.75 21.0313 29.751 20.1992 29.7334C18.2998 29.6953 16.7871 28.2256 16.7178 26.3301C16.6846 25.4248 16.6836 24.5166 16.7207 23.6123C16.7959 21.792 18.2588 20.3486 20.0811 20.2686C20.543 20.248 21.0059 20.2656 21.4678 20.2656C21.4707 20.2451 21.4727 20.2246 21.4736 20.2031ZM21.4287 22.624C21.041 22.624 20.6523 22.6104 20.2647 22.627C19.5439 22.6582 19.0938 23.1025 19.0772 23.8213C19.0586 24.5967 19.0606 25.373 19.0772 26.1484C19.0918 26.875 19.5195 27.3359 20.2432 27.3652C21.0361 27.3975 21.832 27.3936 22.626 27.3682C23.333 27.3447 23.7764 26.9287 23.8106 26.2256C23.8496 25.415 23.8486 24.5996 23.8135 23.7881C23.7822 23.0586 23.3262 22.6504 22.5938 22.625C22.2041 22.6123 21.8164 22.624 21.4287 22.624Z" fill="#263238"/>
<path d="M20.3105 37.539C21.5068 36.3359 22.6924 35.1405 23.8808 33.9472C24.0244 33.8027 24.165 33.6523 24.3281 33.5321C24.8154 33.1737 25.4306 33.2245 25.8476 33.6415C26.2597 34.0536 26.3213 34.6855 25.9775 35.163C25.8486 35.3417 25.6845 35.496 25.5273 35.6523C24.1142 37.0683 22.7021 38.4843 21.2842 39.8964C20.5537 40.6239 19.9638 40.62 19.2265 39.8915C18.5283 39.2011 17.832 38.5087 17.1455 37.8085C16.5224 37.1738 16.4912 36.5458 17.0371 36.0107C17.581 35.4765 18.1924 35.5204 18.8379 36.1474C19.289 36.5859 19.7334 37.0321 20.1816 37.4745C20.1943 37.4862 20.2138 37.4911 20.3105 37.539Z" fill="#263238"/>
<path d="M34.4629 23.8124C32.9082 23.8124 31.3535 23.8192 29.7988 23.8095C28.9287 23.8046 28.4541 23.3114 28.5098 22.5077C28.5557 21.8466 29.001 21.4452 29.7471 21.4355C30.9316 21.4198 32.1162 21.4247 33.3008 21.4237C35.2627 21.4218 37.2246 21.411 39.1865 21.4286C40.2148 21.4384 40.7725 22.2089 40.4268 23.081C40.2022 23.6493 39.7451 23.8144 39.1826 23.8124C37.6094 23.8105 36.0361 23.8134 34.4629 23.8124Z" fill="#263238"/>
<path d="M34.5202 35.6847C32.9831 35.6847 31.447 35.6905 29.9098 35.6817C29.2048 35.6778 28.8054 35.42 28.6384 34.9063C28.3737 34.0948 28.8727 33.3575 29.7419 33.3106C30.2585 33.2823 30.778 33.3028 31.2966 33.3028C33.8337 33.3028 36.3698 33.2999 38.9069 33.3067C39.1628 33.3077 39.4294 33.3224 39.6725 33.3946C40.1979 33.5499 40.4655 34.0118 40.4255 34.6075C40.3884 35.1524 40.0515 35.5763 39.5153 35.6378C39.0026 35.6964 38.4811 35.6817 37.9636 35.6847C36.8161 35.6886 35.6677 35.6847 34.5202 35.6847Z" fill="#263238"/>
<path d="M34.4648 11.9395C32.9091 11.9395 31.3535 11.9522 29.7988 11.9346C28.8544 11.9239 28.3173 11.1612 28.625 10.3155C28.8046 9.82035 29.1728 9.58402 29.6865 9.57523C30.3339 9.56449 30.9824 9.56644 31.6308 9.56644C34.1308 9.56546 36.6308 9.56058 39.1308 9.56937C40.041 9.5723 40.539 10.085 40.4531 10.8858C40.3818 11.5547 39.9482 11.9307 39.1884 11.9356C37.6123 11.9473 36.038 11.9395 34.4648 11.9395Z" fill="#263238"/>
<path d="M32.1456 14.3038C32.8858 14.3038 33.627 14.294 34.3673 14.3057C35.1993 14.3194 35.6798 14.7579 35.6876 15.4844C35.6954 16.212 35.2178 16.6768 34.3926 16.6856C32.8741 16.7002 31.3555 16.7022 29.838 16.6846C29.043 16.6748 28.5802 16.2188 28.5733 15.5108C28.5665 14.7803 29.0469 14.3223 29.8682 14.3067C30.627 14.292 31.3868 14.3038 32.1456 14.3038Z" fill="#263238"/>
<path d="M32.1855 28.5566C31.4268 28.5566 30.667 28.5693 29.9082 28.5527C29.0586 28.5342 28.6084 28.1094 28.6094 27.3672C28.6104 26.626 29.0791 26.1875 29.9121 26.1826C31.4121 26.1738 32.9121 26.1738 34.4111 26.1826C35.2236 26.1875 35.7246 26.6543 35.7227 27.3721C35.7217 28.0732 35.2559 28.5098 34.4619 28.5537C34.4248 28.5557 34.3877 28.5566 34.3506 28.5566C33.6299 28.5566 32.9072 28.5566 32.1855 28.5566Z" fill="#263238"/>
<path d="M32.1307 38.0644C32.9081 38.0644 33.6864 38.0546 34.4628 38.0673C35.2079 38.08 35.6727 38.5282 35.6893 39.2177C35.7069 39.9257 35.2362 40.412 34.4638 40.4208C32.9091 40.4374 31.3534 40.4374 29.7987 40.4208C29.0272 40.413 28.5565 39.9267 28.5722 39.2187C28.5888 38.5116 29.0653 38.0741 29.8524 38.0654C30.6122 38.0566 31.371 38.0634 32.1307 38.0644Z" fill="#263238"/>
</svg>
