<svg width="50" height="50" viewBox="0 0 50 50" fill="none" xmlns="http://www.w3.org/2000/svg">
<g clip-path="url(#clip0_330_306)">
<path d="M27.4998 11C19.4998 13.4 17.4998 21.3334 17.4998 25C17.0998 26.2001 18.9998 26.1667 19.9998 26C22.3998 26 25.3331 27.6667 26.4998 28.5L29.9998 29C33.5998 28.6 34.8331 29.8333 34.9998 30.5L40.4998 26C40.4998 20 37.4998 15.5 35.9998 14C33.1998 10.8 29.1665 10.6667 27.4998 11Z" fill="#C7EFC2"/>
<path d="M33.5005 2.00018C32.3005 0.800176 26.6672 1.16684 24.0005 1.50018L27.0005 7.00012H30.0005L32.0005 6.00012L33.5005 2.00018Z" fill="#C7EFC2"/>
<path d="M8.62293 30.4659C9.6698 29.5548 10.6903 28.6544 11.7245 27.7696C12.9471 26.7247 14.3329 25.9698 15.8729 25.504C16.1288 25.4269 16.2635 25.3448 16.2772 25.0235C16.5096 19.296 18.9198 14.7647 23.7235 11.5616C23.7499 11.544 23.7723 11.5196 23.829 11.4689C23.2147 10.6593 22.9755 9.7501 23.2655 8.7501C23.5585 7.74131 24.246 7.09776 25.2587 6.74033C25.1884 6.59287 25.1366 6.46494 25.0692 6.34483C24.3456 5.04209 23.6171 3.74326 22.8964 2.43858C22.4432 1.61826 22.6825 1.0333 23.5858 0.782327C25.0262 0.382913 26.4843 0.137796 27.9911 0.13389C30.0536 0.129007 32.1044 0.140726 34.1073 0.731546C35.1571 1.04112 35.4032 1.57432 34.8749 2.52842C34.1073 3.91612 33.3358 5.30088 32.5477 6.71983C33.536 7.08408 34.2489 7.70518 34.5487 8.71006C34.8475 9.71299 34.6327 10.631 34.0116 11.4425C38.7626 14.6446 41.1903 19.1388 41.6102 24.8302C41.6981 24.7843 41.8065 24.7394 41.9042 24.6759C42.6796 24.1739 43.4374 23.6437 44.2294 23.17C46.2577 21.9562 48.8856 22.8146 49.6444 25.0343C50.1376 26.4776 49.9374 28.0089 48.6747 29.1788C46.2723 31.4044 43.8934 33.6544 41.5038 35.8937C40.0487 37.2569 38.5848 38.6105 37.1425 39.9874C36.0673 41.0147 34.8104 41.5021 33.3202 41.4952C28.9589 41.4767 24.5985 41.4884 20.2372 41.4884C20.0653 41.4884 19.8944 41.4884 19.7811 41.4884C19.9091 41.8663 20.1669 42.2403 20.1102 42.5597C20.0477 42.9151 19.743 43.2628 19.4686 43.5411C17.5555 45.4796 15.6249 47.4005 13.6981 49.3253C12.9755 50.047 12.5458 50.0431 11.8134 49.3116C8.08777 45.586 4.36218 41.8605 0.636598 38.1349C-0.0723861 37.4259 -0.0733627 36.9933 0.632692 36.2872C2.53504 34.3839 4.43738 32.4815 6.3407 30.5782C7.34949 29.5733 7.48426 29.5655 8.62293 30.4659ZM9.98523 31.8517C10.0731 31.9552 10.119 32.0177 10.1737 32.0733C12.5917 34.4933 15.0057 36.9161 17.4374 39.3214C17.5829 39.4659 17.8632 39.5362 18.0809 39.5372C23.1708 39.5489 28.2616 39.5392 33.3514 39.5528C34.3153 39.5558 35.1083 39.2423 35.8046 38.5792C37.4598 37.003 39.1366 35.4493 40.8046 33.8868C42.9579 31.8692 45.1083 29.8497 47.2645 27.837C47.7987 27.338 48.0966 26.756 47.9374 26.0177C47.6561 24.7052 46.2528 24.1681 45.08 24.9337C42.0956 26.881 39.121 28.8448 36.1346 30.7901C35.8212 30.9942 35.6845 31.1896 35.703 31.5968C35.7968 33.6925 34.2469 35.5353 32.1766 35.6212C29.7811 35.7198 27.3798 35.6583 24.9803 35.6466C24.4491 35.6437 24.0634 35.211 24.0516 34.7062C24.0389 34.1827 24.4335 33.7608 24.9852 33.7169C25.1307 33.7052 25.2772 33.712 25.4227 33.712C27.5136 33.712 29.6054 33.7149 31.6962 33.7101C32.912 33.7071 33.785 32.8751 33.7743 31.7442C33.7636 30.631 32.9022 29.8263 31.704 29.8214C30.5526 29.8165 29.4003 29.7784 28.2518 29.8321C27.1561 29.8829 26.2596 29.5294 25.3759 28.8917C22.4452 26.7794 19.2499 26.3448 15.8387 27.5685C13.4667 28.4161 11.8837 30.3224 9.98523 31.8517ZM34.8436 29.3146C36.2411 28.3985 37.5497 27.4972 38.9042 26.673C39.4364 26.3487 39.6132 25.9601 39.6102 25.379C39.5917 20.7257 37.7909 16.8897 34.1825 13.9884C30.7792 11.2511 26.7743 11.3683 23.413 14.1554C20.9481 16.1993 19.3759 18.8185 18.6102 21.9093C18.3641 22.9015 18.2811 23.9347 18.1307 24.9015C19.2684 24.9737 20.2743 24.9767 21.2616 25.1144C23.3427 25.4044 25.1981 26.2579 26.8553 27.545C27.1708 27.7901 27.4999 27.9591 27.9237 27.8272C27.9237 27.4552 27.9237 27.1017 27.9237 26.7726C27.619 26.6036 27.3212 26.4688 27.0585 26.2843C26.7948 26.0997 26.5497 25.881 26.3261 25.6485C25.83 25.1319 25.8055 24.5587 26.2382 24.1466C26.6659 23.7394 27.2108 23.8175 27.7362 24.3009C28.0038 24.547 28.3182 24.7784 28.6532 24.9054C29.162 25.0978 29.7177 24.7384 29.8544 24.2101C29.9872 23.6954 29.6434 23.1476 29.1044 23.0333C28.9637 23.003 28.8143 23.0138 28.6688 23.0011C27.494 22.8985 26.4794 22.086 26.1268 20.9659C25.7723 19.8419 26.0858 18.5099 27.0692 17.8761C27.7714 17.4239 28.0419 16.9571 27.9618 16.1485C27.911 15.63 28.3925 15.2374 28.8983 15.2306C29.4208 15.2237 29.8397 15.6212 29.8778 16.1739C29.8934 16.3995 29.8993 16.629 29.8798 16.8546C29.8514 17.1778 29.9384 17.3653 30.2714 17.5108C30.6337 17.67 30.9628 17.9308 31.2636 18.1974C31.6971 18.5821 31.7255 19.1329 31.3817 19.544C31.0262 19.9698 30.4755 20.0118 29.9921 19.6515C29.8241 19.5255 29.663 19.3858 29.4823 19.2823C29.0809 19.0528 28.6718 19.0421 28.3036 19.3468C27.9755 19.6192 27.8514 19.9786 27.997 20.3927C28.1552 20.8419 28.496 21.0372 28.9637 21.0675C30.4218 21.1622 31.4677 22.0392 31.7626 23.3966C32.0458 24.7003 31.4296 25.9269 30.1552 26.6231C30.0458 26.6827 29.9091 26.8048 29.8973 26.9103C29.8632 27.2228 29.8846 27.5411 29.8846 27.8888C31.7294 27.8399 33.5448 27.6632 34.8436 29.3146ZM7.53406 32.3263C5.88953 33.9659 4.2323 35.6192 2.63074 37.2169C5.99988 40.588 9.40711 43.9972 12.7704 47.3624C14.3973 45.7442 16.0585 44.0938 17.6864 42.4747C14.2977 39.089 10.8905 35.6817 7.53406 32.3263ZM25.1112 2.41221C25.8104 3.671 26.4862 4.90049 27.1845 6.11729C27.2391 6.21299 27.454 6.25791 27.5927 6.25498C28.077 6.24717 28.5604 6.19248 29.0448 6.18662C29.5555 6.17979 30.1786 6.39366 30.5468 6.171C30.9452 5.92979 31.1073 5.29698 31.368 4.83213C31.8143 4.03526 32.2567 3.23643 32.7196 2.40537C30.1542 1.86729 27.6581 1.85557 25.1112 2.41221ZM28.9384 8.00303C27.8798 8.21104 26.829 8.38487 25.7968 8.63389C25.2304 8.77061 24.9745 9.33506 25.1356 9.85948C25.2889 10.3605 25.7723 10.5997 26.3397 10.4386C28.0663 9.94834 29.786 9.96592 31.5194 10.4298C31.786 10.5011 32.1844 10.4278 32.4022 10.2628C33.0057 9.80479 32.7782 8.83213 32.0028 8.62901C31.0048 8.36924 29.9813 8.21104 28.9384 8.00303Z" fill="#263238"/>
<path d="M22.0984 34.7043C22.0848 35.2404 21.615 35.6769 21.0818 35.6496C20.5652 35.6232 20.1482 35.174 20.1609 34.6574C20.1736 34.1203 20.6414 33.6857 21.1775 33.7121C21.6941 33.7394 22.1121 34.1886 22.0984 34.7043Z" fill="#263238"/>
</g>
<defs>
<clipPath id="clip0_330_306">
<rect width="50" height="50" fill="white"/>
</clipPath>
</defs>
</svg>
