<svg width="50" height="50" viewBox="0 0 50 50" fill="none" xmlns="http://www.w3.org/2000/svg">
<path d="M40.5003 4H8.50029C3.70052 5.2 1.83372 9.5 1.50029 11.5C0.300291 18.3 5.66696 21.3333 8.50029 22H18.5003C19.3003 19.2 21.8336 20.8333 23.0003 22H42.0003C47.6003 20.4 49.0003 14.6667 49.0003 12C47.8003 6.4 42.8336 4.33333 40.5003 4Z" fill="#C7EFC2"/>
<path d="M0.126953 11.9863C0.268555 11.3594 0.37207 10.7217 0.557617 10.1074C1.82422 5.91599 5.64746 3.05759 10.0293 3.03611C13.4932 3.01951 16.958 3.03123 20.4219 3.03318C21.1602 3.03318 21.5781 3.37302 21.5938 3.96873C21.6094 4.57127 21.1553 4.97263 20.4229 4.97361C16.9912 4.97849 13.5586 4.95798 10.127 4.98142C6.19629 5.00779 3.02441 7.61814 2.23145 11.4336C1.32129 15.8135 4.4668 20.292 8.9209 20.915C9.70117 21.0244 10.501 21.0205 11.292 21.0263C13.2832 21.041 15.2744 21.0263 17.2656 21.0371C17.5508 21.039 17.7236 20.9668 17.8965 20.7177C19.0986 18.9883 21.5439 18.9883 22.748 20.7129C22.9043 20.9365 23.0498 21.0381 23.3281 21.0371C28.8643 21.0273 34.4004 21.0508 39.9365 21.0195C43.7979 20.998 46.9531 18.3633 47.7461 14.584C48.6611 10.2207 45.5625 5.76951 41.125 5.09373C40.584 5.0117 40.0303 4.98142 39.4824 4.98045C36.2285 4.97068 32.9746 4.97654 29.7207 4.97263C29.5117 4.97263 29.2959 4.96677 29.0967 4.91502C28.625 4.79295 28.3447 4.36521 28.3926 3.88963C28.4375 3.44431 28.79 3.09568 29.2559 3.04392C29.3838 3.02927 29.5146 3.03318 29.6436 3.03318C33.0107 3.03318 36.3779 3.02732 39.7451 3.03416C44.7236 3.0449 48.8145 6.45994 49.7178 11.3467C50.7168 16.7549 46.7422 22.1992 41.2959 22.8691C40.7354 22.9385 40.167 22.9687 39.6025 22.9687C34.374 22.9765 29.1455 22.9726 23.916 22.9726C23.7246 22.9726 23.5332 22.9726 23.3057 22.9726C23.3057 23.747 23.3057 24.4824 23.3057 25.2568C24.3154 25.0176 25.2441 25.1552 26.0742 25.8408C26.8057 25.2773 27.6172 25.0166 28.5264 25.1982C29.4365 25.3799 30.1025 25.9121 30.5518 26.7344C31.2529 26.4414 31.9463 26.3545 32.6602 26.5351C33.9844 26.8701 34.8916 27.9834 34.9023 29.3515C34.9189 31.3584 34.9561 33.3681 34.8867 35.373C34.7871 38.2422 33.7764 40.7939 32.0088 43.0566C31.8301 43.2861 31.7471 43.624 31.7109 43.9228C31.6611 44.3379 31.707 44.7636 31.6943 45.1836C31.665 46.1787 30.9268 46.957 29.9424 46.9619C26.3809 46.9765 22.8193 46.9765 19.2588 46.9629C18.2695 46.959 17.5273 46.1924 17.502 45.1943C17.4834 44.4824 17.5205 43.7685 17.4834 43.0586C17.4697 42.789 17.3789 42.4844 17.2236 42.2666C15.7451 40.2011 14.2441 38.1513 12.75 36.0967C11.9834 35.0429 11.7139 33.9072 12.2529 32.6728C13.0508 30.8457 15.3682 30.2607 16.9512 31.4697C17.0635 31.5556 17.1748 31.6416 17.3369 31.7656C17.3369 28.8193 17.3369 25.9326 17.3369 22.998C17.1572 22.9892 16.9863 22.9746 16.8164 22.9746C14.6152 22.9726 12.4131 22.9844 10.2119 22.9707C5.24902 22.9414 1.18359 19.5459 0.268555 14.6787C0.22168 14.4287 0.173828 14.1787 0.126953 13.9287C0.126953 13.2812 0.126953 12.6338 0.126953 11.9863ZM29.7549 45.0088C29.7549 44.4765 29.7812 43.9922 29.748 43.5117C29.708 42.9404 29.9014 42.5029 30.2754 42.0664C32.0664 39.9756 33.0234 37.5683 32.9717 34.7812C32.9395 33.0342 32.9688 31.2861 32.9639 29.539C32.9619 28.8291 32.5664 28.4033 31.9277 28.3955C31.2695 28.3867 30.8545 28.8213 30.8379 29.5469C30.8272 30 30.8975 30.4678 30.8037 30.9004C30.7412 31.1904 30.5068 31.5488 30.2529 31.664C29.999 31.7793 29.541 31.7353 29.3271 31.5664C29.0898 31.3779 28.9297 30.9756 28.9102 30.6553C28.8545 29.7685 28.9004 28.876 28.8818 27.9863C28.8721 27.4931 28.5381 27.1543 28.0791 27.1074C27.5918 27.0576 27.2021 27.3408 27.0928 27.8408C27.0586 27.997 27.0557 28.1611 27.0557 28.3222C27.0518 29.1308 27.0518 29.9404 27.0537 30.749C27.0547 31.1767 26.8848 31.5039 26.4922 31.6894C25.8145 32.0097 25.1289 31.5371 25.1123 30.7217C25.0938 29.8154 25.1182 28.9092 25.0986 28.0039C25.0879 27.4873 24.7344 27.1318 24.2637 27.1006C23.7617 27.0674 23.3701 27.3916 23.292 27.917C23.2686 28.0761 23.2734 28.2392 23.2734 28.4013C23.2695 29.2099 23.2832 30.0195 23.2617 30.8281C23.2471 31.376 22.8652 31.7549 22.3555 31.7861C21.8633 31.8164 21.4404 31.4609 21.3506 30.9238C21.3213 30.75 21.3262 30.5693 21.3262 30.3916C21.3252 27.8515 21.3252 25.3105 21.3242 22.7705C21.3242 22.5927 21.3291 22.4131 21.3076 22.2373C21.2451 21.7392 20.8516 21.3926 20.3506 21.3818C19.8496 21.3701 19.4365 21.6953 19.3535 22.1894C19.3193 22.3955 19.3223 22.6084 19.3223 22.8183C19.3203 26.4912 19.3193 30.165 19.3232 33.8379C19.3242 34.3535 19.2461 34.8183 18.7051 35.04C18.1875 35.2519 17.8096 34.999 17.457 34.6465C16.9307 34.1211 16.3994 33.5976 15.8525 33.0937C15.4365 32.7099 14.9111 32.6758 14.4688 32.9629C14.0029 33.2656 13.8057 33.7793 13.9951 34.3135C14.085 34.5674 14.2285 34.8105 14.3877 35.0303C15.9316 37.167 17.4795 39.3017 19.04 41.4267C19.3223 41.8105 19.4648 42.2031 19.4492 42.6826C19.4248 43.4521 19.4424 44.2236 19.4424 45.0107C22.9014 45.0088 26.2949 45.0088 29.7549 45.0088Z" fill="#263238"/>
<path d="M27.3449 13.0349C27.3449 11.9342 27.3385 10.8325 27.3477 9.73173C27.3523 9.13929 27.7225 8.75804 28.2583 8.75987C28.795 8.7617 29.146 9.14112 29.1634 9.73904C29.1643 9.76921 29.1643 9.79938 29.1643 9.82955C29.1643 11.7687 29.1661 13.7078 29.1634 15.647C29.1625 16.2924 28.9211 16.6691 28.4311 16.8145C27.9941 16.9443 27.5991 16.766 27.2499 16.265C26.5239 15.2209 25.8035 14.1723 25.0803 13.1264C24.988 12.9929 24.8911 12.864 24.7101 12.6153C24.7101 13.5113 24.7101 14.2728 24.7101 15.0353C24.7101 15.3535 24.7183 15.6716 24.7064 15.9898C24.6863 16.5319 24.2923 16.9297 23.7949 16.926C23.2975 16.9223 22.909 16.5246 22.8934 15.9779C22.8797 15.5089 22.8898 15.039 22.8898 14.569C22.8898 13.0084 22.8889 11.4478 22.8907 9.88715C22.8916 9.28831 23.0946 8.94729 23.5279 8.80559C23.9567 8.6657 24.3261 8.82936 24.6689 9.32397C25.5311 10.5674 26.3905 11.8135 27.2508 13.0587C27.2819 13.0505 27.3139 13.0422 27.3449 13.0349Z" fill="#263238"/>
<path d="M20.3626 13.7515C20.0216 13.7515 19.7483 13.7698 19.4785 13.7478C18.9227 13.7012 18.5762 13.3127 18.5981 12.7906C18.6191 12.2933 18.9803 11.9504 19.5288 11.9385C20.1496 11.9257 20.7713 11.9239 21.3912 11.9404C21.9397 11.955 22.3045 12.3152 22.3018 12.8656C22.2917 15.0049 21.0721 16.7374 18.9117 16.9212C16.893 17.0922 14.8744 15.4941 14.6193 13.4736C14.4026 11.7538 14.9905 10.355 16.4515 9.41244C17.8612 8.50276 19.3387 8.52104 20.7896 9.3585C21.4104 9.71689 21.5192 10.388 21.0657 10.8414C20.7329 11.1742 20.3581 11.1925 19.8214 10.9018C18.834 10.3678 17.7671 10.5059 17.0274 11.2629C16.3454 11.9614 16.1936 13.0521 16.659 13.9115C17.1262 14.7745 18.098 15.2463 19.0251 15.057C19.7144 14.9144 20.1268 14.4811 20.3626 13.7515Z" fill="#263238"/>
<path d="M37.7334 11.9953C37.7334 12.6161 37.7197 13.2369 37.7361 13.8577C37.77 15.0773 37.2141 15.9467 36.1654 16.5108C35.0985 17.085 34.0133 17.096 32.9674 16.4688C32.0028 15.891 31.4826 15.0444 31.5046 13.8805C31.5293 12.5338 31.5073 11.1862 31.5119 9.83861C31.5137 9.15292 31.8392 8.76528 32.4005 8.75888C32.9738 8.75156 33.3285 9.16206 33.3313 9.8569C33.3358 11.189 33.3313 12.521 33.3331 13.8531C33.3349 14.5781 33.8551 15.0965 34.582 15.1065C35.3545 15.1166 35.9085 14.5891 35.9104 13.8321C35.9131 12.5 35.9076 11.1679 35.9131 9.83587C35.9149 9.26446 36.1627 8.89327 36.5942 8.78173C37.1647 8.63454 37.705 9.02218 37.7233 9.63382C37.7462 10.4201 37.7288 11.2082 37.7288 11.9953C37.7297 11.9953 37.7316 11.9953 37.7334 11.9953Z" fill="#263238"/>
<path d="M8.61529 8.66016C9.49297 8.7653 10.2463 9.05329 10.9183 9.55247C11.3736 9.89074 11.4595 10.4046 11.1624 10.8279C10.8625 11.2548 10.388 11.2978 9.87422 11.0509C9.4372 10.8407 8.95813 10.7053 8.48363 10.5975C8.32364 10.5609 8.09508 10.6706 7.94514 10.7794C7.68275 10.9696 7.7376 11.2731 8.05028 11.4066C8.5778 11.6324 9.13184 11.8024 9.64199 12.0612C10.0946 12.2897 10.5599 12.5476 10.9174 12.8977C11.54 13.5057 11.6982 14.292 11.4184 15.1203C11.0947 16.0775 10.3771 16.6453 9.41252 16.8391C8.09233 17.1051 6.92575 16.7349 5.95389 15.7996C5.50865 15.3708 5.48305 14.8204 5.8643 14.4364C6.24097 14.057 6.74747 14.0661 7.19636 14.4812C7.69098 14.9393 8.26238 15.1687 8.93528 15.0727C9.29366 15.0215 9.64108 14.8707 9.69411 14.4684C9.74622 14.0753 9.39515 13.9363 9.10807 13.8111C8.5266 13.5578 7.93234 13.3329 7.34447 13.0952C6.52713 12.7652 6.04349 12.1691 5.97309 11.2859C5.89721 10.3323 6.29948 9.5863 7.13145 9.14471C7.58401 8.90518 8.11793 8.81741 8.61529 8.66016Z" fill="#263238"/>
<path d="M40.4191 14.2361C40.4191 14.8861 40.4283 15.474 40.4164 16.06C40.4081 16.4705 40.2299 16.7896 39.8312 16.9505C39.4884 17.0895 39.1437 17.0437 38.9124 16.7731C38.7497 16.583 38.6162 16.2977 38.6135 16.0536C38.5906 13.9792 38.5952 11.9038 38.6034 9.82936C38.6061 9.1839 38.9472 8.85934 39.5945 8.85202C40.1851 8.84563 40.7757 8.84105 41.3663 8.85385C42.8163 8.88585 43.982 10.0625 44.0002 11.5015C44.0185 12.9561 42.905 14.1565 41.4559 14.2324C41.1277 14.2507 40.7976 14.2361 40.4191 14.2361ZM40.4484 10.676C40.4484 11.2775 40.4484 11.8279 40.4484 12.4076C41.0317 12.3929 41.6698 12.6142 42.0245 11.9961C42.1553 11.7685 42.1599 11.3498 42.0346 11.1175C41.6945 10.484 41.0481 10.6979 40.4484 10.676Z" fill="#263238"/>
<path d="M12.2195 12.8392C12.2195 11.7786 12.2086 10.719 12.2241 9.65848C12.2305 9.1913 12.524 8.85485 12.9272 8.77348C13.3441 8.68846 13.7838 8.89691 13.9392 9.28272C14.0051 9.44637 14.0334 9.63562 14.0343 9.8139C14.0407 11.828 14.0435 13.8421 14.0352 15.8571C14.0325 16.5154 13.6567 16.9332 13.1128 16.9277C12.5669 16.9213 12.2214 16.5108 12.2168 15.8388C12.2104 14.8396 12.215 13.8394 12.215 12.8401C12.2159 12.8392 12.2177 12.8392 12.2195 12.8392Z" fill="#263238"/>
<path d="M25.0137 3.03703C25.5439 3.0468 25.959 3.46672 25.959 3.99211C25.959 4.52629 25.4971 4.98039 24.9688 4.96574C24.4561 4.95109 24.0244 4.50969 24.0234 3.99601C24.0225 3.45207 24.4609 3.02726 25.0137 3.03703Z" fill="#263238"/>
</svg>
