<svg width="50" height="50" viewBox="0 0 50 50" fill="none" xmlns="http://www.w3.org/2000/svg">
<g clip-path="url(#clip0_330_282)">
<path d="M44.9999 1.5H13.4999C11.1002 1.9 10.1667 5 9.99989 6.5V33C9.59989 37.4 12.4999 39.1667 13.9999 39.5H42.9999C47.3999 39.5 48.4999 36.5 48.4999 35V7C48.4999 2.6 46.1666 1.5 44.9999 1.5Z" fill="#C7EFC2"/>
<path d="M0.0927734 44.8446C0.0927734 34.5673 0.0927734 24.2899 0.0927734 14.0116C0.125 13.9042 0.166016 13.7987 0.188477 13.6893C0.543945 11.9628 1.45898 10.6298 2.97168 9.71472C3.95605 9.12 5.03223 8.87781 6.17285 8.87976C7.05859 8.88172 7.94434 8.87976 8.875 8.87976C8.875 7.86316 8.86133 6.91004 8.87793 5.95789C8.93262 2.72058 11.4609 0.116091 14.6289 0.110232C24.4688 0.0916773 34.3086 0.0926538 44.1484 0.110232C47.2803 0.116091 49.8867 2.72156 49.8926 5.85535C49.9111 15.6932 49.9102 25.5311 49.8926 35.369C49.8877 38.2997 47.5908 40.787 44.6699 41.0575C43.6729 41.1503 42.6621 41.1044 41.6582 41.1229C41.4873 41.1259 41.3164 41.1376 41.1191 41.1464C41.1191 42.1249 41.1367 43.0477 41.1162 43.9696C41.0645 46.2792 40.0586 48.0546 38.0322 49.1766C37.4092 49.5214 36.6738 49.6649 35.9902 49.9003C25.7432 49.9003 15.4961 49.9003 5.24902 49.9003C5.1582 49.871 5.06934 49.8309 4.97559 49.8143C3.37695 49.5253 2.04688 48.7528 1.18066 47.3856C0.693359 46.619 0.448242 45.6971 0.0927734 44.8446ZM29.375 3.0282C24.5762 3.0282 19.7773 3.02722 14.9775 3.02918C13.0371 3.03015 11.8135 4.23719 11.8125 6.1825C11.8066 15.7948 11.8076 25.4071 11.8125 35.0194C11.8135 36.9696 13.0186 38.1835 14.9639 38.1854C24.5781 38.1913 34.1924 38.1913 43.8066 38.1854C45.7783 38.1845 46.9756 36.9618 46.9756 34.9843C46.9766 25.4042 46.9766 15.8241 46.9756 6.24402C46.9756 4.23914 45.7686 3.02918 43.7715 3.02918C38.9727 3.0282 34.1738 3.0282 29.375 3.0282ZM8.875 11.8173C8.59082 11.8173 8.35156 11.8173 8.1123 11.8173C7.43164 11.8173 6.75 11.8055 6.07031 11.8202C4.21484 11.8612 3.01953 13.0819 3.01953 14.9413C3.0166 24.5194 3.01855 34.0975 3.01855 43.6747C3.01855 45.8036 4.19531 46.9755 6.33105 46.9755C15.084 46.9755 23.8369 46.9755 32.5898 46.9755C33.4814 46.9755 34.373 46.9872 35.2646 46.9716C36.5879 46.9491 37.7939 46.1376 38.0205 44.8661C38.2353 43.6581 38.1768 42.4012 38.2402 41.1229C37.9014 41.1229 37.6924 41.1229 37.4844 41.1229C30.0283 41.1229 22.5713 41.1259 15.1152 41.1171C14.5996 41.1161 14.0723 41.0897 13.5713 40.9804C10.7129 40.3554 8.87891 38.036 8.87695 35.0614C8.87207 27.5419 8.875 20.0223 8.875 12.5018C8.875 12.2958 8.875 12.0868 8.875 11.8173Z" fill="#263238"/>
<path d="M27.9132 22.2205C29.758 20.3748 31.5343 18.5769 33.3419 16.8103C33.6125 16.5457 34.006 16.3328 34.3751 16.2576C35.0001 16.1306 35.5451 16.4695 35.8146 17.0154C36.1037 17.6004 36.0285 18.1531 35.6105 18.6424C35.3478 18.95 35.046 19.2234 34.7599 19.5096C32.9044 21.367 31.049 23.2234 29.1916 25.0789C28.3078 25.9617 27.5539 25.9637 26.6798 25.0906C25.5675 23.9793 24.4542 22.8699 23.3458 21.7556C22.674 21.0808 22.6251 20.2019 23.2169 19.5926C23.8166 18.9754 24.7287 19.0096 25.4142 19.6922C26.2394 20.5135 27.0529 21.3484 27.9132 22.2205Z" fill="#263238"/>
</g>
<defs>
<clipPath id="clip0_330_282">
<rect width="50" height="50" fill="white"/>
</clipPath>
</defs>
</svg>
