<svg width="37" height="37" viewBox="0 0 37 37" fill="none" xmlns="http://www.w3.org/2000/svg">
<path d="M28.9062 16.1875L26.4781 15.0312C24.5125 14.1062 23.125 12.025 23.125 9.82812V2.3125H34.6875V9.82812C34.6875 12.025 33.4156 14.1062 31.3344 15.0312L28.9062 16.1875ZM25.4375 4.625V9.82812C25.4375 11.2156 26.2469 12.3719 27.4031 12.95L28.9062 13.6438L30.4094 12.95C31.5656 12.3719 32.375 11.1 32.375 9.82812V4.625H25.4375Z" fill="#157933"/>
<path d="M32.375 18.5V25.4375H4.625V6.9375H18.5V4.625H4.625C3.35312 4.625 2.3125 5.66562 2.3125 6.9375V25.4375C2.3125 26.7094 3.35312 27.75 4.625 27.75H13.875V32.375H9.25V34.6875H27.75V32.375H23.125V27.75H32.375C33.6469 27.75 34.6875 26.7094 34.6875 25.4375V18.5H32.375ZM20.8125 32.375H16.1875V27.75H20.8125V32.375Z" fill="#157933"/>
</svg>
