<svg width="34" height="36" viewBox="0 0 34 36" fill="none" xmlns="http://www.w3.org/2000/svg">
<path d="M16.9563 1.00077C17.5138 1.00077 18.0629 1.03695 18.5736 1.12207C19.0766 1.18798 19.5729 1.29763 20.0568 1.44979C20.542 1.59662 21.0165 1.77963 21.4911 2.00945C21.9529 2.22864 22.4274 2.49677 22.902 2.7883C23.7042 3.29903 24.4937 3.71186 25.2981 4.0417C26.8816 4.67549 28.5561 5.05263 30.2585 5.15891C31.1225 5.22062 32.0098 5.2568 32.9334 5.2568V13.7688C32.9334 15.3861 32.727 16.9183 32.3141 18.3781C31.9176 19.8171 31.3541 21.2048 30.6351 22.5128C29.9192 23.8191 29.0722 25.049 28.1071 26.1837C27.1272 27.3441 26.0662 28.4335 24.9321 29.4438C23.783 30.457 22.5727 31.3986 21.3081 32.2634C20.044 33.1401 18.7672 33.9551 17.4904 34.6957L16.9797 35L16.469 34.6957C15.1564 33.9358 13.8744 33.1244 12.6258 32.2634C11.3541 31.4084 10.1432 30.4663 9.00179 29.4438C7.86839 28.4335 6.8081 27.344 5.82893 26.1837C4.86641 25.0442 4.01556 23.815 3.28808 22.5128C2.58144 21.1989 2.01852 19.8127 1.60908 18.3781C1.19363 16.8773 0.988801 15.326 1.00047 13.7688V5.2568C1.92616 5.2568 2.81354 5.22062 3.67751 5.15891C4.52799 5.09983 5.37297 4.97821 6.20559 4.79502C7.02061 4.61201 7.83564 4.36942 8.6379 4.0417C9.47039 3.70572 10.2685 3.29025 11.0213 2.80107C11.9576 2.19246 12.9067 1.74345 13.843 1.44766C14.8514 1.13852 15.9017 0.98777 16.9563 1.00077ZM30.7926 7.34863C29.1818 7.27047 27.5859 7.00116 26.0386 6.54637C24.4995 6.08726 23.0336 5.41159 21.6847 4.53966C20.9851 4.08042 20.2253 3.72021 19.4269 3.46927C18.6294 3.22824 17.8 3.10914 16.9669 3.11602C16.1276 3.11059 15.2922 3.22963 14.4878 3.46927C13.6882 3.71206 12.9294 4.07283 12.2364 4.53966C10.8852 5.41635 9.41543 6.09498 7.87182 6.55488C6.36306 6.99325 4.78407 7.26138 3.12848 7.35927V13.7795C3.12848 15.1903 3.31149 16.5395 3.67751 17.8397C4.05039 19.1286 4.56422 20.3725 5.20968 21.5488C5.86287 22.7374 6.63275 23.858 7.50793 24.8941C8.39531 25.9389 9.34227 26.9114 10.3637 27.835C11.3852 28.7607 12.4556 29.6119 13.5749 30.4014C14.7049 31.193 15.837 31.9101 16.9669 32.5656C18.124 31.892 19.2521 31.1699 20.3483 30.4014C21.4751 29.6144 22.5511 28.7572 23.5702 27.835C24.5916 26.9114 25.5407 25.9389 26.4281 24.8941C27.3033 23.8581 28.0732 22.7375 28.7263 21.5488C29.3689 20.374 29.8751 19.1295 30.2351 17.8397C30.6122 16.5195 30.7999 15.1525 30.7926 13.7795V7.34863Z" fill="#157933" stroke="#157933" stroke-width="0.5"/>
<path d="M16.6551 9.7696C16.6938 9.69234 16.7541 9.62722 16.829 9.58167C16.9039 9.53612 16.9905 9.51196 17.0788 9.51196C17.1671 9.51196 17.2537 9.53612 17.3286 9.58167C17.4035 9.62722 17.4638 9.69234 17.5025 9.7696L19.1813 13.0803C19.2149 13.1472 19.2648 13.2052 19.3266 13.2492C19.3885 13.2932 19.4604 13.3219 19.5362 13.3328L23.2963 13.8635C23.6803 13.9176 23.8365 14.3788 23.5558 14.6442L20.839 17.2231C20.7842 17.2752 20.7432 17.3395 20.7197 17.4104C20.6962 17.4813 20.6908 17.5568 20.7039 17.6302L21.3448 21.2732C21.3591 21.3573 21.3491 21.4437 21.3159 21.5226C21.2826 21.6015 21.2274 21.6698 21.1564 21.7199C21.0855 21.7699 21.0015 21.7997 20.9141 21.8059C20.8267 21.8121 20.7393 21.7945 20.6616 21.755L17.2986 20.034C17.2312 19.9997 17.1562 19.9817 17.0801 19.9817C17.004 19.9817 16.9291 19.9997 16.8617 20.034L13.4987 21.755C13.4211 21.7938 13.334 21.8109 13.247 21.8043C13.16 21.7978 13.0766 21.7678 13.006 21.7179C12.9355 21.668 12.8806 21.5999 12.8474 21.5214C12.8142 21.4429 12.8041 21.357 12.8182 21.2732L13.459 17.6302C13.4725 17.557 13.4675 17.4817 13.4444 17.4108C13.4214 17.3398 13.3809 17.2754 13.3266 17.2231L10.5991 14.6442C10.5367 14.5845 10.4925 14.509 10.4716 14.4263C10.4507 14.3436 10.4539 14.2568 10.4809 14.1758C10.5078 14.0947 10.5574 14.0226 10.6242 13.9674C10.6909 13.9123 10.7721 13.8763 10.8586 13.8635L14.6188 13.3328C14.6946 13.3219 14.7665 13.2932 14.8283 13.2492C14.8902 13.2052 14.94 13.1472 14.9736 13.0803L16.6551 9.7696Z" fill="#157933"/>
</svg>
