<svg width="22" height="18" viewBox="0 0 22 18" fill="none" xmlns="http://www.w3.org/2000/svg">
<path fill-rule="evenodd" clip-rule="evenodd" d="M19.762 4.50014V5.08714C19.77 7.40087 19.1551 9.67409 17.9819 11.6683C16.8086 13.6625 15.1203 15.3042 13.094 16.4211C11.0722 17.5327 8.78704 18.0755 6.4814 17.9918C4.17576 17.9082 1.9359 17.2012 0 15.9461C0.389 15.9461 0.680999 16.0431 1.071 16.0431C3.12347 16.0693 5.12056 15.3774 6.717 14.0871C5.78055 14.065 4.87425 13.7517 4.12407 13.1907C3.37388 12.6298 2.81708 11.8491 2.53101 10.9571C2.81572 11.0372 3.11166 11.07 3.407 11.0541C3.80319 11.0367 4.19577 10.9708 4.576 10.8581C3.56071 10.6512 2.64786 10.1004 1.99149 9.29868C1.33511 8.49693 0.975385 7.4933 0.973007 6.45714V6.35914C1.56681 6.69281 2.23901 6.86164 2.92 6.84814C2.30272 6.4415 1.79394 5.89044 1.43776 5.24273C1.08158 4.59502 0.888765 3.87021 0.876007 3.13114C0.86093 2.34181 1.06294 1.5635 1.46001 0.881143C2.58577 2.29264 4.00416 3.44329 5.61745 4.25382C7.23074 5.06435 9.00056 5.51548 10.805 5.57614C10.805 5.28314 10.708 4.89214 10.708 4.50014C10.737 2.02714 12.725 0.0281428 15.186 0.000142755C15.8104 -0.00489508 16.4287 0.123461 16.9996 0.376625C17.5704 0.62979 18.0806 1.00193 18.496 1.46814C19.4914 1.27231 20.4461 0.90808 21.319 0.391143C20.9928 1.44352 20.3026 2.34538 19.372 2.93514C20.2694 2.79935 21.1502 2.5701 22 2.25114C21.3548 3.09481 20.6025 3.85083 19.762 4.50014Z" fill="white"/>
</svg>
