<svg width="26" height="19" viewBox="0 0 26 19" fill="none" xmlns="http://www.w3.org/2000/svg">
<path fill-rule="evenodd" clip-rule="evenodd" d="M0 6.1161C0 3.1551 2.162 0.640103 5.11 0.366103C10.3587 -0.122034 15.6413 -0.122034 20.89 0.366103C23.839 0.640103 26 3.1551 26 6.1161V12.8211C26 15.7831 23.838 18.2981 20.89 18.5711C15.6413 19.0593 10.3587 19.0593 5.11 18.5711C2.161 18.2981 0 15.7831 0 12.8211V6.1161ZM10.724 12.6071C10.6478 12.6453 10.563 12.6633 10.4779 12.6596C10.3927 12.6558 10.3099 12.6303 10.2373 12.5855C10.1648 12.5407 10.1049 12.4781 10.0634 12.4036C10.0218 12.3292 10 12.2453 10 12.1601V6.77806C10 6.6928 10.0218 6.60895 10.0634 6.53449C10.1049 6.46003 10.1648 6.39742 10.2373 6.35263C10.3099 6.30784 10.3927 6.28234 10.4779 6.27857C10.563 6.27479 10.6478 6.29286 10.724 6.33106L13.415 7.67656L16.106 9.02206C16.1892 9.06353 16.2592 9.12737 16.3081 9.20642C16.357 9.28547 16.383 9.37659 16.383 9.46956C16.383 9.56252 16.357 9.65365 16.3081 9.7327C16.2592 9.81175 16.1892 9.87559 16.106 9.91706L10.724 12.6071Z" fill="white"/>
</svg>
